SplineFontDB: 3.0
FontName: Coiny-Regular
FullName: Coiny
FamilyName: Coiny Regular
Weight: Regular
Copyright: 2015, Marcelo Magalhaes under SIL license.\n\nThe SIL Open Font License (OFL) is a free, libre and open source license specifically designed for fonts and related software based on our experience in font design and linguistic software engineering. \n\nhttp://scripts.sil.org/cms/scripts/page.php?site_id=nrsi&id=OFL\n
Version: 1.0
ItalicAngle: 0
UnderlinePosition: 140
UnderlineWidth: 50
Ascent: 750
Descent: 250
InvalidEm: 0
UFOAscent: 760
UFODescent: -240
LayerCount: 2
Layer: 0 0 "Back" 1
Layer: 1 0 "Fore" 0
PreferredKerning: 4
FSType: 0
OS2Version: 0
OS2_WeightWidthSlopeOnly: 0
OS2_UseTypoMetrics: 0
CreationTime: 1439837839
ModificationTime: 1445605987
PfmFamily: 33
TTFWeight: 400
TTFWidth: 5
LineGap: 0
VLineGap: 0
Panose: 2 0 9 3 6 5 0 6 0 0
OS2TypoAscent: 760
OS2TypoAOffset: 0
OS2TypoDescent: -240
OS2TypoDOffset: 0
OS2TypoLinegap: 0
OS2WinAscent: 1000
OS2WinAOffset: 0
OS2WinDescent: 450
OS2WinDOffset: 0
HheadAscent: 1000
HheadAOffset: 0
HheadDescent: -450
HheadDOffset: 0
OS2SubXSize: 650
OS2SubYSize: 700
OS2SubXOff: 0
OS2SubYOff: 140
OS2SupXSize: 650
OS2SupYSize: 700
OS2SupXOff: 0
OS2SupYOff: 480
OS2StrikeYSize: 49
OS2StrikeYPos: 258
OS2CapHeight: 0
OS2XHeight: 515
OS2FamilyClass: 1283
OS2Vendor: 'PfEd'
OS2CodePages: 00000001.00000000
OS2UnicodeRanges: 00000005.00000000.00000000.00000000
Lookup: 4 1 0 "'abvs' Above Base Substitutions lookup 0" { "'abvs' Above Base Substitutions lookup 0-1"  } ['abvs' ('DFLT' <'dflt' > 'deva' <'dflt' > 'grek' <'dflt' > 'latn' <'dflt' > 'taml' <'dflt' > 'tibt' <'dflt' > ) ]
Lookup: 258 0 0 "'kern' Horizontal Kerning lookup 4 Alta e baixa" { "'kern' Horizontal Kerning lookup 4 Alta e baixa-1" [45,4,2] } ['kern' ('DFLT' <'dflt' > 'deva' <'dflt' > 'grek' <'dflt' > 'latn' <'dflt' > 'taml' <'dflt' > 'tibt' <'dflt' > ) ]

StartChar: uni0B85
Encoding: 337 2949 0
GlifName: uni0B_85
Width: 1243
VWidth: 0
GlyphClass: 2
Flags: W
HStem: -239.25 197.57<284.361 544.383> 35.5996 126.5<246.062 632.137 880.975 981.07> 255.364 62.498<407.7 459.985> 436.949 85.4668<412.751 460.789>
VStem: 254.207 146.739<321.198 431.874> 468.163 145.982<320.719 414.506> 684.189 197.524<162.421 265.355> 981.773 218.338<-176.368 35.5996 162.1 484.919>
LayerCount: 2
Back
Fore
SplineSet
468.163085938 375.215820312 m 0
 468.163085938 404.178710938 458.040039062 436.94921875 435.599609375 436.94921875 c 0
 414.940429688 436.94921875 402.188476562 407.811523438 401.056640625 380.614257812 c 0
 400.983398438 378.854492188 400.946289062 375.215820312 400.946289062 375.215820312 c 2
 400.909179688 375.215820312 l 1
 400.909179688 346.6875 412.00390625 317.862304688 435.31640625 317.862304688 c 0
 458.751953125 317.862304688 468.163085938 346.296875 468.163085938 375.215820312 c 0
39 -3.5 m 0
 39 118.399414062 131.440429688 162.099609375 279.790039062 162.099609375 c 2
 683.443359375 162.099609375 l 1
 683.942382812 168.961914062 684.189453125 175.932617188 684.189453125 183 c 0
 684.189453125 276.419921875 659.194335938 364.60546875 602.767578125 414.879882812 c 1
 610.159179688 403.071289062 614.145507812 389.79296875 614.145507812 375.215820312 c 0
 614.145507812 298.099609375 534.87109375 255.364257812 435.040039062 255.364257812 c 0
 335.317382812 255.364257812 254.872070312 298.099609375 254.872070312 375.215820312 c 1
 254.20703125 375.215820312 l 1
 254.20703125 471.538085938 336.140625 522.662109375 463.790039062 522.416015625 c 0
 672.84765625 522.013671875 868.791015625 400.747070312 881.713867188 162.099609375 c 1
 981.0703125 162.099609375 l 1
 980.495117188 258.141601562 979.8984375 352.120117188 979.8984375 402.466796875 c 0
 979.8984375 489.275390625 1028.08398438 522.416015625 1090.14941406 522.416015625 c 0
 1152.99609375 522.416015625 1199.79003906 508.598632812 1199.79003906 411.453125 c 0
 1199.79003906 309.280273438 1200.11132812 71.7783203125 1200.11132812 -69.759765625 c 0
 1200.11132812 -181.197265625 1161.89746094 -220.064453125 1090.14941406 -220.064453125 c 0
 1018.40039062 -220.064453125 982.118164062 -187.864257812 982.118164062 -77.4072265625 c 0
 982.118164062 -46.6298828125 981.98046875 -7.4248046875 981.7734375 35.599609375 c 1
 872.256835938 35.599609375 l 1
 836.131835938 -132.716796875 702.395507812 -239.25 454.58984375 -239.25 c 0
 233.790039062 -239.25 39 -143.685546875 39 -3.5 c 0
632.13671875 35.599609375 m 1
 241.83984375 35.599609375 l 1
 241.83984375 -24 322.024414062 -41.6796875 405.140625 -41.6796875 c 0
 514.366210938 -41.6796875 588.047851562 -12.314453125 632.13671875 35.599609375 c 1
EndSplineSet
PickledDataWithLists: "(dp1
S'com.fontlab.hintData'
p2
(dp3
S'vhints'
p4
(lp5
(dp6
S'position'
p7
I349
sS'width'
p8
I127
sa(dp9
g7
I535
sg8
I127
sa(dp10
g7
I749
sg8
I183
sa(dp11
g7
I1026
sg8
I190
sa(dp12
g7
I1026
sg8
I8
sasS'hhints'
p13
(lp14
(dp15
g7
I-239
sg8
I184
sa(dp16
g7
I-222
sg8
I570
sa(dp17
g7
I0
sg8
I82
sa(dp18
g7
I116
sg8
I54
sa(dp19
g7
I274
sg8
I74
sa(dp20
g7
I292
sg8
I17
sass."
EndChar

StartChar: uni0B86
Encoding: 338 2950 1
GlifName: uni0B_86
Width: 1580
VWidth: 0
GlyphClass: 2
Flags: W
HStem: -545.65 208.944<927.308 1157.94> -255.851 77.0508<906.489 970.933> -238.1 197.57<284.361 544.383> -32.4707 157.671<1225.66 1374.15> 36.75 126.5<246.062 632.137 880.975 981.07> 256.515 62.498<407.7 459.985> 438.1 85.4668<412.751 460.789>
VStem: 254.872 146.037<322.348 433.025> 468.163 145.982<321.869 415.657> 684.189 197.524<163.572 266.505> 733.768 171.35<-387.701 -260.098> 982.118 217.135<-177.158 -40.6004 163.25 486.069> 1286.66 253.253<-220.84 -36.5494>
LayerCount: 2
Back
Fore
SplineSet
1161.56738281 -315.650390625 m 0xd7b8
 1243.10253906 -284.088867188 1286.6640625 -225.950195312 1286.6640625 -96 c 0
 1286.6640625 -59.2001953125 1278.8671875 -32.470703125 1248.20800781 -32.470703125 c 0xd7b8
 1222.05078125 -32.470703125 1203.40917969 -48.4462890625 1199.86425781 -83.6767578125 c 0
 1199.72167969 -87.890625 1199.51757812 -91.9892578125 1199.25292969 -95.9765625 c 2
 1199.25195312 -96.494140625 l 2
 1199.24023438 -96.494140625 1199.22949219 -96.494140625 1199.21777344 -96.494140625 c 0
 1193.08984375 -186.6171875 1155.55273438 -218.9140625 1090.14941406 -218.9140625 c 0
 1018.40039062 -218.9140625 982.118164062 -186.713867188 982.118164062 -76.2568359375 c 0
 982.118164062 -45.4794921875 981.98046875 -6.2744140625 981.7734375 36.75 c 1
 872.256835938 36.75 l 1
 836.131835938 -131.56640625 702.395507812 -238.099609375 454.58984375 -238.099609375 c 0
 233.790039062 -238.099609375 39 -142.53515625 39 -2.349609375 c 0
 39 119.549804688 131.440429688 163.25 279.790039062 163.25 c 2
 683.443359375 163.25 l 1
 683.942382812 170.112304688 684.188476562 177.083007812 684.189453125 184.150390625 c 0
 684.189453125 277.5703125 659.194335938 365.755859375 602.767578125 416.030273438 c 1
 610.159179688 404.221679688 614.145507812 390.943359375 614.145507812 376.366210938 c 0
 614.145507812 299.25 534.87109375 256.514648438 435.040039062 256.514648438 c 0
 335.317382812 256.514648438 254.872070312 299.25 254.872070312 376.366210938 c 1
 254.20703125 376.366210938 l 1
 254.20703125 472.688476562 336.140625 523.811523438 463.790039062 523.56640625 c 0
 672.84765625 523.1640625 868.791015625 401.897460938 881.713867188 163.25 c 1
 981.0703125 163.25 l 1xafd8
 980.495117188 259.291992188 979.8984375 353.270507812 979.8984375 403.6171875 c 0
 979.8984375 490.42578125 1028.08398438 523.56640625 1090.14941406 523.56640625 c 0
 1152.99609375 523.56640625 1199.79003906 509.749023438 1199.79003906 412.603515625 c 0
 1199.79003906 342.486328125 1199.94140625 208.63671875 1200.03613281 85.8056640625 c 1
 1230.68457031 111.913085938 1269.74707031 125.200195312 1313.3671875 125.200195312 c 0
 1434.93261719 125.200195312 1539.91699219 79.43359375 1539.91699219 -145.450195312 c 0
 1539.91699219 -380.049804688 1349.13183594 -545.650390625 1081.06738281 -545.650390625 c 0
 883.267578125 -545.650390625 733.767578125 -460.549804688 733.767578125 -314.5 c 0
 733.767578125 -223.650390625 809.666992188 -178.799804688 883.267578125 -178.799804688 c 0
 946.517578125 -178.799804688 983.6484375 -198.350585938 983.6484375 -224.799804688 c 0
 983.6484375 -252.400390625 963.767578125 -255.850585938 948.817382812 -255.850585938 c 0
 917.767578125 -255.850585938 905.1171875 -268.5 905.1171875 -288.049804688 c 0
 905.1171875 -316.227539062 967.026367188 -336.706054688 1039.66699219 -336.706054688 c 0
 1079.90527344 -336.706054688 1123.44433594 -330.407226562 1161.56738281 -315.650390625 c 0xd7b8
468.163085938 376.366210938 m 0
 468.163085938 405.329101562 458.040039062 438.099609375 435.599609375 438.099609375 c 0
 414.940429688 438.099609375 402.52734375 408.9453125 401.056640625 381.764648438 c 0
 400.983398438 380.004882812 400.946289062 378.206054688 400.946289062 376.366210938 c 2
 400.909179688 376.366210938 l 1
 400.909179688 347.837890625 412.00390625 319.012695312 435.31640625 319.012695312 c 0
 458.751953125 319.012695312 468.163085938 347.447265625 468.163085938 376.366210938 c 0
632.13671875 36.75 m 1xaf98
 241.83984375 36.75 l 1
 241.83984375 -22.849609375 322.024414062 -40.529296875 405.140625 -40.529296875 c 0
 514.366210938 -40.529296875 588.047851562 -11.1640625 632.13671875 36.75 c 1xaf98
EndSplineSet
PickledDataWithLists: "(dp1
S'com.fontlab.hintData'
p2
(dp3
S'vhints'
p4
(lp5
(dp6
S'position'
p7
I267
sS'width'
p8
I127
sa(dp9
g7
I453
sg8
I127
sa(dp10
g7
I667
sg8
I183
sa(dp11
g7
I708
sg8
I149
sa(dp12
g7
I944
sg8
I8
sa(dp13
g7
I944
sg8
I190
sa(dp14
g7
I1037
sg8
I76
sa(dp15
g7
I1189
sg8
I201
sasS'hhints'
p16
(lp17
(dp18
g7
I-515
sg8
I182
sa(dp19
g7
I-263
sg8
I67
sa(dp20
g7
I-244
sg8
I184
sa(dp21
g7
I-227
sg8
I570
sa(dp22
g7
I-69
sg8
I134
sa(dp23
g7
I-5
sg8
I82
sa(dp24
g7
I111
sg8
I54
sa(dp25
g7
I269
sg8
I74
sa(dp26
g7
I287
sg8
I17
sass."
EndChar

StartChar: uni0B87
Encoding: 339 2951 2
GlifName: uni0B_87
Width: 1380
VWidth: 0
GlyphClass: 2
Flags: W
HStem: -227.65 132.563<264.552 396.772 718.268 836.057> 110.7 124.798<449.672 671.093> 289.948 71.4297<540.892 588.333> 462.601 94.3994<542.027 703.894> 650 129.5<450.428 804.183>
VStem: 39 166.149<-47.4315 32.5193> 99.8496 187.75<312.563 522.235> 383.911 151.746<364.215 459.152> 592.823 151.026<363.215 428.74> 768 182.85<242.021 401.402> 878.899 176.358<-55.7076 33.5933> 1114.68 190.982<-154.438 369.963>
LayerCount: 2
Back
Fore
SplineSet
592.823242188 410.127929688 m 0xf990
 592.823242188 434.745117188 584.217773438 462.600585938 565.14453125 462.600585938 c 0
 546.412109375 462.600585938 535.657226562 434.40625 535.657226562 410.127929688 c 0
 535.657226562 385.87890625 545.087890625 361.377929688 564.904296875 361.377929688 c 0
 584.82421875 361.377929688 592.823242188 385.545898438 592.823242188 410.127929688 c 0xf990
1305.34082031 224.349609375 m 0
 1305.34082031 120.427734375 1305.66308594 83.4951171875 1305.66308594 -42.896484375 c 0
 1305.66308594 -154.333984375 1271.9765625 -193.200195312 1208.71191406 -193.200195312 c 0
 1146.25195312 -193.200195312 1114.68066406 -161 1114.68066406 -50.54296875 c 0
 1114.68066406 56.8251953125 1112.44921875 136.421875 1112.44921875 220.799804688 c 0
 1112.44921875 487.576171875 983.466796875 650 600.099609375 650 c 0
 402.561523438 650 287.599609375 573.607421875 287.599609375 425.899414062 c 0
 287.599609375 360.889648438 312.399414062 290.143554688 351.686523438 221.872070312 c 1
 419.774414062 231.13671875 491.6953125 235.498046875 562.149414062 235.498046875 c 0
 621.9296875 235.498046875 682.258789062 232.030273438 739.143554688 224.350585938 c 1
 757.749023438 266.553710938 768 307.790039062 768 345.399414062 c 0
 768 377.489257812 757.506835938 406.518554688 741.380859375 429.055664062 c 1
 743.0078125 422.922851562 743.849609375 416.498046875 743.849609375 409.799804688 c 0
 743.849609375 332.682617188 664.57421875 289.948242188 564.744140625 289.948242188 c 0
 465.020507812 289.948242188 384.576171875 332.682617188 384.576171875 409.799804688 c 1
 383.911132812 409.799804688 l 1
 383.911132812 506.12109375 465.84375 557 593.494140625 557 c 0
 814.293945312 557 950.849609375 458.099609375 950.849609375 301.700195312 c 0xfbd0
 950.849609375 266.852539062 940.701171875 223.845703125 921.452148438 177.53125 c 1
 1010.17285156 140.8359375 1055.2578125 81 1055.2578125 -6.51953125 c 0
 1055.2578125 -162.352539062 899.224609375 -227.650390625 767.14453125 -227.650390625 c 0
 697.6953125 -227.650390625 628.258789062 -212.44140625 561.8359375 -185.743164062 c 1
 498.8203125 -212.01953125 429.565429688 -227.650390625 355.149414062 -227.650390625 c 0
 127.469726562 -227.650390625 39 -114.736328125 39 -12.650390625 c 0xfdb0
 39 10.525390625 42.126953125 33.4931640625 50.3994140625 54.0498046875 c 0
 69.173828125 100.705078125 112.469726562 137.390625 170.622070312 165.198242188 c 1
 125.859375 246.702148438 99.849609375 332.385742188 99.849609375 413.25 c 0xfb90
 99.849609375 637.373046875 271.19921875 779.5 641.5 779.5 c 0
 1111.93066406 779.5 1305.34082031 557.8828125 1305.34082031 224.349609375 c 0
397.7734375 -92.78515625 m 1
 342.724609375 -51.8505859375 292.575195312 -3.708984375 249.771484375 48.607421875 c 1
 221.762695312 32.8271484375 205.149414062 14.1337890625 205.149414062 -7.7001953125 c 0xfd90
 205.149414062 -45.775390625 270.9921875 -95.0869140625 354.649414062 -95.0869140625 c 0
 368.724609375 -95.0869140625 383.130859375 -94.3515625 397.7734375 -92.78515625 c 1
672.737304688 105.7265625 m 1
 636.59765625 109.129882812 599.327148438 110.700195312 563.59375 110.700195312 c 0
 527.180664062 110.700195312 487.546875 109.109375 448.078125 105.778320312 c 1
 483.678710938 62.3369140625 522.610351562 22.103515625 562.30078125 -12.779296875 c 1
 603.654296875 23.943359375 640.931640625 64.1240234375 672.737304688 105.7265625 c 1
844.926757812 43.5634765625 m 1
 810.053710938 -4.154296875 767.240234375 -50.693359375 717.499023438 -91.3662109375 c 1
 732.063476562 -93.07421875 746.451171875 -93.8564453125 760.44921875 -93.8564453125 c 0
 825.537109375 -93.8564453125 878.899414062 -54.7197265625 878.899414062 -6.150390625 c 0xf9b0
 878.899414062 13.0107421875 866.522460938 29.5009765625 844.926757812 43.5634765625 c 1
EndSplineSet
PickledDataWithLists: "(dp1
S'com.fontlab.hintData'
p2
(dp3
S'vhints'
p4
(lp5
(dp6
S'position'
p7
I144
sS'width'
p8
I155
sa(dp9
g7
I197
sg8
I185
sa(dp10
g7
I445
sg8
I131
sa(dp11
g7
I626
sg8
I131
sa(dp12
g7
I796
sg8
I141
sa(dp13
g7
I864
sg8
I164
sa(dp14
g7
I1063
sg8
I190
sasS'hhints'
p15
(lp16
(dp17
g7
I-363
sg8
I134
sa(dp18
g7
I-34
sg8
I107
sa(dp19
g7
I116
sg8
I62
sa(dp20
g7
I266
sg8
I82
sa(dp21
g7
I292
sg8
I17
sa(dp22
g7
I398
sg8
I160
sass."
EndChar

StartChar: uni0B88
Encoding: 340 2952 3
GlifName: uni0B_88
Width: 1129
VWidth: 0
GlyphClass: 2
Flags: W
HStem: 0.509766 21G<113.154 184.904 655.954 727.705> 133.942 151.983<334.649 500.073 872.849 1038.27> 375.955 126.045<258.67 581.574 801.47 1076.16>
VStem: 41 217.987<44.6975 378.347> 306.777 217.54<159.525 258.813> 583.8 217.987<44.2054 375.955> 844.978 217.54<159.525 258.813>
LayerCount: 2
Back
Fore
SplineSet
258.987304688 150.813476562 m 0
 258.987304688 39.3759765625 220.779296875 0.509765625 149.029296875 0.509765625 c 0
 77.279296875 0.509765625 41 25.701171875 41 136.158203125 c 0
 41 259.262695312 41.49609375 335.270507812 41.49609375 432.014648438 c 4
 41.49609375 458.234375 50.27734375 473.484375 63.6396484375 484.283203125 c 4
 78.375 496.19140625 100.284179688 502 128.825195312 502 c 6
 995.428710938 502 l 6
 1068.03222656 502 1089.37792969 484.717773438 1089.37792969 433.828125 c 4
 1089.37792969 387.0078125 1055.83007812 374.834960938 983.928710938 375.151367188 c 6
 801.469726562 375.955078125 l 5
 801.499023438 286.971679688 801.787109375 288.409179688 801.787109375 150.813476562 c 0
 801.787109375 39.3759765625 763.580078125 0.509765625 691.829101562 0.509765625 c 0
 620.079101562 0.509765625 583.799804688 32.708984375 583.799804688 143.166992188 c 0
 583.799804688 267.51953125 581.649414062 282.110351562 581.57421875 376.923828125 c 5
 258.669921875 378.346679688 l 5
 258.694335938 286.932617188 258.987304688 289.630859375 258.987304688 150.813476562 c 0
306.77734375 210.025390625 m 0
 306.77734375 152.837890625 359.608398438 133.942382812 415.067382812 133.942382812 c 0
 480.889648438 133.942382812 524.317382812 149.889648438 524.317382812 210.025390625 c 0
 524.317382812 261.643554688 487.217773438 285.92578125 415.067382812 285.92578125 c 0
 343.8984375 285.92578125 306.77734375 253.16796875 306.77734375 210.025390625 c 0
844.977539062 210.025390625 m 0
 844.977539062 152.837890625 897.80859375 133.942382812 953.267578125 133.942382812 c 0
 1019.08984375 133.942382812 1062.51757812 149.889648438 1062.51757812 210.025390625 c 0
 1062.51757812 261.643554688 1025.41699219 285.92578125 953.267578125 285.92578125 c 0
 882.098632812 285.92578125 844.977539062 253.16796875 844.977539062 210.025390625 c 0
EndSplineSet
PickledDataWithLists: "(dp1
S'com.fontlab.hintData'
p2
(dp3
S'vhints'
p4
(lp5
(dp6
S'position'
p7
I55
sS'width'
p8
I190
sa(dp9
g7
I286
sg8
I189
sa(dp10
g7
I527
sg8
I190
sa(dp11
g7
I754
sg8
I189
sasS'hhints'
p12
(lp13
(dp14
g7
I0
sg8
I21
sa(dp15
g7
I99
sg8
I132
sa(dp16
g7
I300
sg8
I110
sass."
EndChar

StartChar: uni0B8E
Encoding: 343 2958 4
GlifName: uni0B_8E_
Width: 1114
VWidth: 0
GlyphClass: 2
Flags: W
HStem: -4.81738 77.8975<319.434 500.507> 236.777 73.3584<453.816 499.838> 378 124<341.081 711.575 926.625 1061.11>
VStem: 40 218.5<161.229 308.783> 301.752 140.905<128.019 230.267> 509.891 140.843<77.047 232.721> 711.575 215.05<28.2639 378>
LayerCount: 2
Back
Fore
SplineSet
509.890625 154.180664062 m 0
 509.890625 193.763671875 499.565429688 236.77734375 477.458007812 236.77734375 c 0
 454.62109375 236.77734375 442.657226562 193.260742188 442.657226562 154.223632812 c 0
 442.657226562 115.202148438 453.776367188 73.080078125 477.141601562 73.080078125 c 0
 500.506835938 73.080078125 509.890625 114.618164062 509.890625 154.180664062 c 0
926.625 106.961914062 m 2
 926.625 26.2001953125 896.725585938 0.2744140625 813.172851562 0.2744140625 c 0
 731.125 0.2744140625 711.575195312 38.4638671875 711.575195312 118.034179688 c 2
 711.575195312 378 l 1
 455.150390625 378 l 2
 330.625 378 258.5 337.008789062 258.5 227.866210938 c 0
 258.5 187.865234375 274.587890625 153.299804688 303.737304688 127.004882812 c 1
 302.4296875 135.315429688 301.751953125 144.005859375 301.751953125 153.064453125 c 0
 301.751953125 251.010742188 376.497070312 310.135742188 476.836914062 310.135742188 c 0
 577.201171875 310.135742188 650.733398438 251.010742188 650.733398438 153.064453125 c 0
 650.733398438 127.493164062 645.415039062 104.86328125 635.813476562 85.3955078125 c 0
 622.811523438 57.23828125 597.46484375 31.8291015625 559.799804688 15.2060546875 c 0
 531.489257812 2.7119140625 496.21875 -4.8173828125 454 -4.8173828125 c 0
 186.049804688 -4.8173828125 40 103.68359375 40 255 c 0
 40 421.352539062 155.625 502 477 502 c 2
 993.75 502 l 6
 1051.25 502 1074.25 484.868164062 1074.25 438.166015625 c 4
 1074.25 398.415039062 1050.12597656 378 986.625 378 c 6
 926.625 378 l 5
 926.625 106.961914062 l 2
EndSplineSet
PickledDataWithLists: "(dp1
S'com.fontlab.hintData'
p2
(dp3
S'vhints'
p4
(lp5
(dp6
S'position'
p7
I68
sS'width'
p8
I189
sa(dp9
g7
I296
sg8
I123
sa(dp10
g7
I477
sg8
I122
sa(dp11
g7
I632
sg8
I189
sasS'hhints'
p12
(lp13
(dp14
g7
I-5
sg8
I63
sa(dp15
g7
I-5
sg8
I44
sa(dp16
g7
I-1
sg8
I415
sa(dp17
g7
I200
sg8
I64
sa(dp18
g7
I312
sg8
I103
sass."
EndChar

StartChar: uni0B8F
Encoding: 344 2959 5
GlifName: uni0B_8F_
Width: 1114
VWidth: 0
GlyphClass: 2
Flags: W
HStem: -4.81738 77.8975<319.434 500.507> 236.777 73.3584<453.816 499.838> 378 124<341.081 711.575 926.625 1061.11>
VStem: 40 218.5<161.229 308.783> 301.752 140.905<128.019 230.267> 509.891 140.843<77.047 232.721> 711.575 215.05<11.151 378>
LayerCount: 2
Back
Fore
SplineSet
583.599609375 -56.2412109375 m 0
 689.400390625 1.2724609375 711.25 15.30859375 711.25 63.3876953125 c 2
 711.25 113.999023438 l 1
 711.592773438 113.999023438 l 2
 711.581054688 115.33203125 711.575195312 116.676757812 711.575195312 118.034179688 c 2
 711.575195312 378 l 1
 455.150390625 378 l 2
 330.625 378 258.5 337.008789062 258.5 227.866210938 c 0
 258.5 187.865234375 274.587890625 153.299804688 303.737304688 127.004882812 c 1
 302.4296875 135.315429688 301.751953125 144.005859375 301.751953125 153.064453125 c 0
 301.751953125 251.010742188 376.497070312 310.135742188 476.836914062 310.135742188 c 0
 577.201171875 310.135742188 650.733398438 251.010742188 650.733398438 153.064453125 c 0
 650.733398438 127.493164062 645.415039062 104.86328125 635.813476562 85.3955078125 c 0
 622.811523438 57.23828125 597.46484375 31.8291015625 559.799804688 15.2060546875 c 0
 531.489257812 2.7119140625 496.21875 -4.8173828125 454 -4.8173828125 c 0
 186.049804688 -4.8173828125 40 103.68359375 40 255 c 0
 40 421.352539062 155.625 502 477 502 c 2
 993.75 502 l 2
 1051.25 502 1074.25 484.868164062 1074.25 438.166015625 c 0
 1074.25 398.415039062 1050.12597656 378 986.625 378 c 2
 926.625 378 l 1
 926.625 106.961914062 l 2
 926.625 102.13671875 926.518554688 97.5078125 926.299804688 93.068359375 c 2
 926.299804688 88.693359375 l 2
 926.299804688 9.6611328125 924.89453125 -43.3056640625 915.950195312 -63.142578125 c 0
 889.5 -121.807617188 832 -154.013671875 660.82421875 -235.008789062 c 0
 621.064453125 -253.822265625 589.0390625 -262.614257812 562.900390625 -262.614257812 c 0
 522.814453125 -262.614257812 496.573242188 -241.181640625 477.514648438 -202.146484375 c 0
 470.243164062 -187.25390625 466.827148438 -174.099609375 466.827148438 -162.06640625 c 0
 466.827148438 -122.001953125 508.96484375 -96.8134765625 583.599609375 -56.2412109375 c 0
509.890625 154.180664062 m 0
 509.890625 193.763671875 499.565429688 236.77734375 477.458007812 236.77734375 c 0
 454.62109375 236.77734375 442.657226562 193.260742188 442.657226562 154.223632812 c 0
 442.657226562 115.202148438 453.776367188 73.080078125 477.141601562 73.080078125 c 0
 500.506835938 73.080078125 509.890625 114.618164062 509.890625 154.180664062 c 0
EndSplineSet
PickledDataWithLists: "(dp1
S'com.fontlab.hintData'
p2
(dp3
S'vhints'
p4
(lp5
(dp6
S'position'
p7
I68
sS'width'
p8
I189
sa(dp9
g7
I296
sg8
I123
sa(dp10
g7
I477
sg8
I122
sa(dp11
g7
I650
sg8
I189
sa(dp12
g7
I651
sg8
I190
sa(dp13
g7
I1009
sg8
I189
sasS'hhints'
p14
(lp15
(dp16
g7
I-5
sg8
I63
sa(dp17
g7
I-5
sg8
I44
sa(dp18
g7
I0
sg8
I415
sa(dp19
g7
I200
sg8
I64
sa(dp20
g7
I306
sg8
I109
sa(dp21
g7
I312
sg8
I103
sass."
EndChar

StartChar: uni0BBE
Encoding: 372 3006 6
GlifName: uni0B_B_E_
Width: 822
VWidth: 0
GlyphClass: 2
Flags: W
HStem: 0.0175781 21G<101.574 184.374 514.425 597.225> 376.006 125.2<255.884 454.271 668.706 770.263>
VStem: 41 215.051<28.0065 376.006> 453.851 215.051<28.0065 376.303>
AnchorPoint: "Anchor-0" 410 0 basechar 0
LayerCount: 2
Back
Fore
SplineSet
668.901367188 106.704101562 m 6
 668.901367188 25.9423828125 639.000976562 0.017578125 555.448242188 0.017578125 c 4
 473.401367188 0.017578125 453.850585938 38.2060546875 453.850585938 117.776367188 c 6
 454.271484375 376.302734375 l 5
 255.883789062 376.005859375 l 5
 256.05078125 106.704101562 l 6
 256.05078125 25.9423828125 226.150390625 0.017578125 142.59765625 0.017578125 c 4
 60.55078125 0.017578125 41 38.2060546875 41 117.776367188 c 6
 41 364.350585938 l 6
 41 371.172851562 41.3974609375 377.765625 42.1767578125 384.104492188 c 4
 44.8671875 455.561523438 82.7939453125 501.206054688 145.5234375 501.206054688 c 6
 708.5234375 502.1484375 l 6
 765.129882812 502.1484375 781.772460938 485.821289062 781.772460938 437.748046875 c 4
 781.772460938 387.6953125 752.223632812 376.797851562 702.7734375 376.797851562 c 6
 668.706054688 376.721679688 l 5
 668.901367188 106.704101562 l 6
EndSplineSet
PickledDataWithLists: "(dp1
S'com.fontlab.hintData'
p2
(dp3
S'vhints'
p4
(lp5
(dp6
S'position'
p7
I54
sS'width'
p8
I189
sa(dp9
g7
I413
sg8
I189
sasS'hhints'
p10
(lp11
(dp12
g7
I0
sg8
I415
sa(dp13
g7
I306
sg8
I109
sass."
EndChar

StartChar: period
Encoding: 14 46 8
GlifName: period
Width: 283
VWidth: 0
GlyphClass: 2
Flags: W
HStem: -6.9834 151.983<58.3317 223.756>
VStem: 30.46 217.54<18.5996 117.887>
LayerCount: 2
Back
Fore
SplineSet
30.4599609375 69.099609375 m 4
 30.4599609375 11.912109375 83.2919921875 -6.9833984375 138.75 -6.9833984375 c 4
 204.573242188 -6.9833984375 248 8.9638671875 248 69.099609375 c 4
 248 120.717773438 210.900390625 145 138.75 145 c 4
 67.5810546875 145 30.4599609375 112.241210938 30.4599609375 69.099609375 c 4
EndSplineSet
PickledDataWithLists: "(dp1
S'com.fontlab.hintData'
p2
(dp3
S'vhints'
p4
(lp5
(dp6
S'position'
p7
I19
sS'width'
p8
I189
sasS'hhints'
p9
(lp10
(dp11
g7
I-5
sg8
I132
sass."
EndChar

StartChar: a
Encoding: 65 97 9
GlifName: a
Width: 624
VWidth: 0
GlyphClass: 2
Flags: W
HStem: -6.25391 123.49<174.518 336.391> -0.0439453 476.987<398.434 542.538> 360.283 123.803<172.423 319.763>
VStem: 42.2354 216.776<141.793 333.31> 360.95 215.05<122.889 354.18>
LayerCount: 2
Back
Fore
SplineSet
224.969726562 -6.25390625 m 4x98
 124.06640625 -6.25390625 42.2353515625 80.666015625 42.2353515625 235.225585938 c 4
 42.2353515625 390.409179688 120.216796875 484.0859375 224.629882812 484.0859375 c 4xb8
 282.3828125 484.0859375 333.954101562 460.858398438 375.135742188 427.018554688 c 5
 391.74609375 458.313476562 422.127929688 476.943359375 461.942382812 476.943359375 c 4
 524.786132812 476.943359375 576 457.555664062 576 367.21484375 c 6
 576 106.643554688 l 6
 576 25.8818359375 546.100585938 -0.0439453125 462.547851562 -0.0439453125 c 4x58
 416.353515625 -0.0439453125 389.969726562 12.0615234375 375.733398438 36.8427734375 c 5
 333.94921875 8.5556640625 281.885742188 -6.25390625 224.969726562 -6.25390625 c 4x98
360.950195312 331.256835938 m 5
 350.427734375 348.9140625 335.837890625 360.283203125 316.79296875 360.283203125 c 4
 280.220703125 360.283203125 259.01171875 295.419921875 259.01171875 235.225585938 c 4
 259.01171875 179.513671875 277.342773438 117.236328125 316.049804688 117.236328125 c 4
 335.65234375 117.236328125 350.403320312 127.7578125 360.950195312 144.154296875 c 5
 360.950195312 331.256835938 l 5
EndSplineSet
PickledDataWithLists: "(dp1
S'com.fontlab.hintData'
p2
(dp3
S'vhints'
p4
(lp5
(dp6
S'position'
p7
I44
sS'width'
p8
I189
sa(dp9
g7
I327
sg8
I189
sa(dp10
g7
I339
sg8
I82
sasS'hhints'
p11
(lp12
(dp13
g7
I-5
sg8
I107
sa(dp14
g7
I0
sg8
I415
sa(dp15
g7
I313
sg8
I108
sass."
EndChar

StartChar: b
Encoding: 66 98 10
GlifName: b
Width: 629
VWidth: 0
GlyphClass: 2
Flags: W
HStem: -6.51953 125.58<278.142 353.203> 360.957 123.803<312.837 461.755>
VStem: 50.2266 217.999<132.302 351.86 435.95 646.324> 375.279 216.774<140.663 330.751>
LayerCount: 2
Back
Fore
SplineSet
267.169921875 435.950195312 m 5
 306.947265625 465.483398438 355.591796875 484.759765625 409.65625 484.759765625 c 4
 513.854492188 484.759765625 592.053710938 387.237304688 592.053710938 251.538085938 c 4
 592.053710938 84.4482421875 471.396484375 -6.51953125 308.46484375 -6.51953125 c 4
 154.649414062 -6.51953125 50.9716796875 60.8876953125 50.2265625 187.139648438 c 6
 48 564.473632812 l 6
 48 651.28125 95.412109375 684.422851562 158.255859375 684.422851562 c 4
 232.106445312 684.422851562 268.037109375 640.236328125 267.75390625 573.459960938 c 6
 267.169921875 435.950195312 l 5
268.225585938 153.265625 m 5
 278.913085938 132.842773438 295.236328125 119.060546875 318.239257812 119.060546875 c 4
 356.9453125 119.060546875 375.279296875 178.302734375 375.279296875 231.30078125 c 4
 375.279296875 293.708984375 353.7734375 360.95703125 317.495117188 360.95703125 c 4
 295.033203125 360.95703125 278.767578125 345.87890625 268.064453125 323.900390625 c 5
 268.064453125 290.209960938 268.225585938 215.237304688 268.225585938 153.265625 c 5
EndSplineSet
PickledDataWithLists: "(dp1
S'com.fontlab.hintData'
p2
(dp3
S'vhints'
p4
(lp5
(dp6
S'position'
p7
I44
sS'width'
p8
I190
sa(dp9
g7
I327
sg8
I188
sasS'hhints'
p10
(lp11
(dp12
g7
I-4
sg8
I107
sa(dp13
g7
I313
sg8
I108
sass."
EndChar

StartChar: c
Encoding: 67 99 11
GlifName: c
Width: 599
VWidth: 0
GlyphClass: 2
Flags: W
HStem: -7.02344 153.51<294.446 431.983> 396.662 87.8047<284.701 341.218>
VStem: 40.5166 210.687<189.972 344.448> 342.48 208.584<282.385 396.228>
LayerCount: 2
Back
SplineSet
320.930664062 -6.25390625 m 260
 163.615234375 -6.25390625 39.943359375 78.5966796875 39.943359375 229.302734375 c 260
 39.943359375 388.249023438 158.1875 484.0859375 320.930664062 484.0859375 c 260
 484.151367188 484.0859375 547.041992188 419.482421875 547.041992188 328.8359375 c 260
 547.041992188 275.618164062 504.172851562 217.8125 398.83984375 216.99609375 c 262
 109.560546875 214.696289062 l 261
 146.8203125 277.8359375 l 261
 146.8203125 277.8359375 317.2734375 280.90234375 328.349609375 280.90234375 c 260
 338.91796875 280.90234375 345.004882812 286.745117188 349.583007812 298.739257812 c 260
 353.083984375 307.370117188 355.123046875 319.73046875 355.123046875 334.97265625 c 260
 355.123046875 372.715820312 346.811523438 398.03125 317.28515625 398.03125 c 260
 286.194335938 398.03125 252.180664062 337.345703125 252.180664062 257.99609375 c 260
 252.180664062 194.380859375 288.163085938 146.90625 359.739257812 146.90625 c 260
 391.049804688 146.90625 422.913085938 151.724609375 448.446289062 157.9921875 c 260
 486.5625 167.348632812 501.625976562 184.544921875 522.350585938 184.544921875 c 260
 546.329101562 184.544921875 558 167.904296875 558 150.35546875 c 260
 558 105.736328125 474.123046875 -6.25390625 320.930664062 -6.25390625 c 260
EndSplineSet
Fore
SplineSet
342.48046875 374 m 4
 342.48046875 388.31640625 334.21484375 396.662109375 316.307617188 396.662109375 c 4
 276.522460938 396.662109375 251.203125 325.506835938 251.203125 257.686523438 c 4
 251.203125 192.483398438 294.522460938 146.486328125 363.763671875 146.486328125 c 4
 395.07421875 146.486328125 427.244140625 150.166992188 452.46875 157.573242188 c 4
 484.333984375 166.9296875 501.674804688 184.125976562 519 184.125976562 c 4
 548.442382812 184.125976562 558.024414062 166.673828125 558.024414062 152.486328125 c 4
 558.024414062 105.900390625 475.5625 -7.0234375 324.953125 -7.0234375 c 4
 165.708007812 -7.0234375 40.5166015625 82.7978515625 40.5166015625 242.333007812 c 4
 40.5166015625 393.387695312 160.212890625 484.466796875 324.953125 484.466796875 c 4
 488.174804688 484.466796875 551.064453125 425.126953125 551.064453125 341.8671875 c 4
 551.064453125 296.249023438 518.153320312 218.01953125 405.163085938 218.01953125 c 4
 364.807617188 218.01953125 326.549804688 223.35546875 326.549804688 288 c 4
 326.549804688 325.03125 342.48046875 351.62890625 342.48046875 374 c 4
EndSplineSet
PickledDataWithLists: "(dp1
S'com.fontlab.hintData'
p2
(dp3
S'vhints'
p4
(lp5
(dp6
S'position'
p7
I41
sS'width'
p8
I192
sa(dp9
g7
I303
sg8
I182
sasS'hhints'
p10
(lp11
(dp12
g7
I-5
sg8
I141
sa(dp13
g7
I322
sg8
I100
sass."
EndChar

StartChar: d
Encoding: 68 100 12
GlifName: d
Width: 625
VWidth: 0
GlyphClass: 2
Flags: W
HStem: -7.41016 123.49<173.886 335.644> -0.158203 684.812<398.421 539.567> 359.128 123.803<171.792 319.018>
VStem: 41.6025 216.776<140.637 332.154> 361.003 217.997<125.34 352.716 437.409 647.157>
LayerCount: 2
Back
Fore
SplineSet
579 150.145507812 m 2x58
 579 38.7080078125 540.791015625 -0.158203125 469.041015625 -0.158203125 c 0x58
 428.107141378 -0.158203125 398.717885914 10.3225434375 381.023945203 39.8365315314 c 1
 338.284554529 8.84966298105 283.974923452 -7.41015625 224.337890625 -7.41015625 c 0
 123.43359375 -7.41015625 41.6025390625 79.5107421875 41.6025390625 234.069335938 c 0
 41.6025390625 389.25390625 119.5859375 482.930664062 223.999023438 482.930664062 c 0xb8
 274.917914306 482.930664062 321.031892795 464.875133285 359.456469363 437.409095738 c 1
 358.78515625 564.705078125 l 2
 358.78515625 651.512695312 406.975585938 684.654296875 469.041015625 684.654296875 c 0
 531.885742188 684.654296875 578.6796875 670.8359375 578.6796875 573.69140625 c 2
 579 150.145507812 l 2x58
361.003377524 144.080706466 m 1
 360.019754548 330.597624753 l 1
 349.520282623 347.97179189 335.025961858 359.127929688 316.161132812 359.127929688 c 0
 279.588867188 359.127929688 258.37890625 294.263671875 258.37890625 234.069335938 c 0
 258.37890625 178.357421875 276.711914062 116.080078125 315.41796875 116.080078125 c 0xb8
 335.448325102 116.080078125 350.413894465 127.065794041 361.003377524 144.080706466 c 1
EndSplineSet
PickledDataWithLists: "(dp1
S'com.fontlab.hintData'
p2
(dp3
S'vhints'
p4
(lp5
(dp6
S'position'
p7
I37
sS'width'
p8
I189
sa(dp9
g7
I319
sg8
I190
sa(dp10
g7
I333
sg8
I82
sasS'hhints'
p11
(lp12
(dp13
g7
I-5
sg8
I107
sa(dp14
g7
I1
sg8
I595
sa(dp15
g7
I313
sg8
I108
sass."
EndChar

StartChar: e
Encoding: 69 101 13
GlifName: e
Width: 595
VWidth: 0
GlyphClass: 2
Flags: W
HStem: -6.25391 153.16<291.062 429.454> 215.878 63.8311<258.243 350.676> 398.031 86.0547<287.872 346.245>
VStem: 355.12 191.919<281.629 394.683>
LayerCount: 2
Back
Fore
SplineSet
320.927734375 -6.25390625 m 0
 163.612304688 -6.25390625 39.9404296875 78.5966796875 39.9404296875 229.302734375 c 0
 39.9404296875 388.249023438 158.184570312 484.0859375 320.927734375 484.0859375 c 0
 484.1484375 484.0859375 547.0390625 419.482421875 547.0390625 328.8359375 c 0
 547.0390625 275.618164062 504.169921875 217.8125 398.836914062 216.99609375 c 2
 258.243164062 215.877929688 l 1
 271.245117188 174.534179688 305.133789062 146.90625 359.736328125 146.90625 c 0
 391.046875 146.90625 422.91015625 151.724609375 448.443359375 157.9921875 c 0
 486.559570312 167.348632812 501.623046875 184.544921875 522.34765625 184.544921875 c 0
 546.326171875 184.544921875 557.997070312 167.904296875 557.997070312 150.35546875 c 0
 557.997070312 105.736328125 474.120117188 -6.25390625 320.927734375 -6.25390625 c 0
253.037109375 279.708984375 m 1
 290.056640625 280.346679688 323.6328125 280.90234375 328.346679688 280.90234375 c 0
 338.915039062 280.90234375 345.001953125 286.745117188 349.580078125 298.739257812 c 0
 353.081054688 307.370117188 355.120117188 319.73046875 355.120117188 334.97265625 c 0
 355.120117188 372.715820312 346.80859375 398.03125 317.282226562 398.03125 c 0
 289.094726562 398.03125 258.505859375 348.153320312 253.037109375 279.708984375 c 1
EndSplineSet
PickledDataWithLists: "(dp1
S'com.fontlab.hintData'
p2
(dp3
S'vhints'
p4
(lp5
(dp6
S'position'
p7
I300
sS'width'
p8
I176
sasS'hhints'
p9
(lp10
(dp11
g7
I-5
sg8
I133
sa(dp12
g7
I184
sg8
I64
sa(dp13
g7
I346
sg8
I75
sass."
EndChar

StartChar: f
Encoding: 70 102 14
GlifName: f
Width: 470
VWidth: 0
GlyphClass: 2
Flags: W
HStem: 324.826 121.473<41.2963 100.954 318.056 423.404> 543.316 140.347<334.206 386.621>
VStem: 100.152 217.988<41.1067 150.224 446.622 522.415>
LayerCount: 2
Back
Fore
SplineSet
338.64453125 526.06640625 m 4
 351.001953125 536.364257812 366.965820312 543.31640625 408.2265625 543.31640625 c 4
 440.359375 543.31640625 456 561.634765625 456 580.954101562 c 4
 456 619.262695312 403.484375 683.663085938 280.494140625 683.663085938 c 4
 135.08203125 683.663085938 102.944335938 608.879882812 101.83203125 446.298828125 c 5
 42.6806640625 443.115234375 27.0224609375 416.784179688 27.0224609375 383.484375 c 4
 27.0224609375 347.561523438 46.0380859375 326.4765625 100.954101562 324.826171875 c 5
 100.15234375 142.577148438 l 4
 100.15234375 32.12109375 136.43359375 -0.0791015625 208.18359375 -0.0791015625 c 4
 279.932617188 -0.0791015625 318.140625 32.12109375 318.140625 150.223632812 c 4
 318.055664062 324.721679688 l 5
 393.099609375 324.721679688 437.201171875 330.892578125 437.201171875 379.603515625 c 4
 437.201171875 440.03515625 398.71484375 446.622070312 317.958984375 446.622070312 c 5
 317.958984375 488 321.641601562 511.8984375 338.64453125 526.06640625 c 4
EndSplineSet
PickledDataWithLists: "(dp1
S'com.fontlab.hintData'
p2
(dp3
S'vhints'
p4
(lp5
(dp6
S'position'
p7
I86
sS'width'
p8
I190
sasS'hhints'
p9
(lp10
(dp11
g7
I283
sg8
I106
sa(dp12
g7
I473
sg8
I122
sass."
EndChar

StartChar: g
Encoding: 71 103 15
GlifName: g
Width: 624
VWidth: 0
GlyphClass: 2
Flags: W
HStem: -226.494 140.05<229.858 350.493> -5.86523 123.49<177.314 339.407> 360.673 123.802<175.221 322.272>
VStem: 45.0312 216.776<142.182 333.699> 363.557 214.443<-70.2053 28.0721 123.212 354.799>
LayerCount: 2
Back
Fore
SplineSet
227.766601562 -5.865234375 m 0
 126.862304688 -5.865234375 45.03125 81.0556640625 45.03125 235.614257812 c 0
 45.03125 390.797851562 123.014648438 484.474609375 227.427734375 484.474609375 c 0
 284.832988187 484.474609375 336.131118223 461.525880997 377.188895006 428.01607227 c 1
 393.346219961 458.514246833 422.864704313 476.62109375 463.212890625 476.62109375 c 0
 526.057617188 476.62109375 577.296875 457.227539062 578 366.89453125 c 6
 578 -1.9189453125 l 6
 578 -130 494.581054688 -226.494140625 341.126953125 -226.494140625 c 0
 187.934570312 -226.494140625 111.616210938 -120.39453125 111.616210938 -76.0673828125 c 0
 111.616210938 -56.7470703125 128.421875 -40.98046875 161.291992188 -40.98046875 c 0
 178.6171875 -40.98046875 190.270507812 -59.7158203125 221.600585938 -70.7275390625 c 0
 246.404296875 -79.4462890625 267.19921875 -86.4443359375 298.508789062 -86.4443359375 c 0
 348.59375 -86.4443359375 364 -58 364 -23.9140625 c 2
 364 28.0721319309 l 1
 324.969868571 5.75593548026 278.183958325 -5.865234375 227.766601562 -5.865234375 c 0
363.556814562 144.24817271 m 1
 363.123686602 332.675913757 l 1
 352.650795698 349.744702044 338.260915727 360.672851562 319.58984375 360.672851562 c 0
 283.017578125 360.672851562 261.807617188 295.80859375 261.807617188 235.614257812 c 0
 261.807617188 179.90234375 280.140625 117.625 318.846679688 117.625 c 0
 338.331319095 117.625 353.023387239 128.020102907 363.556814562 144.24817271 c 1
EndSplineSet
PickledDataWithLists: "(dp1
S'com.fontlab.hintData'
p2
(dp3
S'vhints'
p4
(lp5
(dp6
S'position'
p7
I39
sS'width'
p8
I189
sa(dp9
g7
I323
sg8
I187
sa(dp10
g7
I335
sg8
I82
sasS'hhints'
p11
(lp12
(dp13
g7
I-196
sg8
I122
sa(dp14
g7
I-4
sg8
I107
sa(dp15
g7
I314
sg8
I108
sass."
EndChar

StartChar: h
Encoding: 72 104 16
GlifName: h
Width: 624
VWidth: 0
GlyphClass: 2
Flags: W
HStem: 0.698242 689.729<86.6364 227.782> 324.759 153.821<313.694 494.419>
VStem: 49.2266 217.988<44.7075 250.379 250.385 312.693 433.883 652.661> 362.817 218.163<44.1113 317.812>
LayerCount: 2
Back
Fore
SplineSet
361.612304688 268.418945312 m 2x70
 361.612304688 313.227539062 342.700195312 324.758789062 317.861328125 324.758789062 c 0x70
 287.670898438 324.758789062 267.75390625 293.873046875 267.75390625 250.384765625 c 1
 267.549804688 250.384765625 267.345703125 250.37890625 267.141601562 250.37890625 c 2
 267.21484375 152.080078125 l 2
 267.21484375 39.8427734375 229.005859375 0.6982421875 157.256835938 0.6982421875 c 0
 85.5068359375 0.6982421875 49.2265625 33.12890625 49.2265625 144.37890625 c 2
 47 569.6171875 l 2
 47 657.047851562 95.19140625 690.426757812 157.256835938 690.426757812 c 0xb0
 220.100585938 690.426757812 266.895507812 676.510742188 266.895507812 578.66796875 c 2
 267.00390625 433.8828125 l 1
 321.244140625 466.685546875 378.65234375 478.580078125 447.41796875 478.580078125 c 0
 541.419921875 478.580078125 580.98046875 409.581054688 580.98046875 238.459960938 c 0
 580.98046875 37.9013671875 561.829101562 0.181640625 467.818359375 0.181640625 c 0
 390.850585938 0.181640625 362.817382812 29.62109375 362.817382812 82.7646484375 c 2
 361.612304688 268.418945312 l 2x70
EndSplineSet
PickledDataWithLists: "(dp1
S'com.fontlab.hintData'
p2
(dp3
S'vhints'
p4
(lp5
(dp6
S'position'
p7
I49
sS'width'
p8
I190
sa(dp9
g7
I162
sg8
I76
sa(dp10
g7
I321
sg8
I190
sasS'hhints'
p11
(lp12
(dp13
g7
I0
sg8
I21
sa(dp14
g7
I1
sg8
I600
sa(dp15
g7
I282
sg8
I134
sass."
EndChar

StartChar: i
Encoding: 73 105 17
GlifName: i
Width: 305
VWidth: 0
GlyphClass: 2
Flags: W
HStem: 0.0175781 476.986<83.1436 226.792> 540.016 151.983<71.3317 236.756>
VStem: 45.2041 215.051<28.0065 437.382 564.172 666.267>
LayerCount: 2
Back
Fore
SplineSet
43.4599609375 616.098632812 m 0
 43.4599609375 558.911132812 96.2919921875 540.015625 151.75 540.015625 c 0
 217.573242188 540.015625 261 555.962890625 261 616.098632812 c 0
 261 667.716796875 223.900390625 691.999023438 151.75 691.999023438 c 0
 80.5810546875 691.999023438 43.4599609375 659.240234375 43.4599609375 616.098632812 c 0
260.254882812 106.704101562 m 2
 260.254882812 25.9423828125 230.354492188 0.017578125 146.801757812 0.017578125 c 0
 64.7548828125 0.017578125 45.2041015625 38.2060546875 45.2041015625 117.776367188 c 2
 45.2041015625 364.350585938 l 2
 45.2041015625 431.982421875 84.3046875 477.00390625 146.196289062 477.00390625 c 0
 209.040039062 477.00390625 260.254882812 457.616210938 260.254882812 367.276367188 c 2
 260.254882812 106.704101562 l 2
EndSplineSet
PickledDataWithLists: "(dp1
S'com.fontlab.hintData'
p2
(dp3
S'vhints'
p4
(lp5
(dp6
S'position'
p7
I42
sS'width'
p8
I199
sa(dp9
g7
I49
sg8
I189
sasS'hhints'
p10
(lp11
(dp12
g7
I0
sg8
I415
sa(dp13
g7
I451
sg8
I132
sass."
EndChar

StartChar: j
Encoding: 74 106 18
GlifName: j
Width: 340
VWidth: 0
GlyphClass: 2
Flags: W
HStem: -196.472 150.028<-34.115 48.5458> 518.594 151.983<94.8204 266.252>
VStem: 65.96 229.04<544.177 642.835> 70.7666 218.024<-19.6219 48.46 356.742 434.495>
LayerCount: 2
Back
SplineSet
65.6337890625 594.676757812 m 256
 65.6337890625 537.489257812 120.765625 518.59375 176.223632812 518.59375 c 256
 242.046875 518.59375 294.673828125 534.541015625 294.673828125 594.676757812 c 256
 294.673828125 646.293945312 248.374023438 670.577148438 176.223632812 670.577148438 c 256
 105.055664062 670.577148438 65.6337890625 637.818359375 65.6337890625 594.676757812 c 256
286.624023438 372.299804688 m 258
 286.624023438 429.33984375 244.587890625 476.690429688 181.744140625 476.690429688 c 256
 119.184570312 476.690429688 71.4873046875 443.549804688 71.4873046875 356.7421875 c 256
 71.4873046875 226.138671875 70.4404296875 159.708007812 70.4404296875 48.4599609375 c 256
 70.4404296875 -29.740234375 29.041015625 -47.0234375 -19.6240234375 -47.0234375 c 256
 -52.833984375 -47.0234375 -62.900390625 -47.0234375 -80.2265625 -47.0234375 c 260
 -105.495117188 -47.0234375 -129.1796875 -61.97265625 -129.1796875 -91.873046875 c 260
 -129.1796875 -136.493164062 -45.302734375 -196.471679688 107.890625 -196.471679688 c 256
 241.053710938 -196.471679688 288.46484375 -104.0859375 288.46484375 46.6201171875 c 258
 286.624023438 372.299804688 l 258
EndSplineSet
Fore
SplineSet
286.950195312 372.299804688 m 2xd0
 286.950195312 429.33984375 244.9140625 476.690429688 182.0703125 476.690429688 c 0
 119.510742188 476.690429688 71.8134765625 443.549804688 71.8134765625 356.7421875 c 0
 71.8134765625 226.138671875 70.7666015625 159.708007812 70.7666015625 48.4599609375 c 0
 70.7666015625 -40.37109375 25.0791015625 -46.443359375 -37.349609375 -46.443359375 c 0
 -105.200195312 -46.443359375 -128.853515625 -59.6728515625 -128.853515625 -96.2109375 c 0
 -128.853515625 -137.873046875 -44.9765625 -196.471679688 108.216796875 -196.471679688 c 0
 241.379882812 -196.471679688 288.791015625 -104.0859375 288.791015625 46.6201171875 c 2
 286.950195312 372.299804688 l 2xd0
65.9599609375 594.676757812 m 0xe0
 65.9599609375 537.489257812 121.091796875 518.59375 176.549804688 518.59375 c 0
 242.373046875 518.59375 295 534.541015625 295 594.676757812 c 0
 295 646.293945312 248.700195312 670.577148438 176.549804688 670.577148438 c 0
 105.381835938 670.577148438 65.9599609375 637.818359375 65.9599609375 594.676757812 c 0xe0
EndSplineSet
PickledDataWithLists: "(dp1
S'com.fontlab.hintData'
p2
(dp3
S'vhints'
p4
(lp5
(dp6
S'position'
p7
I51
sS'width'
p8
I199
sa(dp9
g7
I55
sg8
I190
sasS'hhints'
p10
(lp11
(dp12
g7
I-171
sg8
I130
sa(dp13
g7
I451
sg8
I132
sass."
EndChar

StartChar: k
Encoding: 75 107 19
GlifName: k
Width: 583
VWidth: 0
GlyphClass: 2
Flags: W
HStem: 0.30957 673.465<84.1242 213.23> 0.310547 235.521<430.181 502.345> 141.991 185.84<265.892 333.515>
VStem: 45.6758 213.962<49.2887 141.991 351.911 632.715> 336.795 213.205<24.6671 140.224 331.357 445.516>
LayerCount: 2
Back
Fore
SplineSet
302.21484375 141.991210938 m 2x38
 265.891601562 141.991210938 l 1x38
 265.891601562 80.3515625 227.68359375 0.3095703125 155.932617188 0.3095703125 c 0
 84.1826171875 0.3095703125 47.904296875 32.509765625 47.904296875 142.967773438 c 0
 47.904296875 253.426757812 45.67578125 467.016601562 45.67578125 553.823242188 c 0
 45.67578125 643.391601562 88.7734375 670.20703125 155.932617188 673.774414062 c 0x98
 242.4140625 673.774414062 259.637695312 618.551757812 259.637695312 488.831054688 c 0
 259.637695312 441.098632812 256.5859375 388.717773438 251.05078125 350.090820312 c 1
 255.62109375 335.505859375 267.18359375 327.831054688 296.4375 327.831054688 c 0x38
 327.053710938 327.831054688 336.794921875 337.952148438 336.794921875 381.458007812 c 0
 336.794921875 440.991210938 363.465820312 470.430664062 444.796875 470.430664062 c 0
 530.287109375 470.430664062 550 442.831054688 550 366.471679688 c 0
 550 276.310546875 483.454101562 235.831054688 430.094726562 235.831054688 c 1
 483.454101562 235.831054688 550 204.551757812 550 121.751953125 c 0
 550 20.2626953125 530.287109375 0.310546875 444.796875 0.310546875 c 0x58
 363.465820312 0.310546875 336.794921875 29.751953125 336.794921875 89.2841796875 c 0
 336.794921875 134.630859375 327.311523438 141.991210938 302.21484375 141.991210938 c 2x38
EndSplineSet
PickledDataWithLists: "(dp1
S'com.fontlab.hintData'
p2
(dp3
S'vhints'
p4
(lp5
(dp6
S'position'
p7
I43
sS'width'
p8
I186
sa(dp9
g7
I296
sg8
I185
sasS'hhints'
p10
(lp11
(dp12
g7
I0
sg8
I586
sa(dp13
g7
I0
sg8
I205
sa(dp14
g7
I123
sg8
I162
sass."
EndChar

StartChar: l
Encoding: 76 108 20
GlifName: l
Width: 312
VWidth: 0
GlyphClass: 2
Flags: W
HStem: 0.368164 684.813<85.4226 226.567>
VStem: 48.0127 217.987<44.0642 647.684>
LayerCount: 2
Back
Fore
SplineSet
266 150.672851562 m 6
 266 39.2353515625 227.791992188 0.3681640625 156.04296875 0.3681640625 c 4
 84.29296875 0.3681640625 48.0126953125 32.568359375 48.0126953125 143.025390625 c 6
 45.787109375 565.232421875 l 6
 45.787109375 652.040039062 93.9765625 685.181640625 156.04296875 685.181640625 c 4
 218.88671875 685.181640625 265.681640625 671.36328125 265.681640625 574.21875 c 6
 266 150.672851562 l 6
EndSplineSet
PickledDataWithLists: "(dp1
S'com.fontlab.hintData'
p2
(dp3
S'vhints'
p4
(lp5
(dp6
S'position'
p7
I46
sS'width'
p8
I190
sasS'hhints'
p9
(lp10
(dp11
g7
I0
sg8
I595
sass."
EndChar

StartChar: m
Encoding: 77 109 21
GlifName: m
Width: 905
VWidth: 0
GlyphClass: 2
Flags: W
HStem: 0.479492 473.799<87.2119 237.338 375.697 488.63 662.967 796.562> 320.458 153.82<305.704 406.283 584.714 724.94>
VStem: 53 215.05<28.0065 246.083 246.085 312.77> 354.13 199.763<41.248 313.144> 639.33 218.162<44.4094 311.317>
LayerCount: 2
Back
Fore
SplineSet
638.125 264.118164062 m 0xb8
 638.125 308.92578125 619.211914062 320.458007812 594.374023438 320.458007812 c 0x78
 571.555664062 320.458007812 555.922851562 293.979492188 553.731445312 255.536132812 c 0
 553.838867188 250.0625 553.892578125 244.470703125 553.892578125 238.759765625 c 0
 553.892578125 38.19921875 536.298828125 0.4794921875 449.931640625 0.4794921875 c 0xb8
 379.70703125 0.4794921875 354.129882812 29.9189453125 354.129882812 83.0634765625 c 0
 354.129882812 148.984375 352.92578125 218.379882812 352.92578125 264.118164062 c 0
 352.92578125 308.92578125 334.01171875 320.458007812 309.173828125 320.458007812 c 0x78
 284.529296875 320.458007812 268.266601562 289.572265625 268.266601562 246.084960938 c 1
 268.194335938 246.084960938 268.122070312 246.083007812 268.049804688 246.083007812 c 2
 268.049804688 106.704101562 l 2
 268.049804688 25.9423828125 238.150390625 0.017578125 154.59765625 0.017578125 c 0
 72.5498046875 0.017578125 53 38.2060546875 53 117.776367188 c 2
 53 364.350585938 l 2
 53 431.982421875 92.099609375 477.00390625 153.9921875 477.00390625 c 0
 200.444335938 477.00390625 240.54296875 466.411132812 258.299804688 424.399414062 c 1
 308.6484375 461.140625 352.479492188 474.278320312 418.033203125 474.278320312 c 0
 465.818359375 474.278320312 501.921875 455.083007812 524.856445312 409.8046875 c 1
 528.141601562 412.73828125 531.596679688 415.541015625 535.229492188 418.19921875 c 0
 591.913085938 459.673828125 651.275390625 474.278320312 723.932617188 474.278320312 c 0
 817.932617188 474.278320312 857.4921875 409.879882812 857.4921875 238.759765625 c 0
 857.4921875 38.19921875 838.341796875 0.4794921875 744.33203125 0.4794921875 c 0
 667.362304688 0.4794921875 639.330078125 29.9189453125 639.330078125 83.0634765625 c 0
 639.330078125 148.984375 638.125 218.379882812 638.125 264.118164062 c 0xb8
EndSplineSet
PickledDataWithLists: "(dp1
S'com.fontlab.hintData'
p2
(dp3
S'vhints'
p4
(lp5
(dp6
S'position'
p7
I38
sS'width'
p8
I189
sa(dp9
g7
I148
sg8
I76
sa(dp10
g7
I299
sg8
I174
sa(dp11
g7
I396
sg8
I76
sa(dp12
g7
I547
sg8
I190
sasS'hhints'
p13
(lp14
(dp15
g7
I0
sg8
I415
sa(dp16
g7
I0
sg8
I21
sa(dp17
g7
I279
sg8
I134
sass."
EndChar

StartChar: n
Encoding: 78 110 22
GlifName: n
Width: 616
VWidth: 0
GlyphClass: 2
Flags: W
HStem: -0.105469 21G<104.696 187.496 420.355 505.845> 324.939 153.82<305.304 485.44>
VStem: 44.1221 215.05<27.884 313.87> 353.837 218.163<44.2903 317.992>
LayerCount: 2
Back
Fore
SplineSet
352.631835938 268.598632812 m 2
 352.631835938 313.40625 333.719726562 324.939453125 308.881835938 324.939453125 c 0
 281.170202153 324.939453125 262.114253644 298.915625216 259.171875 261.011894722 c 2
 259.171875 106.58203125 l 2
 259.171875 25.8203125 229.272460938 -0.10546875 145.719726562 -0.10546875 c 0
 63.671875 -0.10546875 44.1220703125 38.083984375 44.1220703125 117.654296875 c 2
 44.1220703125 364.227539062 l 2
 44.1220703125 431.860351562 83.2216796875 476.881835938 145.114257812 476.881835938 c 0
 190.288091286 476.881835938 229.452608687 466.863449734 247.905212473 427.674924472 c 1
 305.142202753 465.33396603 365.381346185 478.759765625 438.439453125 478.759765625 c 0
 532.440429688 478.759765625 572 409.760742188 572 238.640625 c 0
 572 38.080078125 552.849609375 0.3603515625 458.83984375 0.3603515625 c 0
 381.870117188 0.3603515625 353.836914062 29.7998046875 353.836914062 82.9443359375 c 2
 352.631835938 268.598632812 l 2
EndSplineSet
PickledDataWithLists: "(dp1
S'com.fontlab.hintData'
p2
(dp3
S'vhints'
p4
(lp5
(dp6
S'position'
p7
I42
sS'width'
p8
I189
sa(dp9
g7
I153
sg8
I76
sa(dp10
g7
I312
sg8
I190
sasS'hhints'
p11
(lp12
(dp13
g7
I0
sg8
I415
sa(dp14
g7
I0
sg8
I21
sa(dp15
g7
I283
sg8
I134
sass."
EndChar

StartChar: o
Encoding: 79 111 23
GlifName: o
Width: 631
VWidth: 0
GlyphClass: 2
Flags: W
HStem: -6.86816 115.439<287.262 346.776> 368.408 115.292<287.184 346.967>
VStem: 39.0596 223.658<132.753 340.613> 369.438 223.559<132.629 340.722>
LayerCount: 2
Back
Fore
SplineSet
369.4375 237.302734375 m 0
 369.4375 300.1328125 353.047851562 368.408203125 317.95703125 368.408203125 c 0
 281.708984375 368.408203125 262.717773438 299.334960938 262.717773438 237.369140625 c 0
 262.717773438 175.432617188 280.368164062 108.571289062 317.456054688 108.571289062 c 0
 354.54296875 108.571289062 369.4375 174.502929688 369.4375 237.302734375 c 0
316.965820312 -6.8681640625 m 0
 163.145507812 -6.8681640625 39.0595703125 81.119140625 39.0595703125 235.53125 c 0
 39.0595703125 391.000976562 157.702148438 483.700195312 316.971679688 483.700195312 c 0
 476.279296875 483.700195312 592.99609375 391.000976562 592.99609375 235.53125 c 0
 592.99609375 81.119140625 470.823242188 -6.8681640625 316.965820312 -6.8681640625 c 0
EndSplineSet
PickledDataWithLists: "(dp1
S'com.fontlab.hintData'
p2
(dp3
S'vhints'
p4
(lp5
(dp6
S'position'
p7
I35
sS'width'
p8
I194
sa(dp9
g7
I323
sg8
I194
sasS'hhints'
p10
(lp11
(dp12
g7
I-5
sg8
I99
sa(dp13
g7
I320
sg8
I101
sass."
EndChar

StartChar: p
Encoding: 80 112 24
GlifName: p
Width: 621
VWidth: 0
GlyphClass: 2
Flags: W
HStem: -207.91 684.812<86.631 227.776> -6.0918 123.49<291.553 453.718> 360.445 123.803<308.496 455.812>
VStem: 49.2207 217.989<-164.214 27.8809 123.13 354.203> 369.224 216.776<141.956 333.472>
LayerCount: 2
Back
Fore
SplineSet
267.209960938 -57.6064453125 m 2x78
 267.209960938 -169.043945312 229 -207.91015625 157.250976562 -207.91015625 c 0
 85.501953125 -207.91015625 49.220703125 -175.709960938 49.220703125 -65.2529296875 c 2
 46.9951171875 356.953125 l 2
 46.9951171875 443.760742188 95.185546875 476.90234375 157.250976562 476.90234375 c 0x98
 202.356445312 476.90234375 239.193359375 469.784179688 256.395507812 429.848632812 c 1
 297.01953125 462.236328125 347.3828125 484.248046875 403.60546875 484.248046875 c 0
 508.017578125 484.248046875 586 390.571289062 586 235.387695312 c 0
 586 80.828125 504.170898438 -6.091796875 403.265625 -6.091796875 c 0
 352.821289062 -6.091796875 306.188476562 5.5419921875 267.145507812 27.880859375 c 1
 267.209960938 -57.6064453125 l 2x78
267.056640625 144.673828125 m 1
 277.618164062 128.072265625 292.44140625 117.3984375 312.185546875 117.3984375 c 0
 350.892578125 117.3984375 369.223632812 179.67578125 369.223632812 235.387695312 c 0
 369.223632812 295.58203125 348.015625 360.4453125 311.442382812 360.4453125 c 0x78
 292.173828125 360.4453125 277.465820312 348.807617188 266.916015625 330.79296875 c 1
 267.056640625 144.673828125 l 1
EndSplineSet
PickledDataWithLists: "(dp1
S'com.fontlab.hintData'
p2
(dp3
S'vhints'
p4
(lp5
(dp6
S'position'
p7
I47
sS'width'
p8
I190
sa(dp9
g7
I141
sg8
I82
sa(dp10
g7
I330
sg8
I189
sasS'hhints'
p11
(lp12
(dp13
g7
I-181
sg8
I595
sa(dp14
g7
I-5
sg8
I107
sa(dp15
g7
I313
sg8
I108
sass."
EndChar

StartChar: q
Encoding: 81 113 25
GlifName: q
Width: 626
VWidth: 0
GlyphClass: 2
Flags: W
HStem: -5.75195 123.802<171.298 320.277> 359.946 123.28<287.39 354.084>
VStem: 41 222.524<144.528 333.145> 364.989 217.838<-167.317 43.0576 126.577 350.999>
LayerCount: 2
Back
Fore
SplineSet
365.883789062 43.0576171875 m 1
 326.106445312 13.5234375 277.461914062 -5.751953125 223.397460938 -5.751953125 c 0
 119.19921875 -5.751953125 41 91.76953125 41 227.469726562 c 0
 41 393.069335938 167.0390625 483.2265625 337.239257812 483.2265625 c 0
 483.51953125 483.2265625 582.827148438 416.625976562 582.827148438 291.8671875 c 2
 585.053710938 -85.4658203125 l 2
 585.053710938 -172.274414062 537.641601562 -205.415039062 474.797851562 -205.415039062 c 0
 400.947265625 -205.415039062 365.299804688 -161.23046875 365.299804688 -94.453125 c 2
 365.883789062 43.0576171875 l 1
364.828125 325.7421875 m 1
 354.6328125 346.165039062 339.059570312 359.946289062 317.114257812 359.946289062 c 0
 280.75 359.946289062 263.524414062 300.705078125 263.524414062 247.70703125 c 0
 263.524414062 185.297851562 283.74609375 118.049804688 317.858398438 118.049804688 c 0
 339.275390625 118.049804688 354.783203125 133.127929688 364.989257812 155.107421875 c 1
 364.989257812 188.797851562 364.828125 263.770507812 364.828125 325.7421875 c 1
EndSplineSet
PickledDataWithLists: "(dp1
S'com.fontlab.hintData'
p2
(dp3
S'vhints'
p4
(lp5
(dp6
S'position'
p7
I34
sS'width'
p8
I188
sa(dp9
g7
I315
sg8
I190
sasS'hhints'
p10
(lp11
(dp12
g7
I-4
sg8
I108
sa(dp13
g7
I314
sg8
I107
sass."
EndChar

StartChar: r
Encoding: 82 114 26
GlifName: r
Width: 472
VWidth: 0
GlyphClass: 2
Flags: W
HStem: 0.0175781 476.986<83.7858 228.077> 322.762 154.232<282.166 394.541>
VStem: 45.8467 215.05<28.0065 321.623>
LayerCount: 2
Back
Fore
SplineSet
260.896484375 106.704101562 m 2x60
 260.896484375 25.9423828125 230.99609375 0.017578125 147.443359375 0.017578125 c 0
 65.396484375 0.017578125 45.8466796875 38.2060546875 45.8466796875 117.776367188 c 2
 45.8466796875 364.350585938 l 2
 45.8466796875 431.982421875 84.9462890625 477.00390625 146.838867188 477.00390625 c 0xa0
 190.071289062 477.00390625 227.799804688 467.829101562 247.137695312 432.690429688 c 1
 278.255859375 456.491210938 319.33984375 476.994140625 359.350585938 476.994140625 c 0
 429.731445312 476.994140625 464 444.958007812 464 377.108398438 c 0
 464 324.208007812 430.650390625 287.408203125 381.200195312 287.408203125 c 0
 329.450195312 287.408203125 331.75 322.76171875 294.032226562 322.76171875 c 0
 278.405273438 322.76171875 267.862304688 317.260742188 260.896484375 307.634765625 c 1
 260.896484375 106.704101562 l 2x60
EndSplineSet
PickledDataWithLists: "(dp1
S'com.fontlab.hintData'
p2
(dp3
S'vhints'
p4
(lp5
(dp6
S'position'
p7
I37
sS'width'
p8
I189
sa(dp9
g7
I128
sg8
I76
sasS'hhints'
p10
(lp11
(dp12
g7
I0
sg8
I415
sa(dp13
g7
I281
sg8
I134
sass."
EndChar

StartChar: s
Encoding: 83 115 27
GlifName: s
Width: 562
VWidth: 0
GlyphClass: 2
Flags: W
HStem: -7.10938 115.324<160.702 299.506> 393.339 90.8311<258.878 371.384>
VStem: 42.3809 213.87<299.861 390.419>
LayerCount: 2
Back
Fore
SplineSet
280.8359375 484.169921875 m 4
 412.349636476 484.169921875 498.046875 418.665039062 498.046875 363.305664062 c 4
 498.046875 347.060737276 482.172227676 328.201516235 458.999998801 328.201516235 c 7
 413.145505782 328.201516235 380.796451148 393.338867188 295.028320312 393.338867188 c 4
 272.892578125 393.338867188 256.250976562 387.16796875 256.250976562 368.555664062 c 4
 256.250976562 331.548828125 334.696289062 328.534179688 393.360351562 300.291015625 c 5
 496.630859375 260.493164062 524 218.75390625 524 149.405273438 c 4
 524 80.2236328125 449.076171875 -7.109375 265.297851562 -7.109375 c 4
 123.816324091 -7.109375 40.6303733429 56.178848684 40.6303733429 112.000002248 c 7
 40.6303733429 137.890129815 59.0981978471 153.214284745 89.0000023814 153.214284745 c 7
 140.316170663 153.214284745 171.841725082 108.21484375 245.578125 108.21484375 c 4
 275.716796875 108.21484375 301.177734375 114.353515625 301.177734375 135.260742188 c 4
 301.177734375 167.342773438 189.581054688 165.004882812 120.581054688 207.819335938 c 5
 58.8232421875 235.5 42.380859375 274.94140625 42.380859375 324.780273438 c 4
 42.380859375 418.215820312 139.92578125 484.169921875 280.8359375 484.169921875 c 4
EndSplineSet
PickledDataWithLists: "(dp1
S'com.fontlab.hintData'
p2
(dp3
S'vhints'
p4
(lp5
(dp6
S'position'
p7
I39
sS'width'
p8
I186
sasS'hhints'
p9
(lp10
(dp11
g7
I-5
sg8
I104
sa(dp12
g7
I340
sg8
I81
sass."
EndChar

StartChar: t
Encoding: 84 116 28
GlifName: t
Width: 501
VWidth: 0
GlyphClass: 2
Flags: W
HStem: 0.148438 167.698<210.649 360.963> 331.259 121.9<314.825 424.902>
VStem: 95.54 219.404<173.708 331.259 453.159 587.087>
LayerCount: 2
Back
Fore
SplineSet
95.5400390625 213.80078125 m 4
 95.5400390625 254.468960782 95.7253567992 292.930415385 95.959487889 331.631490952 c 5
 45.679762301 334.618591623 28.0673828125 355.447807139 28.0673828125 390.020507812 c 0
 28.0673828125 422.126951083 42.6218779341 447.754810763 96.678831764 452.404815766 c 1
 96.8146252961 481.720324491 96.90625 512.378391823 96.90625 545.229492188 c 0
 96.90625 597.775390625 193.963867188 643.533203125 260.6640625 643.533203125 c 0
 310.063476562 643.533203125 314.483398438 610.893554688 314.483398438 568.229492188 c 0
 314.483398438 527.745344868 314.527688093 489.700506612 314.588809813 453.159179688 c 1
 342.16015625 453.159179688 l 2
 414.765625 452.767578125 438.247070312 437.05859375 438.247070312 386.140625 c 0
 438.247070312 342.348632812 404.682617188 331.258789062 332.796875 331.258789062 c 6
 314.825394474 331.258789062 l 5
 314.893400894 294.456406868 314.944335938 258.141571564 314.944335938 221.16015625 c 4
 314.944335938 177.919921875 321.364257812 167.846679688 343.444335938 167.846679688 c 4
 376.654296875 167.846679688 375.64453125 223 405.2265625 223 c 4
 437.359375 223 453 204.681640625 453 185.361328125 c 4
 453 116.280273438 400.484375 0.1484375 277.494140625 0.1484375 c 4
 143.803710938 0.1484375 95.5400390625 63.0927734375 95.5400390625 213.80078125 c 4
EndSplineSet
PickledDataWithLists: "(dp1
S'com.fontlab.hintData'
p2
(dp3
S'hhints'
p4
(lp5
(dp6
S'position'
p7
I-5
sS'width'
p8
I146
sa(dp9
g7
I283
sg8
I106
sass."
EndChar

StartChar: u
Encoding: 85 117 29
GlifName: u
Width: 625
VWidth: 0
GlyphClass: 2
Flags: W
HStem: 0.510742 153.82<132.262 313.086>
VStem: 45.7031 219.368<160.218 433.83> 358.95 215.05<166.397 228.705 228.705 436.259>
LayerCount: 2
Back
Fore
SplineSet
265.071289062 210.670898438 m 0
 265.071289062 165.86328125 283.983398438 154.331054688 308.821289062 154.331054688 c 0
 339.01171875 154.331054688 358.928710938 185.217773438 358.928710938 228.705078125 c 1
 358.950195312 228.705287773 l 1
 358.950195312 363.227539062 l 2
 358.950195312 430.860351562 398.049804688 475.881835938 459.942382812 475.881835938 c 0
 522.786132812 475.881835938 574 456.493164062 574 366.153320312 c 2
 574 105.58203125 l 2
 574 24.8203125 544.099609375 -1.10546875 460.547851562 -1.10546875 c 0
 406.255511829 -1.10546875 379.329034219 15.6164507514 367.324435219 49.9849796772 c 1
 310.824504788 13.5529548915 251.26864922 0.5107421875 179.262695312 0.5107421875 c 0
 85.26171875 0.5107421875 45.703125 68.359375 45.703125 239.479492188 c 0
 45.703125 440.040039062 64.8525390625 477.759765625 158.862304688 477.759765625 c 0
 235.833007812 477.759765625 263.865234375 447.169921875 263.865234375 394.02734375 c 0
 263.865234375 328.104492188 265.071289062 256.41015625 265.071289062 210.670898438 c 0
EndSplineSet
PickledDataWithLists: "(dp1
S'com.fontlab.hintData'
p2
(dp3
S'vhints'
p4
(lp5
(dp6
S'position'
p7
I45
sS'width'
p8
I191
sa(dp9
g7
I317
sg8
I189
sa(dp10
g7
I318
sg8
I76
sasS'hhints'
p11
(lp12
(dp13
g7
I-1
sg8
I415
sa(dp14
g7
I0
sg8
I134
sass."
EndChar

StartChar: v
Encoding: 86 118 30
GlifName: v
Width: 617
VWidth: 0
GlyphClass: 2
Flags: W
HStem: 0.0195312 150.142<269.779 346.2>
VStem: 44.3516 219.368<154.816 436.737> 351.632 219.368<154.816 436.737>
LayerCount: 2
Back
Fore
SplineSet
306.958984375 150.161132812 m 0
 349.194335938 150.161132812 351.631835938 175.3125 351.631835938 227.12890625 c 0
 351.631835938 263.927734375 352.837890625 332.50390625 352.837890625 388.06640625 c 0
 352.837890625 447.598632812 380.87109375 477.040039062 466.360351562 477.040039062 c 0
 551.850585938 477.040039062 571 438.155273438 571 246.579101562 c 0
 571 60.7392578125 419.618164062 0.01953125 308.595703125 0.01953125 c 0
 197.6328125 0.01953125 44.3515625 60.7392578125 44.3515625 246.579101562 c 0
 44.3515625 438.155273438 63.501953125 477.040039062 148.991210938 477.040039062 c 0
 234.481445312 477.040039062 262.513671875 447.598632812 262.513671875 388.06640625 c 0
 262.513671875 332.524414062 263.719726562 263.975585938 263.719726562 228.048828125 c 0
 263.719726562 177.629882812 263.72265625 150.161132812 306.958984375 150.161132812 c 0
EndSplineSet
PickledDataWithLists: "(dp1
S'com.fontlab.hintData'
p2
(dp3
S'vhints'
p4
(lp5
(dp6
S'position'
p7
I39
sS'width'
p8
I191
sa(dp9
g7
I306
sg8
I191
sasS'hhints'
p10
(lp11
(dp12
g7
I0
sg8
I131
sass."
EndChar

StartChar: w
Encoding: 87 119 31
GlifName: w
Width: 890
VWidth: 0
GlyphClass: 2
Flags: W
HStem: -0.0800781 150.142<266.07 346.246 544.914 626.28>
VStem: 43.1201 219.368<154.716 436.638> 338.44 214.768<175.113 445.365> 629.16 219.368<154.716 436.638>
LayerCount: 2
Back
Fore
SplineSet
590.0078125 150.061523438 m 0
 627.0234375 150.061523438 629.16015625 169.200195312 629.16015625 208.629882812 c 0
 629.16015625 249.63671875 630.365234375 326.051757812 630.365234375 387.966796875 c 0
 630.365234375 447.499023438 658.399414062 476.940429688 743.888671875 476.940429688 c 0
 829.37890625 476.940429688 848.528320312 438.055664062 848.528320312 246.479492188 c 0
 848.528320312 60.6396484375 702.454101562 -0.080078125 595.32421875 -0.080078125 c 0
 548.442382812 -0.080078125 494.4453125 14.9150390625 446.422851562 51.234375 c 1
 398.771484375 14.9150390625 345.07421875 -0.080078125 298.1640625 -0.080078125 c 0
 191.064453125 -0.080078125 43.1201171875 60.6396484375 43.1201171875 246.479492188 c 0
 43.1201171875 438.055664062 62.2705078125 476.940429688 147.759765625 476.940429688 c 0
 233.249023438 476.940429688 261.283203125 447.499023438 261.283203125 387.966796875 c 0
 261.283203125 326.038085938 262.48828125 249.607421875 262.48828125 209.549804688 c 0
 262.48828125 171.041015625 262.491210938 150.061523438 300.208007812 150.061523438 c 0
 330.012695312 150.061523438 342.057617188 157.713867188 346.885742188 173.309570312 c 1
 341.44140625 211.7109375 338.440429688 254.385742188 338.440429688 301.6796875 c 0
 338.440429688 451.623046875 356.645507812 476.794921875 449.504882812 476.794921875 c 0
 534.916015625 476.526367188 553.208007812 451.62109375 553.208007812 301.6796875 c 0
 553.208007812 253.948242188 550.157226562 210.947265625 544.622070312 172.3203125 c 1
 549.19140625 157.735351562 560.754882812 150.061523438 590.0078125 150.061523438 c 0
EndSplineSet
PickledDataWithLists: "(dp1
S'com.fontlab.hintData'
p2
(dp3
S'vhints'
p4
(lp5
(dp6
S'position'
p7
I43
sS'width'
p8
I191
sa(dp9
g7
I299
sg8
I187
sa(dp10
g7
I552
sg8
I191
sasS'hhints'
p11
(lp12
(dp13
g7
I0
sg8
I131
sass."
EndChar

StartChar: x
Encoding: 88 120 32
GlifName: x
Width: 602
VWidth: 0
GlyphClass: 2
Flags: W
HStem: 0.0322266 21G<130.535 186.475 416.851 472.785>
LayerCount: 2
Back
Fore
SplineSet
302.119140625 98.87890625 m 1
 263.278320312 57.955078125 214.075195312 0.0322265625 158.875 0.0322265625 c 0
 102.194335938 0.0322265625 35.3193359375 56.5458984375 35.3193359375 113.39453125 c 0
 35.3193359375 145.57421875 121.52734375 207.829101562 152.720703125 233.6015625 c 1
 110.803710938 271.997070312 42.4501953125 313.327148438 42.4501953125 384.079101562 c 0
 42.4501953125 429.250976562 96.40234375 476.049804688 143.419921875 476.049804688 c 0
 209.630859375 476.049804688 255.390625 398.521484375 302.401367188 352.684570312 c 1
 347.665039062 398.647460938 394.147460938 476.049804688 459.899414062 476.049804688 c 0
 508.421875 476.049804688 561.4453125 426.165039062 561.4453125 382.928710938 c 0
 561.4453125 323.489257812 489.143554688 268.909179688 450.598632812 233.6015625 c 1
 481.793945312 207.829101562 568 145.57421875 568 113.39453125 c 0
 568 56.5458984375 501.125 0.0322265625 444.444335938 0.0322265625 c 0
 389.256835938 0.0322265625 340.758789062 58.16796875 302.119140625 98.87890625 c 1
EndSplineSet
PickledDataWithLists: "(dp1
S'com.fontlab.hintData'
p2
(dp3
S'hhints'
p4
(lp5
(dp6
S'position'
p7
I0
sS'width'
p8
I21
sass."
EndChar

StartChar: y
Encoding: 89 121 33
GlifName: y
Width: 607
VWidth: 0
GlyphClass: 2
Flags: W
HStem: -229.196 140.051<176.513 294.755>
VStem: 45 215.918<155.713 431.33> 348.83 214.768<156.007 438.983>
LayerCount: 2
Back
SplineSet
165.751953125 -8.166015625 m 262
 164.860351562 379.715820312 l 262
 164.704101562 447.348632812 201.399414062 492.369140625 265.021484375 492.369140625 c 260
 327.866210938 492.369140625 377.228515625 472.975585938 377.931640625 382.642578125 c 262
 380.799804688 13.8291015625 l 262
 381.787109375 -113.151367188 296.389648438 -210.74609375 142.935546875 -210.74609375 c 260
 -10.2568359375 -210.74609375 -86.5751953125 -104.646484375 -86.5751953125 -60.3193359375 c 260
 -86.5751953125 -40.9990234375 -69.76953125 -25.232421875 -36.8994140625 -25.232421875 c 260
 -19.57421875 -25.232421875 -7.9208984375 -43.9677734375 23.4091796875 -54.9794921875 c 260
 48.212890625 -63.6982421875 69.0078125 -70.6962890625 100.317382812 -70.6962890625 c 260
 150.40234375 -70.6962890625 165.837890625 -45.7646484375 165.751953125 -8.166015625 c 262
EndSplineSet
Fore
SplineSet
563.59765625 282.395507812 m 0
 563.59765625 180.131835938 562.581054688 107.732421875 554.3984375 43.1953125 c 0
 533.166992188 -124.25 438.634765625 -229.196289062 287.783203125 -229.196289062 c 0
 134.590820312 -229.196289062 58.271484375 -123.095703125 58.271484375 -78.7685546875 c 0
 58.271484375 -60.1664424528 69.6689541279 -36.9608001348 94 -36.9608001348 c 3
 125.745212627 -36.9608001348 129.522968391 -59.8151290887 168.255859375 -73.4296875 c 0
 193.059570312 -82.1484375 213.854492188 -89.1455078125 245.165039062 -89.1455078125 c 0
 295.249023438 -89.1455078125 310.598632812 -53.669921875 310.598632812 -0.166015625 c 1
 182.541015625 0.7451171875 45 61.927734375 45 214.884765625 c 0
 45 432.944335938 63.5185546875 477.203125 146.189453125 477.203125 c 0
 231.6796875 477.203125 259.711914062 447.763671875 259.711914062 388.231445312 c 0
 259.711914062 332.291015625 260.91796875 263.248046875 260.91796875 227.063476562 c 0
 260.91796875 176.64453125 260.919921875 149.174804688 304.157226562 149.174804688 c 0
 346.391601562 149.174804688 348.830078125 174.328125 348.830078125 226.143554688 c 0
 348.830078125 263.206054688 350.036132812 332.270507812 350.036132812 388.231445312 c 0
 350.036132812 447.763671875 378.068359375 477.203125 463.557617188 477.203125 c 0
 553.869140625 477.203125 563.59765625 411.948242188 563.59765625 282.395507812 c 0
EndSplineSet
PickledDataWithLists: "(dp1
S'com.fontlab.hintData'
p2
(dp3
S'vhints'
p4
(lp5
(dp6
S'position'
p7
I38
sS'width'
p8
I191
sa(dp9
g7
I305
sg8
I191
sasS'hhints'
p10
(lp11
(dp12
g7
I-176
sg8
I122
sass."
EndChar

StartChar: z
Encoding: 90 122 34
GlifName: z
Width: 557
VWidth: 0
GlyphClass: 2
Flags: W
HStem: 0 125.536<319.192 513.268> 350.98 125.536<69.9335 229.156>
LayerCount: 2
Back
Fore
SplineSet
452.400390625 125.536132812 m 0
 509.900390625 125.536132812 525.190429688 103.041015625 525.190429688 54.0771484375 c 0
 525.190429688 7.2587890625 493.51171875 0 422.9609375 0 c 0
 350.280273438 0 188.360351562 0 127.640625 0 c 0
 86.240234375 0 36.560546875 31.2802734375 36.560546875 84.640625 c 0
 36.560546875 140.745117188 45.1171875 160.080078125 98.1943359375 213.158203125 c 4
 143.811523438 261.180664062 188.032226562 307.6640625 229.15625 350.897460938 c 5
 204.596679688 350.98046875 179.87890625 350.98046875 155.995117188 350.98046875 c 4
 85.4453125 350.98046875 53.7666015625 368.358398438 53.7666015625 415.176757812 c 4
 53.7666015625 464.140625 69.42578125 476.516601562 142.032226562 476.516601562 c 4
 219.475585938 476.516601562 368.573242188 476.560546875 445.9609375 476.560546875 c 4
 506.680664062 476.560546875 526 425.638671875 526 399.741210938 c 4
 526 336.897460938 510.360351562 327.5546875 470.291015625 287.485351562 c 4
 419.408203125 234.341796875 374.689453125 182.352539062 319.192382812 125.279296875 c 1
 361.301757812 125.415039062 418.092773438 125.536132812 452.400390625 125.536132812 c 0
EndSplineSet
PickledDataWithLists: "(dp1
S'com.fontlab.hintData'
p2
(dp3
S'hhints'
p4
(lp5
(dp6
S'position'
p7
I0
sS'width'
p8
I109
sa(dp9
g7
I305
sg8
I109
sass."
EndChar

StartChar: dotlessi
Encoding: 237 305 35
GlifName: dotlessi
Width: 283
VWidth: 0
GlyphClass: 2
Flags: W
HStem: 0.0175781 476.986<71.8888 215.537>
VStem: 33.9492 215.051<28.0065 437.382>
LayerCount: 2
Back
Fore
SplineSet
249 106.704101562 m 2
 249 25.9423828125 219.099609375 0.017578125 135.546875 0.017578125 c 0
 53.5 0.017578125 33.94921875 38.2060546875 33.94921875 117.776367188 c 2
 33.94921875 364.350585938 l 2
 33.94921875 431.982421875 73.0498046875 477.00390625 134.94140625 477.00390625 c 0
 197.78515625 477.00390625 249 457.616210938 249 367.276367188 c 2
 249 106.704101562 l 2
EndSplineSet
PickledDataWithLists: "(dp1
S'com.fontlab.hintData'
p2
(dp3
S'vhints'
p4
(lp5
(dp6
S'position'
p7
I102
sS'width'
p8
I189
sasS'hhints'
p9
(lp10
(dp11
g7
I0
sg8
I415
sass."
EndChar

StartChar: quotesingle
Encoding: 7 39 36
GlifName: quotesingle
Width: 330
VWidth: 0
GlyphClass: 2
Flags: W
HStem: 521.333 151.983<80.682 161.444>
VStem: 52.8105 230.189<547.516 640.39>
LayerCount: 2
Back
Fore
SplineSet
52.810546875 597.416015625 m 4
 52.810546875 540.228515625 105.641601562 521.333007812 161.100585938 521.333007812 c 4
 161.21484375 521.333007812 161.329101562 521.333007812 161.444335938 521.333007812 c 5
 138.201171875 485.185546875 115.70703125 469.95703125 57.818359375 441.639648438 c 4
 45.55078125 435.638671875 43.232421875 422.921875 43.232421875 413.233398438 c 4
 43.232421875 391.81640625 58.4130859375 376.342773438 81.75 376.342773438 c 4
 142.287109375 376.342773438 283 443.776367188 283 577.682617188 c 4
 283 651.640625 224.443359375 673.31640625 161.100585938 673.31640625 c 4
 89.931640625 673.31640625 52.810546875 640.557617188 52.810546875 597.416015625 c 4
EndSplineSet
EndChar

StartChar: Tamil.socks
Encoding: 506 -1 37
GlifName: _notdef
Width: 264
VWidth: 0
Flags: W
LayerCount: 2
Back
Fore
SplineSet
-105.650390625 -36.2919921875 m 0
 0.150390625 21.2080078125 22 35.2412109375 22 83.30859375 c 2
 22 133.908203125 l 1
 237.049804688 133.908203125 l 1
 237.049804688 108.608398438 l 2
 237.049804688 29.5947265625 235.64453125 -23.3583984375 226.700195312 -43.19140625 c 0
 200.25 -101.841796875 142.75 -134.041015625 -28.42578125 -215.016601562 c 0
 -68.185546875 -233.825195312 -100.2109375 -242.615234375 -126.349609375 -242.615234375 c 0
 -166.435546875 -242.615234375 -192.676757812 -221.1875 -211.735351562 -182.162109375 c 0
 -219.006835938 -167.272460938 -222.422851562 -154.122070312 -222.422851562 -142.091796875 c 0
 -222.422851562 -102.036132812 -180.28515625 -76.853515625 -105.650390625 -36.2919921875 c 0
EndSplineSet
PickledDataWithLists: "(dp1
S'com.fontlab.hintData'
p2
(dp3
S'vhints'
p4
(lp5
(dp6
S'position'
p7
I48
sS'width'
p8
I189
sa(dp9
g7
I276
sg8
I123
sa(dp10
g7
I457
sg8
I122
sasS'hhints'
p11
(lp12
(dp13
g7
I-5
sg8
I63
sa(dp14
g7
I-5
sg8
I44
sa(dp15
g7
I200
sg8
I64
sa(dp16
g7
I312
sg8
I103
sass."
EndChar

StartChar: uni0082
Encoding: -1 130 38
GlifName: uni0082
Width: 560
VWidth: 0
GlyphClass: 2
Flags: W
HStem: 502.966 167.697<372.905 523.219>
VStem: 259.408 217.988<28.1067 137.225 449.651 497.104>
LayerCount: 2
Back
Fore
SplineSet
477.200195312 449.651367188 m 2
 477.200195312 492.891601562 483.620117188 502.965820312 505.700195312 502.965820312 c 0
 538.91015625 502.965820312 537.900390625 447.811523438 567.483398438 447.811523438 c 0
 599.615234375 447.811523438 615.256835938 466.130859375 615.256835938 485.450195312 c 0
 615.256835938 554.53125 562.740234375 670.663085938 439.75 670.663085938 c 0
 306.060546875 670.663085938 262.228515625 607.715820312 261.24609375 457.01171875 c 2
 259.408203125 129.577148438 l 2
 259.408203125 19.12109375 295.689453125 -13.0791015625 367.439453125 -13.0791015625 c 0
 439.188476562 -13.0791015625 477.396484375 19.12109375 477.396484375 137.224609375 c 2
 477.200195312 449.651367188 l 2
EndSplineSet
PickledDataWithLists: "(dp1
S'com.fontlab.hintData'
p2
(dp3
S'vhints'
p4
(lp5
(dp6
S'position'
p7
I235
sS'width'
p8
I190
sasS'hhints'
p9
(lp10
(dp11
g7
I449
sg8
I146
sass."
EndChar

StartChar: uni0083
Encoding: -1 131 39
GlifName: uni0083
Width: 698
VWidth: 0
GlyphClass: 2
Flags: W
VStem: 242.449 86.4805<271.694 341.691>
LayerCount: 2
Back
Fore
SplineSet
581.201171875 380.713867188 m 0
 581.201171875 306.544921875 545.662109375 247.709960938 461.20703125 247.709960938 c 0
 376.751953125 247.709960938 391.176757812 343.389648438 361.38671875 343.389648438 c 0
 331.59765625 343.389648438 328.081054688 321.04296875 328.9296875 271.694335938 c 1
 242.44921875 271.169921875 l 1
 242.44921875 330.590820312 267.170898438 396.068359375 312.899414062 435.967773438 c 0
 358.626953125 475.868164062 393.7734375 493.284179688 469.51953125 493.284179688 c 0
 545.265625 493.284179688 581.201171875 444.709960938 581.201171875 380.713867188 c 0
EndSplineSet
PickledDataWithLists: "(dp1
S'com.fontlab.hintData'
p2
(dp3
S'vhints'
p4
(lp5
(dp6
S'position'
p7
I217
sS'width'
p8
I75
sass."
EndChar

StartChar: uni0084
Encoding: -1 132 40
GlifName: uni0084
Width: 778
VWidth: 0
GlyphClass: 2
Flags: W
HStem: 0.405273 153.82<207.546 387.518>
VStem: 120.986 219.369<160.113 433.724> 434.212 87.668<166.033 228.6>
LayerCount: 2
Back
Fore
SplineSet
340.35546875 210.565429688 m 0
 340.35546875 165.7578125 359.266601562 154.225585938 384.10546875 154.225585938 c 0
 414.295898438 154.225585938 434.211914062 185.112304688 434.211914062 228.599609375 c 1
 521.879882812 229.455078125 l 1
 521.879882812 171.174804688 506.861328125 98.2958984375 452.450195312 56.484375 c 0
 393.001953125 15.0107421875 330.747070312 0.4052734375 254.546875 0.4052734375 c 0
 160.545898438 0.4052734375 120.986328125 68.25390625 120.986328125 239.374023438 c 0
 120.986328125 439.934570312 140.13671875 477.654296875 234.146484375 477.654296875 c 0
 311.116210938 477.654296875 339.1484375 447.064453125 339.1484375 393.921875 c 0
 339.1484375 327.999023438 340.35546875 256.3046875 340.35546875 210.565429688 c 0
EndSplineSet
PickledDataWithLists: "(dp1
S'com.fontlab.hintData'
p2
(dp3
S'vhints'
p4
(lp5
(dp6
S'position'
p7
I99
sS'width'
p8
I191
sa(dp9
g7
I372
sg8
I76
sasS'hhints'
p10
(lp11
(dp12
g7
I0
sg8
I134
sass."
EndChar

StartChar: uni0085
Encoding: -1 133 41
GlifName: uni0085
Width: 456
VWidth: 0
GlyphClass: 2
Flags: W
HStem: -13.6318 684.812<173.369 314.515>
VStem: 135.96 217.988<30.0644 633.684>
LayerCount: 2
Back
Fore
SplineSet
353.948242188 136.672851562 m 2
 353.948242188 25.2353515625 315.739257812 -13.6318359375 243.989257812 -13.6318359375 c 0
 172.240234375 -13.6318359375 135.959960938 18.568359375 135.959960938 129.026367188 c 2
 133.733398438 551.232421875 l 2
 133.733398438 638.040039062 181.923828125 671.180664062 243.989257812 671.180664062 c 0
 306.833007812 671.180664062 353.627929688 657.36328125 353.627929688 560.21875 c 2
 353.948242188 136.672851562 l 2
EndSplineSet
PickledDataWithLists: "(dp1
S'com.fontlab.hintData'
p2
(dp3
S'vhints'
p4
(lp5
(dp6
S'position'
p7
I102
sS'width'
p8
I190
sasS'hhints'
p9
(lp10
(dp11
g7
I0
sg8
I595
sass."
EndChar

StartChar: uni0087
Encoding: -1 135 42
GlifName: uni0087
Width: 778
VWidth: 0
GlyphClass: 2
Flags: W
HStem: -0.669922 21G<479.925 565.414> 323.908 153.821<365.039 545.01>
VStem: 230.676 87.6689<249.535 312.101> 413.407 218.163<43.26 316.962>
LayerCount: 2
Back
Fore
SplineSet
412.202148438 267.567382812 m 2
 412.202148438 312.375976562 393.290039062 323.908203125 368.451171875 323.908203125 c 0
 338.26171875 323.908203125 318.344726562 293.021484375 318.344726562 249.53515625 c 1
 230.67578125 248.678710938 l 1
 230.67578125 306.959960938 245.696289062 379.83984375 300.10546875 421.649414062 c 0
 359.5546875 463.124023438 421.809570312 477.729492188 498.009765625 477.729492188 c 0
 592.010742188 477.729492188 631.5703125 408.73046875 631.5703125 237.610351562 c 0
 631.5703125 37.0498046875 612.418945312 -0.669921875 518.409179688 -0.669921875 c 0
 441.440429688 -0.669921875 413.407226562 28.76953125 413.407226562 81.9130859375 c 2
 412.202148438 267.567382812 l 2
EndSplineSet
PickledDataWithLists: "(dp1
S'com.fontlab.hintData'
p2
(dp3
S'vhints'
p4
(lp5
(dp6
S'position'
p7
I209
sS'width'
p8
I76
sa(dp9
g7
I368
sg8
I190
sasS'hhints'
p10
(lp11
(dp12
g7
I0
sg8
I21
sa(dp13
g7
I282
sg8
I134
sass."
EndChar

StartChar: uni0089
Encoding: -1 137 43
GlifName: uni0089
Width: 804
VWidth: 0
GlyphClass: 2
Flags: W
HStem: -6.25391 123.49<249.041 409.871> 360.284 123.802<246.948 418.949>
VStem: 116.758 216.777<141.793 333.31> 456.814 93.8389<146.98 326.308>
LayerCount: 2
Back
Fore
SplineSet
299.493164062 -6.25390625 m 0
 198.588867188 -6.25390625 116.7578125 80.666015625 116.7578125 235.225585938 c 0
 116.7578125 390.409179688 194.741210938 484.0859375 299.154296875 484.0859375 c 0
 444.471679688 484.0859375 550.653320312 337.028320312 550.653320312 243.861328125 c 0
 550.653320312 83.7734375 439.822265625 -6.25390625 299.493164062 -6.25390625 c 0
456.814453125 235.225585938 m 0
 456.814453125 295.63671875 436.728515625 360.284179688 391.31640625 360.284179688 c 0
 354.744140625 360.284179688 333.53515625 295.420898438 333.53515625 235.225585938 c 0
 333.53515625 179.512695312 351.8671875 117.236328125 390.573242188 117.236328125 c 0
 437.729492188 117.236328125 456.814453125 178.123046875 456.814453125 235.225585938 c 0
EndSplineSet
PickledDataWithLists: "(dp1
S'com.fontlab.hintData'
p2
(dp3
S'vhints'
p4
(lp5
(dp6
S'position'
p7
I97
sS'width'
p8
I189
sa(dp9
g7
I393
sg8
I82
sasS'hhints'
p10
(lp11
(dp12
g7
I-5
sg8
I107
sa(dp13
g7
I313
sg8
I108
sass."
EndChar

StartChar: uni008A
Encoding: -1 138 44
GlifName: uni008A_
Width: 804
VWidth: 0
GlyphClass: 2
Flags: W
HStem: -6.25391 123.49<257.541 418.371> 360.284 123.802<248.463 420.464>
VStem: 116.758 93.8398<146.98 326.308> 333.877 216.776<141.793 333.31>
LayerCount: 2
Back
Fore
SplineSet
367.918945312 -6.25390625 m 0
 227.58984375 -6.25390625 116.7578125 83.7734375 116.7578125 243.861328125 c 0
 116.7578125 337.028320312 222.940429688 484.0859375 368.2578125 484.0859375 c 0
 472.670898438 484.0859375 550.653320312 390.409179688 550.653320312 235.225585938 c 0
 550.653320312 80.666015625 468.823242188 -6.25390625 367.918945312 -6.25390625 c 0
210.59765625 235.225585938 m 0
 210.59765625 178.123046875 229.682617188 117.236328125 276.838867188 117.236328125 c 0
 315.544921875 117.236328125 333.876953125 179.512695312 333.876953125 235.225585938 c 0
 333.876953125 295.420898438 312.66796875 360.284179688 276.095703125 360.284179688 c 0
 230.68359375 360.284179688 210.59765625 295.63671875 210.59765625 235.225585938 c 0
EndSplineSet
PickledDataWithLists: "(dp1
S'com.fontlab.hintData'
p2
(dp3
S'vhints'
p4
(lp5
(dp6
S'position'
p7
I97
sS'width'
p8
I82
sa(dp9
g7
I286
sg8
I189
sasS'hhints'
p10
(lp11
(dp12
g7
I-5
sg8
I107
sa(dp13
g7
I313
sg8
I108
sass."
EndChar

StartChar: uni008B
Encoding: -1 139 45
GlifName: uni008B_
Width: 628
VWidth: 0
GlyphClass: 2
Flags: W
HStem: 371.08 121.9<91.2437 164.072 381.473 473.577>
VStem: 76.7422 410.18<384.599 477.431>
LayerCount: 2
Back
Fore
SplineSet
390.8359375 492.98046875 m 6
 164.072265625 492.98046875 l 6
 94.5751953125 492.98046875 76.7421875 465.379882812 76.7421875 429.842773438 c 4
 76.7421875 392.40234375 97.3974609375 371.080078125 157.825195312 371.080078125 c 6
 381.47265625 371.080078125 l 6
 453.358398438 371.080078125 486.921875 382.170898438 486.921875 425.962890625 c 4
 486.921875 476.879882812 463.44140625 492.588867188 390.8359375 492.98046875 c 6
EndSplineSet
PickledDataWithLists: "(dp1
S'com.fontlab.hintData'
p2
(dp3
S'hhints'
p4
(lp5
(dp6
S'position'
p7
I348
sS'width'
p8
I106
sass."
EndChar

StartChar: H
Encoding: 40 72 46
GlifName: H_
Width: 780
GlyphClass: 2
Flags: W
HStem: 0 21G<134.739 212.143 568.739 644.267> 256.351 150<288.914 492>
VStem: 57.2832 231.527<43.6965 256.351 406.351 642.633> 492 231<46.2946 256.351 406.351 643.249>
LayerCount: 2
Back
Fore
SplineSet
723 150.3046875 m 6
 723 38.8671875 682.392578125 0 606.140625 0 c 4
 531.336914062 0 494.09375 32.203125 493.510742188 142.657226562 c 6
 492.874023438 256.350585938 l 5
 288.9140625 256.350585938 l 5
 289 150.3046875 l 6
 289 38.8671875 252.14453125 0 172.140625 0 c 4
 97.3369140625 0 59.5107421875 32.201171875 59.5107421875 142.657226562 c 6
 57.283203125 564.864257812 l 6
 57.283203125 651.670898438 107.486328125 684.813476562 172.140625 684.813476562 c 4
 242.236328125 684.813476562 288.606445312 670.995117188 288.6796875 573.850585938 c 6
 288.810546875 406.350585938 l 5
 492 406.350585938 l 5
 492 564.864257812 l 6
 492 651.670898438 541.486328125 684.813476562 606.140625 684.813476562 c 4
 672.939453125 684.813476562 723 670.995117188 723 573.850585938 c 6
 723 150.3046875 l 6
EndSplineSet
PickledDataWithLists: "(dp1
S'com.fontlab.hintData'
p2
(dp3
S'vhints'
p4
(lp5
(dp6
S'position'
p7
I69
sS'width'
p8
I210
sa(dp9
g7
I182
sg8
I357
sa(dp10
g7
I429
sg8
I210
sasS'hhints'
p11
(lp12
(dp13
g7
I0
sg8
I595
sa(dp14
g7
I229
sg8
I120
sass."
EndChar

StartChar: grave
Encoding: 64 96 47
GlifName: grave
Width: 371
VWidth: 0
GlyphClass: 2
Flags: W
HStem: 555.007 219.663
VStem: 36.5508 297.907<628.678 663.519>
LayerCount: 2
Back
Fore
SplineSet
163.083984375 762.00390625 m 0
 156.388476562 765.906280088 136.660546875 774.669921875 115.473632812 774.669921875 c 0
 64.1026321002 774.669921875 36.55078125 718.583880045 36.55078125 678.16796875 c 0
 36.55078125 634.502552496 72.3420897216 614.483890082 99.166015625 604.293945312 c 0
 144.453381681 587.088476562 165.742231811 581.717480468 221.04296875 563.284179688 c 0
 233.098176129 559.264609446 250.300313691 555.006835938 266.583984375 555.006835938 c 0
 308.336185491 555.006835938 334.458007812 582.050210315 334.458007812 615.034179688 c 0
 334.458007812 654.757949297 305.201330606 671.399094811 277.96875 689.553710938 c 0
 231.393631229 720.603794643 212.591141874 733.151094093 163.083984375 762.00390625 c 0
EndSplineSet
EndChar

StartChar: A
Encoding: 33 65 48
GlifName: A_
Width: 712
VWidth: 0
GlyphClass: 2
Flags: W
HStem: 0.480469 21G<109.828 199.267 515.039 604.872> 152.28 138<274.424 439.884> 521.807 163.463<300.108 413.875>
VStem: 43.3047 231.119<297.339 459.144> 439.884 231.116<58.6073 152.28 290.28 459.144>
LayerCount: 2
Back
Fore
SplineSet
357.741210938 521.806640625 m 0
 302.946289062 521.806640625 274.877929688 496.41015625 274.877929688 407.854492188 c 0
 274.877929688 373.708007812 274.674804688 332.627929688 274.423828125 290.280273438 c 1
 439.883789062 290.280273438 l 1
 439.631835938 333.153320312 439.426757812 375.024414062 439.426757812 410.326171875 c 0
 439.426757812 496.541015625 409.831054688 521.806640625 357.741210938 521.806640625 c 0
440.6796875 152.280273438 m 1
 273.625 152.280273438 l 1
 273.541992188 133.135742188 273.491210938 115.252929688 273.491210938 99.3486328125 c 0
 273.491210938 33.1953125 244.09375 0.48046875 154.440429688 0.48046875 c 0
 65.21484375 0.48046875 43.3046875 52.572265625 43.3046875 309.219726562 c 0
 43.3046875 592.661132812 227.8984375 685.26953125 359.935546875 685.26953125 c 0
 491.081054688 685.26953125 671 592.661132812 671 309.219726562 c 0
 671 52.572265625 649.87890625 0.48046875 559.864257812 0.48046875 c 0
 470.213867188 0.48046875 440.813476562 33.1953125 440.813476562 99.3486328125 c 0
 440.813476562 115.245117188 440.762695312 133.12109375 440.6796875 152.280273438 c 1
EndSplineSet
EndChar

StartChar: L
Encoding: 44 76 49
GlifName: L_
Width: 614
VWidth: 0
GlyphClass: 2
Flags: W
HStem: 0 684.566<106.974 261.777> 0 172.743<292.194 547.195>
VStem: 62 230.194<172.743 638.592>
LayerCount: 2
Back
SplineSet
296.859375 119.422851562 m 262
 296.943359375 7.9853515625 265.754882812 -13.6318359375 185.75 -13.6318359375 c 260
 107.127929688 -13.6318359375 79.4541015625 18.572265625 78.87109375 129.025390625 c 262
 76.64453125 551.232421875 l 262
 76.1904296875 637.217773438 116.78515625 671.181640625 185.75 671.181640625 c 260
 255.845703125 671.181640625 296.465820312 657.364257812 296.5390625 560.21875 c 262
 296.859375 119.422851562 l 262
EndSplineSet
Fore
SplineSet
165.013671875 0 m 0xa0
 93.798828125 2.8603515625 62.556640625 36.9326171875 62 142.41015625 c 2
 62 564.6171875 l 2
 62 636 106.400390625 684.56640625 175.365234375 684.56640625 c 0xa0
 245.459960938 684.56640625 291.833007812 670.749023438 291.903320312 573.603515625 c 2
 292.194335938 172.743164062 l 1
 462.713867188 172.571289062 l 2
 535.318359375 172.48828125 568 160.510742188 568 86.0029296875 c 0
 568 8.2578125 524.274414062 0 453.349609375 0 c 0x60
 165.013671875 0 l 0xa0
EndSplineSet
PickledDataWithLists: "(dp1
S'com.fontlab.hintData'
p2
(dp3
S'vhints'
p4
(lp5
(dp6
S'position'
p7
I93
sS'width'
p8
I210
sasS'hhints'
p9
(lp10
(dp11
g7
I0
sg8
I595
sass."
EndChar

StartChar: O
Encoding: 47 79 50
GlifName: O_
Width: 805
VWidth: 0
GlyphClass: 2
Flags: W
HStem: -6.04102 146.191<354.742 450.122> 543.619 146.947<355.58 449.269>
VStem: 51.5098 246.945<215.18 461.465> 506 247<213.338 463.424>
LayerCount: 2
Back
Fore
SplineSet
402 140.150390625 m 0
 473.827228114 140.150390625 506 242.263671874 506 338 c 0
 506 434.65234375 472.187904066 543.619140625 402 543.619140625 c 0
 335.620082492 543.619140625 298.455078125 434.65234375 298.455078125 338 c 0
 298.455078125 242.263671875 333.973826674 140.150390625 402 140.150390625 c 0
402 -6.041015625 m 0
 207.119140624 -6.041015625 51.509765625 118.735351562 51.509765625 338 c 0
 51.509765625 558.767578124 200.213867187 690.56640625 402 690.56640625 c 0
 603.651367187 690.56640625 753 558.767578124 753 338 c 0
 753 118.735351562 596.751953124 -6.041015625 402 -6.041015625 c 0
EndSplineSet
PickledDataWithLists: "(dp1
S'com.fontlab.hintData'
p2
(dp3
S'vhints'
p4
(lp5
(dp6
S'position'
p7
I22
sS'width'
p8
I226
sa(dp9
g7
I459
sg8
I226
sasS'hhints'
p10
(lp11
(dp12
g7
I-5
sg8
I111
sa(dp13
g7
I487
sg8
I114
sass."
EndChar

StartChar: tilde.case
Encoding: 507 -1 51
GlifName: _notdef000000000000001
Width: 478
VWidth: 0
Flags: W
HStem: 749.068 195.306<71.4995 158.108 317.207 405.771>
LayerCount: 2
Back
Fore
SplineSet
178.0703125 810.547851562 m 5
 178.0703125 776.315571234 145.684674002 749.068359375 104.64453125 749.068359375 c 4
 43.8730465486 749.068359375 32.849609375 783.758569307 32.849609375 832.3359375 c 4
 32.849609375 886.137843601 65.2655392944 944.374023438 129.421875 944.374023438 c 4
 217.900420994 944.374023438 299.466796875 882.89453125 299.466796875 882.89453125 c 5
 299.466796875 915.286644248 331.851512521 944.374023438 372.892578125 944.374023438 c 4
 432.999236147 944.374023438 444.682617188 910.233830806 444.682617188 862.499023438 c 4
 444.682617188 808.313211641 412.8256991 749.068359375 348.114257812 749.068359375 c 4
 259.635739766 749.068359375 219.417812084 810.547851562 178.0703125 810.547851562 c 5
EndSplineSet
PickledDataWithLists: "(dp1
S'com.fontlab.hintData'
p2
(dp3
S'vhints'
p4
(lp5
(dp6
S'position'
p7
I68
sS'width'
p8
I189
sa(dp9
g7
I296
sg8
I123
sa(dp10
g7
I477
sg8
I122
sa(dp11
g7
I632
sg8
I189
sasS'hhints'
p12
(lp13
(dp14
g7
I-5
sg8
I63
sa(dp15
g7
I-5
sg8
I44
sa(dp16
g7
I-1
sg8
I415
sa(dp17
g7
I200
sg8
I64
sa(dp18
g7
I312
sg8
I103
sass."
EndChar

StartChar: tm_NYA
Encoding: 353 2974 52
GlifName: uni0B_9E_
Width: 1592
VWidth: 0
GlyphClass: 2
Flags: W
HStem: -338.051 184.164<644.02 1025.64> -4.81738 77.8975<627.265 808.338> 160.18 153.82<1273.14 1432.02> 236.777 73.3584<761.647 807.669> 378 124<648.912 1019.41 1234.46 1368.94>
VStem: 40 219.862<104.179 304.566> 347.831 218.5<161.229 308.783> 609.583 140.905<128.019 230.267> 817.722 140.843<77.047 232.721> 1019.41 215.05<27.9506 152.861 271.056 378> 1321.54 229.305<23.6137 154.857>
AnchorPoint: "Anchor-1" 1398 0 basechar 0
AnchorPoint: "Anchor-0" 882 0 basechar 0
LayerCount: 2
Back
Fore
SplineSet
289.826171875 322.63671875 m 0xefe0
 269.295898438 281.575195312 259.862304688 239.836914062 259.862304688 199 c 0
 259.862304688 13.236328125 483.204101562 -153.88671875 852.587890625 -153.88671875 c 0
 1034.32324219 -153.88671875 1321.5390625 -72.400390625 1321.5390625 96.6494140625 c 0
 1321.5390625 133.44921875 1313.73730469 160.1796875 1283.07910156 160.1796875 c 0xefe0
 1256.12890625 160.1796875 1234.59863281 143.31640625 1234.45410156 105.711914062 c 0
 1234.14550781 25.9326171875 1204.12402344 0.2744140625 1121.00390625 0.2744140625 c 0
 1038.95605469 0.2744140625 1019.40625 38.4638671875 1019.40625 118.034179688 c 2
 1019.40625 378 l 1
 762.981445312 378 l 6
 638.456054688 378 566.331054688 337.008789062 566.331054688 227.866210938 c 4
 566.331054688 187.865234375 582.418945312 153.299804688 611.568359375 127.004882812 c 5
 610.260742188 135.315429688 609.583007812 144.005859375 609.583007812 153.064453125 c 4
 609.583007812 251.010742188 684.328125 310.135742188 784.66796875 310.135742188 c 4xdfe0
 885.032226562 310.135742188 958.564453125 251.010742188 958.564453125 153.064453125 c 4
 958.564453125 127.493164062 952.744140625 105.102539062 943.64453125 85.3955078125 c 4
 930.642578125 57.23828125 905.296875 31.8291015625 867.630859375 15.2060546875 c 4
 839.3203125 2.7119140625 804.049804688 -4.8173828125 761.831054688 -4.8173828125 c 4
 493.880859375 -4.8173828125 347.831054688 103.68359375 347.831054688 255 c 4
 347.831054688 421.352539062 463.456054688 502 784.831054688 502 c 6
 1301.58105469 502 l 2
 1359.08105469 502 1382.08105469 484.868164062 1382.08105469 438.166015625 c 0
 1382.08105469 398.415039062 1357.95703125 378 1294.45605469 378 c 2
 1234.45605469 378 l 1
 1234.45605469 271.055664062 l 1
 1284.33691406 302.530273438 1325.56054688 314 1393.08789062 314 c 0
 1470.94238281 314 1550.84375 266.611328125 1550.84375 120.799804688 c 0
 1550.84375 98.6064453125 1549.09570312 74.1328125 1544.88769531 47.19921875 c 0
 1504.63769531 -210.400390625 1188.38769531 -338.05078125 818.087890625 -338.05078125 c 0
 320.595703125 -338.05078125 40 -72.009765625 40 205.899414062 c 0
 40 275.499023438 55.576171875 345.844726562 89.125 412.938476562 c 0
 110.999023438 456.68359375 148.08984375 482.637695312 187.087890625 482.637695312 c 0
 205.219726562 482.637695312 223.766601562 479.725585938 241.385742188 470.916015625 c 0
 278.509765625 452.354492188 309.0078125 431.532226562 309.0078125 394.5 c 0
 309.0078125 375.461914062 304.577148438 352.139648438 289.826171875 322.63671875 c 0xefe0
817.721679688 154.180664062 m 4
 817.721679688 193.763671875 807.396484375 236.77734375 785.2890625 236.77734375 c 4xdfe0
 762.452148438 236.77734375 750.48828125 193.260742188 750.48828125 154.223632812 c 4
 750.48828125 115.202148438 761.607421875 73.080078125 784.97265625 73.080078125 c 4
 808.337890625 73.080078125 817.721679688 114.618164062 817.721679688 154.180664062 c 4
EndSplineSet
PickledDataWithLists: "(dp1
S'com.fontlab.hintData'
p2
(dp3
S'vhints'
p4
(lp5
(dp6
S'position'
p7
I-190
sS'width'
p8
I191
sa(dp9
g7
I68
sg8
I189
sa(dp10
g7
I296
sg8
I123
sa(dp11
g7
I477
sg8
I122
sa(dp12
g7
I632
sg8
I189
sa(dp13
g7
I744
sg8
I76
sa(dp14
g7
I896
sg8
I199
sasS'hhints'
p15
(lp16
(dp17
g7
I-299
sg8
I160
sa(dp18
g7
I-5
sg8
I63
sa(dp19
g7
I-5
sg8
I44
sa(dp20
g7
I-1
sg8
I415
sa(dp21
g7
I134
sg8
I134
sa(dp22
g7
I200
sg8
I64
sa(dp23
g7
I312
sg8
I103
sass."
EndChar

StartChar: comma
Encoding: 12 44 53
GlifName: comma
Width: 311
VWidth: 0
GlyphClass: 2
Flags: W
HStem: -6.9834 151.983<67.682 148.444>
VStem: 39.8105 230.189<19.1995 112.074>
LayerCount: 2
Back
SplineSet
155.630859375 37.1455078125 m 261
 129.20703125 -8.41796875 108.53515625 -23.7255859375 44.353515625 -55.119140625 c 260
 32.0859375 -61.1201171875 29.767578125 -73.8369140625 29.767578125 -83.525390625 c 260
 29.767578125 -97.1572265625 38.201171875 -109.854492188 47.77734375 -115.838867188 c 260
 52.509765625 -118.796875 59.56640625 -120.416015625 68.28515625 -120.416015625 c 260
 128.822265625 -120.416015625 269.53515625 -52.982421875 269.53515625 80.923828125 c 260
 269.53515625 177.524414062 166.03515625 176.557617188 156.8359375 176.557617188 c 261
 155.630859375 37.1455078125 l 261
39.345703125 100.657226562 m 260
 39.345703125 43.4697265625 92.1767578125 24.57421875 147.635742188 24.57421875 c 260
 213.458007812 24.57421875 256.885742188 40.521484375 256.885742188 100.657226562 c 260
 256.885742188 152.274414062 219.78515625 176.557617188 147.635742188 176.557617188 c 260
 76.466796875 176.557617188 39.345703125 143.798828125 39.345703125 100.657226562 c 260
EndSplineSet
Fore
SplineSet
39.810546875 69.099609375 m 0
 39.810546875 11.912109375 92.6416015625 -6.9833984375 148.100585938 -6.9833984375 c 0
 148.21484375 -6.9833984375 148.329101562 -6.9833984375 148.444335938 -6.9833984375 c 1
 125.201171875 -43.130859375 102.70703125 -58.359375 44.818359375 -86.6767578125 c 0
 32.55078125 -92.677734375 30.232421875 -105.39453125 30.232421875 -115.083007812 c 0
 30.232421875 -136.5 45.4130859375 -151.973632812 68.75 -151.973632812 c 0
 129.287109375 -151.973632812 270 -84.5400390625 270 49.3662109375 c 0
 270 123.32421875 211.443359375 145 148.100585938 145 c 0
 76.931640625 145 39.810546875 112.241210938 39.810546875 69.099609375 c 0
EndSplineSet
PickledDataWithLists: "(dp1
S'com.fontlab.hintData'
p2
(dp3
S'vhints'
p4
(lp5
(dp6
S'position'
p7
I126
sS'width'
p8
I88
sasS'hhints'
p9
(lp10
(dp11
g7
I-6
sg8
I132
sass."
EndChar

StartChar: plus
Encoding: 11 43 54
GlifName: plus
Width: 552
VWidth: 0
GlyphClass: 2
Flags: W
HStem: 154.691 159.391<63.7424 192.437 351.826 484.946>
VStem: 192.437 159.39<24.8531 154.691 314.082 444.672>
LayerCount: 2
Back
Fore
SplineSet
400.890625 314.08203125 m 6
 480.756493041 314.08203125 506.584960938 290.449272192 506.584960938 227.712890625 c 4
 506.584960938 172.474118564 469.665167802 154.69140625 390.58984375 154.69140625 c 6
 351.826171875 154.69140625 l 5
 351.826171875 91.654296875 l 6
 351.826171875 25.1837162836 321.363822974 2.462890625 274.538085938 2.462890625 c 4
 230.46176398 2.462890625 192.436523438 22.0790995096 192.436523438 98.5244140625 c 6
 192.436523438 154.69140625 l 5
 131.928710938 154.69140625 l 6
 65.4581303459 154.69140625 42.7373046875 185.155214273 42.7373046875 231.98046875 c 4
 42.7373046875 276.056790709 58.5583482024 314.08203125 135.004882812 314.08203125 c 6
 192.436523438 314.08203125 l 5
 192.436523438 360.616210938 l 6
 192.436523438 440.482078978 216.069255775 466.310546875 278.806640625 466.310546875 c 4
 334.042599387 466.310546875 351.826171875 429.390753739 351.826171875 350.315429688 c 6
 351.826171875 314.08203125 l 5
 400.890625 314.08203125 l 6
EndSplineSet
EndChar

StartChar: hyphen
Encoding: 13 45 55
GlifName: hyphen
Width: 446
VWidth: 0
GlyphClass: 2
Flags: W
HStem: 201.58 144.9<80.5178 367.058>
VStem: 61.417 322.583<219.01 327.416>
LayerCount: 2
Back
Fore
SplineSet
287.9140625 346.48046875 m 6
 360.50390625 346.48046875 384 324.99609375 384 267.962890625 c 4
 384 217.74609375 350.419921875 201.580078125 278.55078125 201.580078125 c 6
 142.5 201.580078125 l 6
 82.0859375 201.580078125 61.4169921875 229.274414062 61.4169921875 271.842773438 c 4
 61.4169921875 311.912109375 79.2646484375 346.48046875 148.74609375 346.48046875 c 6
 287.9140625 346.48046875 l 6
EndSplineSet
EndChar

StartChar: tm_RA
Encoding: 362 2992 56
GlifName: uni0B_B_0
Width: 822
VWidth: 0
Flags: W
HStem: 376.006 125.2<255.884 454.271 668.706 770.263>
VStem: 41 215.051<28.0065 376.006> 454.158 215.05<32.5191 376.303>
AnchorPoint: "Anchor-1" 801 0 basechar 0
AnchorPoint: "Anchor-0" 363 -8.51953 basechar 0
LayerCount: 2
Back
Fore
SplineSet
326.5078125 -33.9384765625 m 0
 432.307617188 23.5615234375 454.158203125 37.59375 454.158203125 85.6611328125 c 0
 454.271484375 376.302734375 l 1
 255.883789062 376.005859375 l 1
 256.05078125 106.704101562 l 0
 256.05078125 25.9423828125 226.150390625 0.017578125 142.59765625 0.017578125 c 0
 60.55078125 0.017578125 41 38.2060546875 41 117.776367188 c 0
 42.1767578125 384.104492188 l 1
 44.8671875 455.561523438 82.7939453125 501.206054688 145.5234375 501.206054688 c 2
 708.5234375 502.1484375 l 2
 765.129882812 502.1484375 781.772460938 485.821289062 781.772460938 437.748046875 c 0
 781.772460938 387.6953125 752.223632812 376.797851562 702.7734375 376.797851562 c 2
 668.706054688 376.721679688 l 1
 669.208007812 120.9609375 l 4
 669.208007812 47.1533203125 667.801757812 -2.3125 658.858398438 -20.8388671875 c 4
 632.408203125 -82.90234375 574.908203125 -116.975585938 403.732421875 -202.6640625 c 0
 363.97265625 -221.47265625 331.947265625 -230.262695312 305.807617188 -230.262695312 c 0
 265.721679688 -230.262695312 239.48046875 -212.379882812 220.422851562 -179.809570312 c 0
 213.151367188 -164.919921875 209.734375 -151.768554688 209.734375 -139.739257812 c 0
 209.734375 -99.6826171875 251.873046875 -74.5009765625 326.5078125 -33.9384765625 c 0
EndSplineSet
EndChar

StartChar: uni0B89
Encoding: 341 2953 57
GlifName: uni0B_89
Width: 1134
VWidth: 0
Flags: W
HStem: -0.548828 126.85<81.3348 365.966 641.838 1083.18> 212 61.7422<172.553 214.366> 414.112 108.638<174.04 343.042>
VStem: 39 124.349<277.1 411.18> 222.682 124.295<276.649 412.086> 419.332 229.747<196.342 356.579>
LayerCount: 2
Back
SplineSet
457.176757812 125.951171875 m 5
 457.176757812 144.936523438 454.788085938 176.891601562 451.426757812 196.1015625 c 260
 435.327148438 288.1015625 363.467773438 382.401367188 255.926757812 382.401367188 c 260
 236.967773438 382.401367188 173.533203125 375.500976562 173.533203125 299.6015625 c 260
 26.7939453125 299.6015625 l 260
 26.7939453125 395.922851562 108.7265625 446.80078125 236.376953125 446.80078125 c 260
 457.176757812 446.80078125 654.9765625 355.951171875 654.9765625 125.951171875 c 260
 457.176757812 125.951171875 l 5
240.75 299.6015625 m 260
 240.75 328.563476562 230.626953125 361.333984375 208.186523438 361.333984375 c 260
 186.149414062 361.333984375 173.49609375 328.165039062 173.49609375 299.6015625 c 260
 173.49609375 271.072265625 184.590820312 242.247070312 207.903320312 242.247070312 c 260
 231.338867188 242.247070312 240.75 270.681640625 240.75 299.6015625 c 260
207.626953125 179.75 m 260
 107.903320312 179.75 27.458984375 222.484375 27.458984375 299.6015625 c 260
 27.458984375 363.139648438 104.375 402.008789062 207.62890625 402.008789062 c 260
 310.999023438 402.008789062 386.732421875 363.139648438 386.732421875 299.6015625 c 260
 386.732421875 222.484375 307.458007812 179.75 207.626953125 179.75 c 260
1014.12695312 126.30078125 m 262
 1086.73144531 126.30078125 1105.77636719 114.741210938 1105.77636719 63.8515625 c 260
 1105.77636719 17.03125 1087.18066406 -0.548828125 1015.27734375 -0.548828125 c 262
 138.977539062 -0.548828125 l 262
 78.5322265625 -0.2841796875 57.89453125 26.4111328125 57.89453125 63.8515625 c 260
 57.89453125 112.151367188 91.8798828125 126.30078125 148.674804688 126.30078125 c 262
 1014.12695312 126.30078125 l 262
EndSplineSet
Fore
SplineSet
1013.88183594 126.30078125 m 6
 1064.48144531 126.30078125 1094.32519531 114.741210938 1094.32519531 63.8515625 c 4
 1094.32519531 17.03125 1074.83203125 -0.548828125 1015.03222656 -0.548828125 c 6
 147.526367188 -0.548828125 l 6
 87.08203125 -0.548828125 66.443359375 26.4111328125 66.443359375 63.8515625 c 4
 66.443359375 112.151367188 100.4296875 126.30078125 157.223632812 126.30078125 c 6
 345.581054688 126.30078125 l 5
 370.16015625 147.85546875 419.33203125 202.421875 419.33203125 294 c 0
 419.33203125 346.491210938 388.139648438 394.790039062 326.244140625 415.538085938 c 1
 339.53125 395.405273438 346.9765625 370.776367188 346.9765625 342.329101562 c 0
 346.9765625 258.911132812 279.05078125 212 193.509765625 212 c 0
 107.989257812 212 39 258.911132812 39 342.329101562 c 0
 39 428.579101562 97.33203125 522.75 322.731445312 522.75 c 0
 546.982421875 522.75 649.079101562 408.8359375 649.079101562 227.135742188 c 0
 649.079101562 192.84765625 646.733398438 158.920898438 641.837890625 126.30078125 c 5
 1013.88183594 126.30078125 l 6
222.681640625 343.286132812 m 0
 222.681640625 377.227539062 213.5703125 414.112304688 194.060546875 414.112304688 c 0
 173.90625 414.112304688 163.348632812 376.796875 163.348632812 343.323242188 c 0
 163.348632812 309.862304688 173.161132812 273.7421875 193.78125 273.7421875 c 0
 214.400390625 273.7421875 222.681640625 309.361328125 222.681640625 343.286132812 c 0
EndSplineSet
EndChar

StartChar: uni0B8A
Encoding: 342 2954 58
GlifName: uni0B_8A_
Width: 1744
VWidth: 0
Flags: W
HStem: -0.548828 126.85<63.158 365.966 641.838 1692.02> 154.392 59.7568<888.73 1023.03> 212 61.7422<172.553 214.366> 339.726 56.2744<984.491 1021.9> 413 88.625<1616.2 1674.44> 414.112 108.638<174.04 343.042> 429 93.7041<885.546 1123.85>
VStem: 39 124.349<277.1 411.18> 222.682 124.295<276.649 412.086> 419.332 229.747<196.342 356.579> 690 145.758<270.432 386.971> 868.938 108.093<256.293 337.812> 1028.61 108.044<214.564 339.324> 1186 149.833<170.331 248.859 380.916 392.531> 1457.83 149.04<170.331 248.859>
LayerCount: 2
Back
Fore
SplineSet
1028.60644531 276.362304688 m 0xd1fe
 1028.60644531 246.012742972 1021.40724205 214.1484375 1003.48339844 214.1484375 c 0
 985.560059659 214.1484375 977.030273438 246.461237728 977.030273438 276.395507812 c 0
 977.030273438 306.341998573 986.207965584 339.725585938 1003.7265625 339.725585938 c 0
 1020.68572624 339.725585938 1028.60644531 306.72804416 1028.60644531 276.362304688 c 0xd1fe
1186 380.916015625 m 1
 1186 248.859375 l 4
 1186 184.529002589 1201.37402344 153.651367188 1262.5703125 153.651367188 c 4
 1316.52441406 153.651367188 1335.83300781 174.634765625 1335.83300781 240.001953125 c 6
 1335.83300781 413 l 1
 1457.83203125 413 l 1
 1457.82519531 248.859375 l 4
 1457.82519531 184.526451796 1472.40722656 153.651367188 1533.60351562 153.651367188 c 4
 1587.55761719 153.651367188 1606.86523438 174.634765625 1606.86523438 240.001953125 c 6
 1606.86523438 413 l 1
 1616.20410156 413 l 2
 1655.76367188 413 1679.40332031 421.270507813 1679.40332031 459.259765625 c 0
 1679.40332031 491 1666.08984375 501.780273438 1620.80371094 501.780273438 c 0
 1253.90234375 501.625 l 0x99fe
 1227.22099298 499.976851293 1205.13397596 492.96875 1186.78417969 477.928710938 c 1
 1145.20810059 497.258986545 1070.15720226 522.704101562 963.145507812 522.704101562 c 0
 802.230579384 522.704101562 690 460.631894465 690 346.12109375 c 0
 690 239.596385365 794.32734258 154.391601562 985.731445312 154.391601562 c 0
 1018.11828748 154.391601562 1045.17424584 160.167379802 1066.89257812 169.750976562 c 0
 1095.78298353 182.499376948 1115.2251735 201.989760559 1125.20019531 223.586914062 c 0
 1132.18372059 238.707108306 1136.65039062 255.886566781 1136.65039062 275.506835938 c 0
 1136.65039062 350.643790296 1080.24239253 396 1003.25 396 c 0
 926.276539849 396 868.9375 350.643790296 868.9375 275.506835938 c 0
 868.9375 268.556842554 869.457629479 261.890033119 870.461914062 255.514648438 c 1
 848.09947922 275.68608838 835.7578125 302.202025273 835.7578125 332.887695312 c 0
 835.7578125 405.501396405 917.357272622 429 995.140625 429 c 0xd3fe
 1085.50598598 429 1148.7114127 403.092554207 1186 380.916015625 c 1
1601.55371094 126.30078125 m 2
 1682.35644531 126.30078125 1703.55273438 114.741210938 1703.55273438 63.8515625 c 0
 1703.55273438 17.03125 1684.95703125 -0.548828125 1613.05371094 -0.548828125 c 2
 129.34765625 -0.548828125 l 2
 68.9140625 -0.548828125 48.2646484375 26.4111328125 48.2646484375 63.8515625 c 0
 48.2646484375 112.151367188 82.2578125 126.30078125 139.044921875 126.30078125 c 2
 345.581054688 126.30078125 l 1
 370.16015625 147.85546875 419.33203125 202.421875 419.33203125 294 c 0
 419.33203125 346.491210938 388.139648438 394.790039062 326.244140625 415.538085938 c 1
 339.53125 395.405273438 346.9765625 370.776367188 346.9765625 342.329101562 c 0
 346.9765625 258.911132812 279.05078125 212 193.509765625 212 c 0
 107.989257812 212 39 258.911132812 39 342.329101562 c 0
 39 428.579101562 97.33203125 522.75 322.731445312 522.75 c 0xb5fe
 546.982421875 522.75 649.079101562 408.8359375 649.079101562 227.135742188 c 0
 649.079101562 192.84765625 646.733398438 158.920898438 641.837890625 126.30078125 c 1
 1601.55371094 126.30078125 l 2
222.681640625 343.286132812 m 0
 222.681640625 377.227539062 213.5703125 414.112304688 194.060546875 414.112304688 c 0
 173.90625 414.112304688 163.348632812 376.796875 163.348632812 343.323242188 c 0
 163.348632812 309.862304688 173.161132812 273.7421875 193.78125 273.7421875 c 0
 214.400390625 273.7421875 222.681640625 309.361328125 222.681640625 343.286132812 c 0
EndSplineSet
EndChar

StartChar: tm_NA
Encoding: 357 2984 59
GlifName: uni0B_A_8
Width: 976
VWidth: 0
Flags: W
HStem: -248.572 174.192<285.077 658.683> -228.16 170.45<182.251 551.781> 0.0175781 21G<101.849 184.648 465.818 546.746> 146.325 153.675<658.291 830.296> 376.568 125.432<256.325 405.244 620.295 722.165>
VStem: 41.2744 215.051<28.0089 375.879> 405.244 215.051<27.2619 142.142 258.917 376.119> 706.872 229.306<-27.339 133.422>
AnchorPoint: "Anchor-1" 751 0 basechar 0
AnchorPoint: "Anchor-0" 412 0 basechar 0
LayerCount: 2
Back
Fore
SplineSet
256.325195312 106.704101562 m 6xbf
 256.325195312 25.9482421875 226.424804688 0.017578125 142.872070312 0.017578125 c 4
 60.8251953125 0.017578125 41.2744140625 38.2119140625 41.2744140625 117.776367188 c 6
 41.2744140625 389.202148438 l 6
 41.2744140625 456.833984375 80.375 501.837890625 142.266601562 501.85546875 c 6
 659.916992188 502 l 6
 717 502.015625 733.166015625 485.672851562 733.166015625 437.599609375 c 4
 733.166015625 387.546875 703.6171875 376.767578125 654.166992188 376.649414062 c 6
 620.294921875 376.568359375 l 5
 620.294921875 258.916992188 l 5
 662.569335938 286.438476562 717.290039062 300 778.420898438 300 c 4
 882.171875 300 936.177734375 233.30078125 936.177734375 56.2001953125 c 4
 936.177734375 -106.524414062 866.072265625 -248.572265625 569.372070312 -248.572265625 c 4xbf
 505.377929688 -248.572265625 369.573242188 -228.16015625 331.403320312 -228.16015625 c 4
 207.16015625 -228.16015625 187.034179688 -257.63671875 128.477539062 -257.63671875 c 4
 77.3544921875 -257.63671875 40 -220.029296875 40 -170.94140625 c 4
 40 -103.526367188 89.3740234375 -57.7099609375 233 -57.7099609375 c 4x7f
 315.270507812 -57.7099609375 445.627929688 -74.3798828125 541.772460938 -74.3798828125 c 4
 681.716796875 -74.3798828125 706.872070312 -26.5205078125 706.872070312 66.55078125 c 4
 706.872070312 104.899414062 692.883789062 146.325195312 660 146.325195312 c 7
 636.240234375 146.325195312 621.4296875 128.499023438 620.065429688 94.9462890625 c 4
 617.19140625 24.2841796875 586.650390625 0.017578125 506.841796875 0.017578125 c 4
 424.794921875 0.017578125 405.244140625 38.2119140625 405.244140625 117.776367188 c 6
 405.244140625 376.119140625 l 5
 256.325195312 375.87890625 l 5
 256.325195312 106.704101562 l 6xbf
EndSplineSet
EndChar

StartChar: tm_PA
Encoding: 359 2986 60
GlifName: uni0B_A_A_
Width: 713
VWidth: 0
Flags: W
HStem: -0.0947266 125.221<256.05 453.851>
VStem: 41 215.05<125.126 474.011> 453.851 215.05<125.317 474.011>
AnchorPoint: "Anchor-1" 668 0 basechar 0
AnchorPoint: "Anchor-0" 359 -2 basechar 0
LayerCount: 2
Back
Fore
SplineSet
668.900390625 395.3125 m 2
 668.900390625 109.896484375 l 2
 668.900390625 19.556640625 617.685546875 0.16796875 554.842773438 0.16796875 c 2
 150.25 -0.0947265625 l 2
 88.150390625 -0.0947265625 41 45.189453125 41 112.822265625 c 2
 41 384.240234375 l 2
 41 463.810546875 60.5498046875 502 142.59765625 502 c 0
 226.150390625 502 256.049804688 476.07421875 256.049804688 395.3125 c 2
 256.049804688 125.125976562 l 1
 337.540039062 125.1640625 404.217773438 125.241210938 453.850585938 125.317382812 c 1
 453.850585938 384.240234375 l 2
 453.850585938 463.810546875 473.400390625 502 555.448242188 502 c 0
 639 502 668.900390625 476.07421875 668.900390625 395.3125 c 2
EndSplineSet
EndChar

StartChar: tm_TTA
Encoding: 354 2975 61
GlifName: uni0B_9F_
Width: 742
VWidth: 0
Flags: W
HStem: -0.0947266 126.85<256.05 690.946>
VStem: 41 215.05<126.755 474.011>
AnchorPoint: "Anchor-0" 384 0 basechar 0
LayerCount: 2
Back
Fore
SplineSet
150.25 -0.0947265625 m 6
 88.1494140625 -0.0947265625 41 45.1943359375 41 112.822265625 c 6
 41 384.240234375 l 2
 41 463.810546875 60.5498046875 502 142.59765625 502 c 0
 226.149414062 502 256.049804688 476.07421875 256.049804688 395.3125 c 2
 256.049804688 126.754882812 l 5
 597.125 126.754882812 l 6
 680.403320312 126.754882812 702.25 115.1953125 702.25 64.3056640625 c 4
 702.25 17.4853515625 683.125 -0.0947265625 618.680664062 -0.0947265625 c 6
 150.25 -0.0947265625 l 6
EndSplineSet
EndChar

StartChar: uni0B82
Encoding: 335 2946 62
GlifName: uni0B_82
Width: 0
VWidth: 0
Flags: W
HStem: 515.58 64.8027<-20.6271 21.7637> 727.71 66.0234<-20.7609 21.6925>
VStem: -157.08 126.815<583.907 724.338> 30.2451 126.758<583.651 724.873>
AnchorPoint: "Anchor-0" 0 0 basechar 0
LayerCount: 2
Back
Fore
SplineSet
0.4931640625 515.580078125 m 0
 -86.72265625 515.580078125 -157.080078125 564.817382812 -157.080078125 652.368164062 c 0
 -157.080078125 740.520507812 -89.80859375 793.733398438 0.49609375 793.733398438 c 0
 90.82421875 793.733398438 157.002929688 740.520507812 157.002929688 652.368164062 c 0
 157.002929688 564.817382812 87.73046875 515.580078125 0.4931640625 515.580078125 c 0
30.2451171875 653.374023438 m 0
 30.2451171875 688.998046875 20.9521484375 727.709960938 1.0556640625 727.709960938 c 0
 -19.498046875 727.709960938 -30.2646484375 688.544921875 -30.2646484375 653.412109375 c 0
 -30.2646484375 618.29296875 -20.2587890625 580.3828125 0.7705078125 580.3828125 c 0
 21.798828125 580.3828125 30.2451171875 617.767578125 30.2451171875 653.374023438 c 0
EndSplineSet
EndChar

StartChar: uni0B83
Encoding: 336 2947 63
GlifName: uni0B_83
Width: 766
VWidth: 0
Flags: W
HStem: -70.1953 64.8027<172.867 215.258 547.767 590.158> 141.935 66.0234<172.733 215.187 547.634 590.087> 198.904 64.8027<360.317 402.708> 411.034 66.0234<360.183 402.637>
VStem: 36.4141 126.815<-1.86864 138.562> 223.739 126.758<-2.12483 139.098 267.497 407.662> 411.314 126.815<-1.86864 138.562 266.975 408.198> 598.64 126.758<-2.12483 139.098>
LayerCount: 2
Back
Fore
SplineSet
568.887695312 -70.1953125 m 0xdf
 481.671875 -70.1953125 411.314453125 -20.9580078125 411.314453125 66.5927734375 c 0
 411.314453125 154.745117188 478.5859375 207.958007812 568.890625 207.958007812 c 0
 659.21875 207.958007812 725.397460938 154.745117188 725.397460938 66.5927734375 c 0
 725.397460938 -20.9580078125 656.125 -70.1953125 568.887695312 -70.1953125 c 0xdf
598.639648438 67.5986328125 m 0
 598.639648438 103.22265625 589.346679688 141.934570312 569.450195312 141.934570312 c 0
 548.896484375 141.934570312 538.129882812 102.76953125 538.129882812 67.63671875 c 0
 538.129882812 32.517578125 548.135742188 -5.392578125 569.165039062 -5.392578125 c 0
 590.193359375 -5.392578125 598.639648438 31.9921875 598.639648438 67.5986328125 c 0
193.987304688 -70.1953125 m 0
 106.771484375 -70.1953125 36.4140625 -20.9580078125 36.4140625 66.5927734375 c 0
 36.4140625 154.745117188 103.685546875 207.958007812 193.990234375 207.958007812 c 0
 284.318359375 207.958007812 350.497070312 154.745117188 350.497070312 66.5927734375 c 0
 350.497070312 -20.9580078125 281.224609375 -70.1953125 193.987304688 -70.1953125 c 0
223.739257812 67.5986328125 m 0
 223.739257812 103.22265625 214.446289062 141.934570312 194.549804688 141.934570312 c 0
 173.99609375 141.934570312 163.229492188 102.76953125 163.229492188 67.63671875 c 0
 163.229492188 32.517578125 173.235351562 -5.392578125 194.264648438 -5.392578125 c 0
 215.29296875 -5.392578125 223.739257812 31.9921875 223.739257812 67.5986328125 c 0
381.4375 198.904296875 m 0xbf
 294.221679688 198.904296875 223.864257812 248.141601562 223.864257812 335.692382812 c 0
 223.864257812 423.844726562 291.135742188 477.057617188 381.440429688 477.057617188 c 0
 471.768554688 477.057617188 537.947265625 423.844726562 537.947265625 335.692382812 c 0
 537.947265625 248.141601562 468.674804688 198.904296875 381.4375 198.904296875 c 0xbf
411.189453125 336.698242188 m 0
 411.189453125 372.322265625 401.896484375 411.034179688 382 411.034179688 c 0
 361.446289062 411.034179688 350.6796875 371.869140625 350.6796875 336.736328125 c 0
 350.6796875 301.6171875 360.685546875 263.70703125 381.71484375 263.70703125 c 0
 402.743164062 263.70703125 411.189453125 301.091796875 411.189453125 336.698242188 c 0
EndSplineSet
EndChar

StartChar: I
Encoding: 41 73 64
GlifName: I_
Width: 374
VWidth: 0
Flags: W
HStem: -0.24707 684.813<108.327 255.96>
VStem: 70 230<48.7331 644.772>
LayerCount: 2
Back
SplineSet
169.573242188 970.911132812 m 260
 157.525390625 979.854492188 134.515625 993.74609375 108.853515625 993.74609375 c 7
 54.2197265625 993.74609375 24.7216796875 936.013671875 24.7216796875 894.436523438 c 7
 24.7216796875 866.326171875 44 847.077148438 74.1142578125 829.873046875 c 260
 136.04296875 794.4921875 169.935546875 783.340820312 247.975585938 747.571289062 c 260
 268.0078125 738.3046875 285.145507812 733.408203125 299.845703125 733.408203125 c 7
 331.862304688 733.408203125 359.65625 766.42578125 359.65625 802.666015625 c 7
 359.65625 823.37109375 344.313476562 842.317382812 317.73046875 862.125976562 c 260
 252.373046875 910.823242188 232.098632812 924.505859375 169.573242188 970.911132812 c 260
EndSplineSet
Fore
SplineSet
300 150.057617188 m 6
 300 44 259.504882812 -0.2470703125 183.252929688 -0.2470703125 c 4
 108.448242188 -0.2470703125 70.5830078125 31.9560546875 70 142.41015625 c 6
 70 564.6171875 l 6
 70 654 118.598632812 684.56640625 183.252929688 684.56640625 c 4
 250.051757812 684.56640625 299.926757812 670.748046875 300 573.603515625 c 6
 300 150.057617188 l 6
EndSplineSet
EndChar

StartChar: E
Encoding: 37 69 65
GlifName: E_
Width: 672
VWidth: 0
Flags: W
HStem: -0.00195312 161.52<299.618 596.584> 268.266 138<299.54 550.028> 523.047 161.52<299.353 598.174>
VStem: 67.9199 231.519<161.518 268.266 406.266 523.047>
LayerCount: 2
Back
Fore
SplineSet
470.87890625 406.265625 m 6
 543.484375 406.265625 566.965820312 384.174804688 566.965820312 331.198242188 c 4
 566.965820312 285.185546875 533.401367188 268.265625 461.514648438 268.265625 c 6
 299.540039062 268.265625 l 1
 299.618164062 161.517578125 l 1
 516.71484375 161.31640625 l 6
 589.318359375 161.244140625 622 143.28125 622 86.248046875 c 4
 622 17.6494140625 578.274414062 -0.001953125 507.349609375 -0.001953125 c 6
 183.765625 -0.001953125 l 2
 183.765625 0.1044921875 183.763671875 0.2119140625 183.763671875 0.318359375 c 1
 183.435546875 0.318359375 183.106445312 0.31640625 182.776367188 0.31640625 c 0
 107.973632812 0.31640625 70.728515625 32.51953125 70.146484375 142.973632812 c 2
 67.919921875 565.1796875 l 2
 67.4619140625 651.985351562 118.122070312 685.12890625 182.776367188 685.12890625 c 0
 189.940429688 685.12890625 196.907226562 684.969726562 203.63671875 684.56640625 c 2
 507.349609375 684.56640625 l 6
 578.274414062 684.56640625 622 667.62109375 622 601.765625 c 4
 622 542.112304688 589.318359375 523.3203125 516.71484375 523.248046875 c 6
 299.352539062 523.046875 l 1
 299.438476562 406.265625 l 1
 470.87890625 406.265625 l 6
EndSplineSet
EndChar

StartChar: T
Encoding: 52 84 66
GlifName: T_
Width: 741
VWidth: 0
Flags: W
HStem: 0 21G<333.943 409.471> 512.137 172.677<75.3281 256.767 488 670.71>
VStem: 45.4541 650.546<540.719 661.625> 258.715 229.285<43.6977 512.112>
LayerCount: 2
Back
Fore
SplineSet
488 150.3046875 m 2xd0
 488 34 447.596679688 0 371.345703125 0 c 0
 296.540039062 0 259.296875 32.2041015625 258.71484375 142.657226562 c 2xd0
 256.766601562 512.112304688 l 1
 171.604492188 512.313476562 l 2
 93.6591796875 512.498046875 45.4541015625 530.452148438 45.4541015625 602.733398438 c 0
 45.4541015625 665.02734375 80.3955078125 684.813476562 162.239257812 684.813476562 c 0
 308.317382812 684.813476562 447.520507812 684.813476562 590.71484375 684.813476562 c 0
 663.4453125 684.813476562 696 663.57421875 696 595.833007812 c 0xe0
 696 529.063476562 652.588867188 512.448242188 581.349609375 512.313476562 c 2
 488 512.13671875 l 1
 488 150.3046875 l 2xd0
EndSplineSet
EndChar

StartChar: F
Encoding: 38 70 67
GlifName: F_
Width: 645
Flags: W
HStem: 0.316406 684.813<101.211 252.051> 268.267 138<291.689 547.177> 523.049 161.518<291.502 594.174>
VStem: 62.2959 229.488<42.3199 268.267 406.267 523.049>
LayerCount: 2
Back
Fore
SplineSet
291.784179688 139.12109375 m 6x70
 291.860351562 36.208984375 251.177734375 0.31640625 174.92578125 0.31640625 c 4
 100.123046875 0.31640625 62.8779296875 32.5205078125 62.2958984375 142.973632812 c 6
 60.0693359375 565.180664062 l 6
 59.611328125 651.986328125 110.271484375 685.129882812 174.92578125 685.129882812 c 4x90
 182.095703125 685.129882812 189.067382812 684.970703125 195.802734375 684.56640625 c 6
 503.348632812 684.56640625 l 6
 574.2734375 684.56640625 618 667.622070312 618 601.766601562 c 4
 618 542.11328125 585.317382812 523.321289062 512.713867188 523.249023438 c 6
 291.501953125 523.048828125 l 5
 291.587890625 406.266601562 l 5
 468.028320312 406.266601562 l 6
 540.633789062 406.266601562 564.114257812 384.17578125 564.114257812 331.19921875 c 4
 564.114257812 285.186523438 530.549804688 268.266601562 458.6640625 268.266601562 c 6
 291.689453125 268.266601562 l 5
 291.784179688 139.12109375 l 6x70
EndSplineSet
EndChar

StartChar: J
Encoding: 42 74 68
GlifName: J_
Width: 658
Flags: W
HStem: -7.08203 142.886<282.921 360.048>
VStem: 51 215.185<148.734 307.377> 368 230<144.851 648.823>
LayerCount: 2
Back
SplineSet
182.874023438 158.1640625 m 260
 182.874023438 217.696289062 156.203125 247.135742188 74.8720703125 247.135742188 c 260
 -10.6181640625 247.135742188 -30.33203125 219.53515625 -30.33203125 143.177734375 c 260
 -30.33203125 53.015625 36.21484375 12.53515625 89.5751953125 12.53515625 c 1285
227.943359375 129.471679688 m 262
 225.715820312 551.677734375 l 262
 225.715820312 638.486328125 278.431640625 671.626953125 346.323242188 671.626953125 c 260
 416.418945312 671.626953125 468.534179688 657.80859375 468.612304688 560.6640625 c 262
 468.932617188 162.764648438 l 262
 227.943359375 129.471679688 l 262
365.724609375 245.564453125 m 4
 468.932617188 249.014648438 l 5
 468.932617188 249.014648438 471.303710938 302.240234375 468.932617188 162.764648438 c 4
 466.923828125 44.66015625 368.024414062 -13.185546875 215.07421875 -20.021484375 c 4
 92.142578125 -25.515625 8.3349609375 8.4326171875 -4.576171875 132.864257812 c 260
 -9.2783203125 178.188476562 35.67578125 252.46484375 75.923828125 238.6640625 c 260
 151.60546875 212.716796875 241.1015625 214.948242188 241.1015625 245.564453125 c 260
 365.724609375 245.564453125 l 4
EndSplineSet
Fore
SplineSet
266.184570312 199.053710938 m 4
 266.184570312 157.860351562 295 135.803710938 320.556640625 135.803710938 c 4
 352.755859375 135.803710938 368 150 368 199.053710938 c 6
 368 564.6171875 l 6
 368 644.904296875 399.14453125 684.56640625 481.705078125 684.56640625 c 4
 547.040039062 684.56640625 597.924804688 661.00390625 598 573.603515625 c 6
 598 203.303710938 l 6
 598 52 502.640625 -7.08203125 335.603515625 -7.08203125 c 4
 114.784179688 -7.08203125 51 126.853515625 51 217.103515625 c 4
 51 303.995117188 71.7919921875 332.5625 161.954101562 332.5625 c 4
 233.625976562 332.5625 271.735351562 305.276367188 271.735351562 261.954101562 c 4
 271.735351562 241.966796875 266.184570312 217.044921875 266.184570312 199.053710938 c 4
EndSplineSet
EndChar

StartChar: K
Encoding: 43 75 69
GlifName: K_
Width: 721
Flags: W
HStem: -0.246094 21G<141.648 217.287 507.782 594.089> 259.654 150.65<300.796 405.736>
VStem: 65 231.15<42.5995 142.354 142.535 259.654 417.584 650.65> 433.1 231.15<32.4884 236.465 448.947 647.712>
LayerCount: 2
Back
Fore
SplineSet
528.549804688 329.002929688 m 5
 589.5 321.525390625 664.25 262.951171875 664.25 160.75390625 c 4
 664.25 27.3544921875 641.228515625 -0.24609375 546.950195312 -0.24609375 c 4
 468.61328125 -0.24609375 433.099609375 31.9541015625 433.099609375 98.654296875 c 4
 433.099609375 247.580078125 405.809570312 259.654296875 354.099609375 259.654296875 c 6
 300.75 259.654296875 l 5
 300.75 149.25390625 l 6
 300.75 38.8544921875 255.723632812 -0.24609375 178.849609375 -0.24609375 c 4
 104.446289062 -0.24609375 66.150390625 35.404296875 66.150390625 142.354492188 c 6
 66.150390625 142.354492188 65 390.75390625 65 558.654296875 c 4
 65 641.454101562 93.29296875 684.567382812 166.200195312 684.567382812 c 4
 237.783203125 684.567382812 296.150390625 672.50390625 296.150390625 575.904296875 c 4
 296.150390625 518.404296875 295 488.50390625 295 451.704101562 c 4
 295 427.5546875 314.646484375 410.3046875 355.25 410.3046875 c 4
 412.170898438 410.3046875 427.349609375 442.50390625 427.349609375 582.8046875 c 4
 427.349609375 650.654296875 460.864257812 684.567382812 544.650390625 684.567382812 c 4
 637.700195312 684.567382812 658.5 651.8046875 658.5 565.5546875 c 4
 658.5 407.491210938 590.650390625 336.634765625 528.549804688 329.002929688 c 5
EndSplineSet
EndChar

StartChar: P
Encoding: 48 80 70
GlifName: P_
Width: 700
VWidth: 0
Flags: W
HStem: 0 684.812<104.747 259.437> 205.804 131.266<303.364 359.738 359.757 390.294>
VStem: 61 242.266<48.1607 205.804 337.069 556.704> 429.085 230.915<375.203 529.409>
LayerCount: 2
Back
Fore
SplineSet
429.084960938 448.5 m 4x70
 429.084960938 546.201171875 389.28476844 556.704101562 303.099609375 556.704101562 c 0
 303.265625 337.069335938 l 1
 373.325038629 337.448242188 429.084960938 359.689453125 429.084960938 448.5 c 4x70
303.40625 150.303710938 m 3
 303.40625 38.8662109375 260.801757812 0 180.797851562 0 c 0
 102.174804688 0 61 32.201171875 61 142.657226562 c 0
 61 564.86328125 l 3
 61 651.669921875 115 684.8125 180.797851562 684.8125 c 27xb0
 250 684.8125 358.672851562 685.15234375 358.672851562 685.15234375 c 0
 532.583007812 685.15234375 660 590.576171875 660 433.901367188 c 0
 660 287.66796875 525.23828125 206.076171875 359.756835938 206.076171875 c 2
 359.756835938 206.076171875 333.748046875 205.948242188 303.364257812 205.803710938 c 1
 303.40625 150.303710938 l 3
EndSplineSet
EndChar

StartChar: R
Encoding: 50 82 71
GlifName: R_
Width: 720
Flags: W
HStem: 0 21G<136.738 212.266 515.749 594.978> 247.488 149.512<291 409.069> 570 114<290.691 414.21>
VStem: 60 230.801<48.9802 247.488 397 568.635> 442.389 226.611<39.6389 215.129> 444.354 214.465<429.019 541.908>
LayerCount: 2
Back
Fore
SplineSet
444.353515625 486.22265625 m 4xf4
 444.353515625 551.728573863 397.961861621 570 290.69140625 570 c 1
 290.80078125 397 l 1
 388.758887963 397 444.353515625 416.233514026 444.353515625 486.22265625 c 4xf4
291 150.303710938 m 2
 291 46 250.391601562 0 174.139648438 0 c 0
 99.3359375 0 60.58203125 32.203125 60 142.657226562 c 2
 60 564.86328125 l 2
 60 646 109.484375 684 174.139648438 684 c 2
 383.94140625 684 l 2
 548.880859375 684 658.818359375 599.200195312 658.818359375 478.524414062 c 0xf4
 658.818359375 389.651367188 623.969726562 339.630859375 539.232421875 315.668945312 c 1
 598.263671875 312.467773438 669 252.544921875 669 161 c 0
 669 26.4501953125 634.442382812 0 555.513671875 0 c 0
 475.984375 0 442.388671875 32.8857421875 442.388671875 99.3837890625 c 0xf8
 442.388671875 227.108398438 407.174234019 247.836914062 346.291015625 247.836914062 c 2
 291 247.48828125 l 1
 291 150.303710938 l 2
EndSplineSet
EndChar

StartChar: B
Encoding: 34 66 72
GlifName: B_
Width: 733
Flags: W
HStem: 0.790039 134.987<304 422.269> 308.777 103.53<304 416.102> 565.308 118.259<303.891 420.882>
VStem: 73 231<138.327 308.777 412.308 565.308> 444.553 204.447<439.309 542.462> 457.553 216.447<168.895 279.925>
LayerCount: 2
Back
Fore
SplineSet
444.552734375 491.530273438 m 4xf8
 444.552734375 549.217141808 402.085870317 565.307617188 303.890625 565.307617188 c 5
 304 412.307617188 l 5
 393.664829537 412.307617188 444.552734375 429.385455196 444.552734375 491.530273438 c 4xf8
457.552734375 225 m 4xf4
 457.552734375 290.505917613 411.161080371 308.77734375 303.890625 308.77734375 c 5
 304 135.77734375 l 5
 401.958106713 135.77734375 457.552734375 155.010857776 457.552734375 225 c 4xf4
581.12890625 355.818359375 m 1
 638.635055897 321.641601562 674 273.431640625 674 208.588867188 c 0xf4
 674 105.440429688 593.959960938 0.7900390625 418.672851562 0.7900390625 c 2
 187.020507812 0.7900390625 l 2
 108.397460938 0.7900390625 73 32.9931640625 73 143.447265625 c 2
 73 565.653320312 l 2
 73 632 119.131561009 685.424533656 187.020507812 685 c 2
 416.272460938 683.56640625 l 2
 546.118767104 682.649762726 648.99996036 606.564193668 649 491.530273438 c 0xf8
 649.000020655 430.612300942 624.23212769 386.843437942 581.12890625 355.818359375 c 1
EndSplineSet
EndChar

StartChar: S
Encoding: 51 83 73
GlifName: S_
Width: 698
Flags: W
HStem: -6.51953 167.271<221.471 487.463> 567.692 123.839<321.431 459.797>
VStem: 54.1807 258.169<479.553 560.106>
LayerCount: 2
Back
SplineSet
364.173828125 670.655273438 m 260
 166.900390625 670.655273438 30.3369140625 579.805664062 30.3369140625 463.146484375 c 260
 30.3369140625 387.407226562 63.193359375 326.163085938 147.973632812 280.805664062 c 260
 244.573242188 229.124023438 311.2734375 216.306640625 311.2734375 177.581054688 c 260
 311.2734375 125.825195312 224.551757812 151.291992188 186.438476562 162.484375 c 260
 141.831054688 175.583984375 111.651367188 199.657226562 87.3974609375 199.657226562 c 260
 47.1474609375 199.657226562 29.8427734375 174.009765625 29.8427734375 146.963867188 c 260
 29.8427734375 80.662109375 150.436523438 -20.1259765625 342.418945312 -20.1259765625 c 260
 599.709960938 -20.1259765625 694.25390625 101.2421875 694.25390625 197.383789062 c 260
 694.25390625 300.908203125 638.599609375 342.360351562 496.423828125 407.305664062 c 260
 403.2734375 449.85546875 372.223632812 467.10546875 381.423828125 504.194335938 c 260
 390.491210938 540.748046875 452.723632812 541.85546875 507.923828125 515.405273438 c 260
 541.215820312 499.452148438 599.106445312 460.53125 623.360351562 460.53125 c 260
 648.477539062 460.53125 667.797851562 470.619140625 667.797851562 513.224609375 c 260
 667.797851562 575.692382812 558.22265625 670.655273438 364.173828125 670.655273438 c 260
EndSplineSet
Fore
SplineSet
342 691.53125 m 0
 509.305664062 691.53125 629.595703125 608.063476562 629.595703125 538.581054688 c 0
 629.595703125 508.567382812 606.260742188 493.521484375 586.73046875 493.521484375 c 0
 540.529871536 493.521484375 459.103488337 567.692382812 371 567.692382812 c 0
 336.214843751 567.692382812 312.349609375 556.327148438 312.349609375 520.180664062 c 0
 312.349609375 467.9921875 405.16796875 435.536132812 507 376 c 1
 613.869140625 316.01953125 646.48046875 266.540039062 646.48046875 200.48046875 c 0
 646.48046875 104.338867188 601.315429688 -6.51953125 367.78125 -6.51953125 c 0
 177.3515625 -6.51953125 43 94.6376953125 43 160.939453125 c 0
 43 187.985351562 60.3046875 213.6328125 100.5546875 213.6328125 c 0
 152.152302211 213.6328125 242.256068477 160.751953125 330.150390625 160.751953125 c 0
 355.26953125 160.751953125 375 168.95703125 375 192.430664062 c 0
 375 233.584960938 317.504802762 246.577984897 168 332 c 0
 91.75390625 375.564453125 54.1806640625 451.405273438 54.1806640625 502 c 4
 54.1806640625 610 152.954101562 691.53125 342 691.53125 c 0
EndSplineSet
EndChar

StartChar: V
Encoding: 54 86 74
GlifName: V_
Width: 752
Flags: W
HStem: -6.51953 169.163<310.926 434.24>
VStem: 43.7051 245.373<200.465 597.668> 453.627 245.373<199.337 603.201>
LayerCount: 2
Back
Fore
SplineSet
372.252929688 162.643554688 m 4
 443.393554688 162.643554688 453.626953125 200.392578125 453.626953125 278.162109375 c 4
 453.626953125 347.532226562 455.013671875 476.806640625 455.013671875 581.55078125 c 4
 455.013671875 650.013671875 482.993164062 683.869140625 568.314453125 683.869140625 c 4
 674.1640625 683.869140625 699 625.569335938 699 335.569335938 c 4
 699 78.1181640625 508.887695312 -6.51953125 374.135742188 -6.51953125 c 4
 238.526367188 -6.51953125 43.705078125 78.1181640625 43.705078125 335.569335938 c 4
 43.705078125 625.569335938 71.736328125 683.869140625 185.890625 683.869140625 c 4
 262.553710938 683.869140625 287.69140625 650.013671875 287.69140625 581.55078125 c 4
 287.69140625 476.612304688 289.078125 347.100585938 289.078125 279.220703125 c 4
 289.078125 203.756835938 295.186523438 162.643554688 372.252929688 162.643554688 c 4
EndSplineSet
EndChar

StartChar: N
Encoding: 46 78 75
GlifName: N_
Width: 773
VWidth: 0
Flags: W
HStem: -0.24707 21G<124.713 177.944 572.321 637.816>
VStem: 67 163<20.2768 301.616> 545.286 160.395<380.143 661.616>
LayerCount: 2
Back
Fore
SplineSet
706 95.0205078125 m 4
 705.963867188 37.6416015625 671.6328125 -0.24609375 604 -0.24609375 c 7
 540.641601562 -0.24609375 484.611328125 62.33984375 413 129 c 4
 307.276367188 230.05859375 230 301.616210938 230 301.616210938 c 5
 230 84.853515625 l 6
 230 16 202.938476562 -0.2470703125 152.950195312 -0.2470703125 c 4
 96.4755859375 -0.2470703125 67 22.7548828125 67 87.1533203125 c 6
 67 570.3671875 l 6
 67 647.997070312 109.33203125 684.56640625 178.861328125 684.56640625 c 4
 229.94140625 684.56640625 252.38671875 670.305664062 291.561523438 632.252929688 c 4
 451.453125 480 545.286132812 380.142578125 545.286132812 380.142578125 c 5
 545.434570312 598 l 6
 545.474609375 656.575195312 577.38671875 684.002929688 624.861328125 684.002929688 c 4
 681.440429688 684.002929688 705.641601562 659.817382812 705.680664062 598.903320312 c 6
 706 95.0205078125 l 4
EndSplineSet
EndChar

StartChar: U
Encoding: 53 85 76
GlifName: U_
Width: 737
Flags: W
HStem: -5.68359 168.6<307.578 426.352>
VStem: 58 230.589<181.92 637.35> 442.913 231.087<184.702 647.215>
LayerCount: 2
Back
Fore
SplineSet
673.857421875 564.6171875 m 6
 674 267 l 6
 674 74 590.267578125 -5.68359375 366 -5.68359375 c 4
 150.393554688 -5.68359375 58 86.9052734375 58 267 c 6
 58 565.4921875 l 6
 58 636 105.638671875 684.56640625 168.666015625 684.56640625 c 4
 236.890625 684.56640625 288.588867188 670.766601562 288.588867188 573.603515625 c 6
 288.588867188 247.56640625 l 6
 290.692382812 182.530273438 318.055664062 162.916015625 366 162.916015625 c 4
 435.420898438 162.916015625 442.913085938 201.069335938 442.913085938 247.56640625 c 6
 442.913085938 574.6328125 l 6
 442.913085938 670.421875 495.314453125 684.56640625 557.922851562 684.56640625 c 4
 633.021484375 684.56640625 673.815429688 652.358398438 673.857421875 564.6171875 c 6
EndSplineSet
EndChar

StartChar: D
Encoding: 36 68 77
GlifName: D_
Width: 720
VWidth: 0
Flags: W
HStem: 0 135.556<298.829 374.965> 544.933 139.317<298.55 375.83>
VStem: 68 230.829<137.537 544.933> 433.596 240.404<207.121 474.949>
LayerCount: 2
Back
Fore
SplineSet
298.829101562 135.555664062 m 1
 381.1640625 135.555664062 433.595703125 178.204101562 433.595703125 349.599609375 c 4
 433.595703125 508.41015625 377.8046875 543.630859375 298.549804688 544.932617188 c 1
 298.829101562 135.555664062 l 1
328.895507812 684.25 m 2
 534.45703125 684.25 674 558.849609375 674 346.150390625 c 4
 674 181.606445312 598.544921875 0 379.095703125 0 c 2
 181.990234375 0 l 2
 103.366210938 0 68.58203125 32.203125 68 142.657226562 c 2
 68 564.86328125 l 2
 68 654 114.098632812 684.25 181.990234375 684.25 c 2
 328.895507812 684.25 l 2
EndSplineSet
EndChar

StartChar: M
Encoding: 45 77 78
GlifName: M_
Width: 949
VWidth: 0
Flags: W
VStem: 67.2275 160.489<18.269 95.7666>
LayerCount: 2
Back
Fore
SplineSet
657.118164062 366.016601562 m 1
 657.118164062 366.016601562 657.020507812 198.602539062 657.020507812 103.81640625 c 0
 657.020507812 24.466796875 707.07421875 0.31640625 759.518554688 0.31640625 c 0
 821.535042412 0.31640625 883.766093662 19.6376953125 884.19140625 99.216796875 c 6
 884.19140625 99.216796875 886.418945312 349.6484375 886.418945312 533.916015625 c 4
 886.418945312 640.67578125 827.265196731 685.6328125 738.505859375 685.6328125 c 0
 674.806640625 685.6328125 631.865234375 664.017578125 605.868164062 614.416015625 c 0
 535.418945312 480 463.96875 326 463.96875 326 c 1
 463.96875 326 385.129882812 511.114257812 329.518554688 619.016601562 c 0
 311.765625 653.462890625 285.391601562 686.6328125 218.505859375 686.6328125 c 0
 104.158203125 686.6328125 65 630.883789062 65 531.616210938 c 0
 65 347.662109375 67.2275390625 95.7666015625 67.2275390625 95.7666015625 c 2
 67.6337890625 16.1875 95.01171875 0.31640625 149.958007812 0.31640625 c 0
 200.697265625 0.31640625 227.716796875 23.85546875 227.716796875 83.1162109375 c 0
 227.716796875 160.422851562 227.618164062 366.016601562 227.618164062 366.016601562 c 2
 227.618164062 366.016601562 289.439453125 248.868164062 344.418945312 155 c 0
 385.418945312 85 408.418945312 50.916015625 455.418945312 50.916015625 c 0
 488.418945312 50.916015625 510.383789062 66.5087890625 532.418945312 110 c 0
 608.418945312 260 657.118164062 366.016601562 657.118164062 366.016601562 c 1
EndSplineSet
EndChar

StartChar: C
Encoding: 35 67 79
GlifName: C_
Width: 783
Flags: W
HStem: -6.51953 188.905<388.66 539.95> 547.98 143.477<360.092 449.562>
VStem: 51.1895 252.961<271.586 473.277> 462.846 235.26<437.062 536.207>
LayerCount: 2
Back
SplineSet
457.845703125 497.106445312 m 4
 457.845703125 524.454101562 434.076171875 547.98046875 403.947265625 547.98046875 c 4
 349.073242188 547.98046875 314.150390625 458.883789062 314.150390625 373.965820312 c 4
 314.150390625 276.997070312 374.27734375 202.385742188 470.385742188 202.385742188 c 4
 578.900390625 202.385742188 627.095703125 274.501953125 678.950195312 274.501953125 c 4
 710.518554688 274.501953125 733 244.702148438 733 220.78515625 c 4
 733 156.022460938 624.575195312 -6.51953125 416.051757812 -6.51953125 c 4
 208.55859375 -6.51953125 51.189453125 118.650390625 51.189453125 340.970703125 c 4
 51.189453125 559.62109375 195.591796875 691.45703125 402.251953125 691.45703125 c 4
 564.46875 691.45703125 698.10546875 600.33203125 698.10546875 483.767578125 c 4
 698.10546875 403.181640625 638.688476562 310.732421875 539.799804688 310.732421875 c 4
 487.619140625 310.732421875 426.036132812 337.229492188 426.036132812 395.90625 c 4
 426.036132812 432.337890625 457.845703125 467.950195312 457.845703125 497.106445312 c 4
EndSplineSet
Fore
SplineSet
462.845703125 497.106445312 m 4
 462.845703125 524.454101562 436.87109375 547.98046875 403.947265625 547.98046875 c 4
 342.961914062 547.98046875 304.150390625 456.8359375 304.150390625 369.965820312 c 4
 304.150390625 263.955078125 368.125976562 182.385742188 470.385742188 182.385742188 c 4
 578.900390625 182.385742188 627.095703125 274.501953125 678.950195312 274.501953125 c 4
 710.518554688 274.501953125 733 244.702148438 733 220.78515625 c 4
 733 156.022460938 624.575195312 -6.51953125 416.051757812 -6.51953125 c 4
 208.55859375 -6.51953125 51.189453125 118.650390625 51.189453125 340.970703125 c 4
 51.189453125 559.62109375 195.591796875 691.45703125 402.251953125 691.45703125 c 4
 564.46875 691.45703125 698.10546875 600.33203125 698.10546875 483.767578125 c 4
 698.10546875 403.181640625 638.688476562 310.732421875 539.799804688 310.732421875 c 4
 489.912109375 310.732421875 431.036132812 337.229492188 431.036132812 395.90625 c 4
 431.036132812 432.337890625 462.845703125 467.950195312 462.845703125 497.106445312 c 4
EndSplineSet
EndChar

StartChar: G
Encoding: 39 71 80
GlifName: G_
Width: 782
Flags: W
HStem: -6.51953 155.342<366.498 468.672> 201.957 133<421.426 481.181> 547.98 143.477<360.107 449.655>
VStem: 51.0576 257.513<223.657 473.458> 452.03 253.994<454.713 542.553>
LayerCount: 2
Back
SplineSet
447.4296875 483.200195312 m 7
 447.4296875 510.547851562 428.224609375 534.07421875 403.881835938 534.07421875 c 260
 349.0078125 534.07421875 314.084960938 444.977539062 314.084960938 360.059570312 c 260
 314.084960938 270.240234375 374.211914062 201.12890625 470.3203125 201.12890625 c 260
 578.833984375 201.12890625 627.030273438 260.595703125 678.884765625 260.595703125 c 7
 710.453125 260.595703125 732.934570312 230.795898438 732.934570312 206.87890625 c 260
 732.934570312 142.116210938 624.509765625 -20.42578125 415.986328125 -20.42578125 c 260
 208.493164062 -20.42578125 51.1240234375 104.744140625 51.1240234375 327.064453125 c 260
 51.1240234375 545.71484375 195.526367188 677.55078125 402.185546875 677.55078125 c 260
 565.034179688 677.55078125 699.190429688 586.42578125 699.190429688 469.861328125 c 260
 699.190429688 389.275390625 635.45703125 296.826171875 529.384765625 296.826171875 c 7
 477.203125 296.826171875 415.62109375 323.323242188 415.62109375 382 c 7
 415.62109375 418.431640625 447.4296875 454.043945312 447.4296875 483.200195312 c 7
EndSplineSet
Fore
SplineSet
452.030273438 516.65625 m 0
 452.030273438 535.056640625 442.955078125 547.98046875 410.715820312 547.98046875 c 0
 363.764648438 547.98046875 308.5703125 505.033203125 308.5703125 344.15625 c 0
 308.5703125 195.806640625 371.880859375 148.822265625 425.120117188 148.822265625 c 0
 454.966796875 148.822265625 481.180664062 167.369306456 481.180664062 201.95703125 c 1
 431.708007812 201.95703125 405.5703125 231.461112741 405.5703125 262.506835938 c 0
 405.5703125 308.506835938 426.15625 334.95703125 489.51953125 334.95703125 c 2
 610.7109375 334.95703125 l 2
 680.740234375 334.95703125 733 311.15162524 733 221.90625 c 0
 733 100.439267041 598 -6.51953125 436 -6.51953125 c 4
 215.375943755 -6.51953125 51.0576171875 118.650390625 51.0576171875 340.970703125 c 0
 51.0576171875 559.62109375 195.950195312 691.45703125 409.01953125 691.45703125 c 0
 627.325195312 691.45703125 706.024414062 606.356445312 706.024414062 517.806640625 c 0
 706.024414062 474.006835938 681.848632812 407.40625 554.3203125 407.40625 c 0
 465.76953125 407.40625 452.030273438 422.428710938 452.030273438 516.65625 c 0
EndSplineSet
EndChar

StartChar: Q
Encoding: 49 81 81
GlifName: Q_
Width: 805
Flags: W
HStem: -250.309 390.117<368.432 658.709> -250.309 203.55<549.793 713.158> 543.277 146.947<356.793 450.764>
VStem: 51.5098 247.945<215.029 462.85> 506.196 246.804<208.336 463.123>
LayerCount: 2
Back
Fore
SplineSet
670.208984375 -46.7587890625 m 4x78
 720.744140625 -49.32421875 746.848632812 -74.3583984375 746.848632812 -144.508789062 c 4
 746.848632812 -231.909179688 692.059570312 -250.30859375 625.359375 -250.30859375 c 4xb8
 472.405273438 -250.30859375 417.200195312 -188.208984375 362.009765625 -97.3583984375 c 4
 338.477539062 -58.6220703125 328.692382812 -27.9169921875 324.62890625 0.8583984375 c 5
 168.05078125 30.3359375 51.509765625 148.782226562 51.509765625 337.340820312 c 4
 51.509765625 558.108398438 202.193359375 690.224609375 403.979492188 690.224609375 c 4
 605.629882812 690.224609375 753 558.108398438 753 337.340820312 c 4
 753 156.780273438 648.38671875 40.509765625 502.701171875 5.087890625 c 5
 539.948242188 -36.08984375 616.1640625 -44.015625 670.208984375 -46.7587890625 c 4x78
506.196289062 337.340820312 m 4
 506.196289062 435.337890625 472.71875 543.27734375 403.979492188 543.27734375 c 4
 334.5078125 543.27734375 299.455078125 433.993164062 299.455078125 337.340820312 c 4
 299.455078125 241.604492188 332.883789062 139.80859375 403.979492188 139.80859375 c 4
 476.615234375 139.80859375 506.196289062 240.270507812 506.196289062 337.340820312 c 4
EndSplineSet
EndChar

StartChar: W
Encoding: 55 87 82
GlifName: W_
Width: 1020
VWidth: 0
Flags: W
HStem: -4.23926 161.163<320.623 396.413 626.332 699.729>
VStem: 52 245.373<220.126 605.667> 393.386 236.31<158.347 619.637> 722.258 246.523<221.887 607.428>
LayerCount: 2
Back
Fore
SplineSet
663.184570312 156.923828125 m 0
 709.581054688 156.923828125 722.2578125 216.077148438 722.2578125 337.943359375 c 0
 722.2578125 393.9375 723.645507812 498.28515625 723.645507812 582.83203125 c 0
 723.645507812 651.294921875 753.043945312 685.150390625 842.696289062 685.150390625 c 0
 937.444335938 685.150390625 968.78125 632.283203125 968.78125 371.811523438 c 0
 968.78125 88.3701171875 795.969726562 -4.2392578125 676.56640625 -4.2392578125 c 0
 625.244140625 -4.2392578125 565.626953125 12.3935546875 513.962890625 53.1357421875 c 1
 462.541015625 11.1123046875 402.690429688 -6 350.930664062 -6 c 0
 229.600585938 -6 52 86.609375 52 370.049804688 c 4
 52 630.521484375 83.119140625 683.389648438 176.935546875 683.389648438 c 4
 266.588867188 683.389648438 295.986328125 649.534179688 295.986328125 581.0703125 c 4
 295.986328125 496.4375 297.373046875 391.985351562 297.373046875 337.240234375 c 4
 297.373046875 219.376953125 307.377929688 155.163085938 360.547851562 155.163085938 c 0
 392.004882812 155.163085938 404.017578125 180.61328125 408.561523438 232.518554688 c 1
 398.8359375 269.984375 393.385742188 366.474609375 393.385742188 414.361328125 c 0
 393.385742188 631.377929688 410.778320312 662.150390625 507.794921875 662.150390625 c 0
 627.592773438 662.150390625 629.6953125 610.971679688 629.6953125 412.600585938 c 0
 629.6953125 363.0234375 623.962890625 265.234375 613.76953125 226.807617188 c 1
 618.591796875 181.028320312 631.041992188 156.923828125 663.184570312 156.923828125 c 0
EndSplineSet
EndChar

StartChar: Z
Encoding: 58 90 83
GlifName: Z_
Width: 757
VWidth: 0
Flags: W
HStem: 0 161.591<315.045 676.43> 522 162.566<93.9201 397.145>
LayerCount: 2
Back
Fore
SplineSet
598.958984375 161.952148438 m 4
 679.458984375 161.952148438 700.8671875 136.973632812 700.8671875 82.6083984375 c 0
 700.8671875 11.087890625 656.515625 0 557.743164062 0 c 0
 465.638761248 0 260.444542758 0 183.497070312 0 c 0
 127.355280053 0 59.984375 55.271484375 59.984375 125.47265625 c 0
 59.984375 204.018554688 83.378099994 227.953271176 141.672851562 290.37109375 c 0
 397.14453125 522.438476562 l 1
 357.447834411 522 232.604158232 522 194 522 c 0
 106.405770631 522 67.0732421875 544.922347586 67.0732421875 606.6796875 c 0
 67.0732421875 668.457840116 105.764445605 684.521831291 164 684.56640625 c 0
 572.943359375 685 l 0
 657.951167607 684.973063209 685 618.610351562 685 585.067382812 c 0
 685 499.01953125 661.835858308 487.653953554 607.0078125 431.360351562 c 4
 315.044921875 161.590820312 l 5
 598.958984375 161.952148438 l 4
EndSplineSet
EndChar

StartChar: Y
Encoding: 57 89 84
GlifName: Y_
Width: 711
VWidth: 0
Flags: W
HStem: 0 21G<314.558 390.461>
VStem: 239.329 230.64<46.2955 300.492>
LayerCount: 2
Back
Fore
SplineSet
469.96875 150.303710938 m 2
 470.114257812 38.8662109375 428.961914062 0 351.959960938 0 c 0
 277.155273438 0 240.345703125 32.205078125 239.329101562 142.657226562 c 2
 237.834960938 305.060546875 l 1
 83.568359375 484.791015625 l 2
 57.6669921875 514.967773438 42 541.083984375 42 568.099609375 c 0
 42 599.77734375 54.7099609375 632.920898438 84.0341796875 654.890625 c 0
 106.778320312 671.930664062 129.659179688 684.659179688 154.868164062 684.659179688 c 0
 178.458007812 684.659179688 205.879882812 675.594726562 231.717773438 645.649414062 c 2
 354.301757812 503.579101562 l 1
 455.803710938 623.443359375 l 2
 493.56640625 668.038085938 532.81640625 684.129882812 565.418945312 684.129882812 c 0
 588.779296875 684.129882812 612.279296875 679.530273438 631.53125 660.27734375 c 0
 658.008789062 633.798828125 673.016601562 608.485351562 673.016601562 580.75 c 0
 673.016601562 550.250976562 651.02734375 520.12109375 614.364257812 475.6953125 c 2
 469.772460938 300.4921875 l 1
 469.96875 150.303710938 l 2
EndSplineSet
EndChar

StartChar: X
Encoding: 56 88 85
GlifName: X_
Width: 764
Flags: W
HStem: 0 20.4697G<160.02 190.033 582.837 609.283>
LayerCount: 2
Back
Fore
SplineSet
232.702148438 340.400390625 m 5
 96.2021484375 473.411132812 l 6
 69.109375 501.8984375 54.6337890625 529.704101562 54.6337890625 556.719726562 c 4
 54.6337890625 588.3984375 69.3447265625 619.09765625 96.66796875 643.51171875 c 4
 123.104492188 667.133789062 149.701171875 684.780273438 179.001953125 684.780273438 c 4
 202.591796875 684.780273438 230.494140625 676.11328125 255.8515625 645.76953125 c 6
 384.184570312 482.200195312 l 5
 490.287109375 623.563476562 l 6
 526.993164062 669.008789062 567.299804688 684.25 599.90234375 684.25 c 4
 627.327148438 684.25 653.448242188 672.962890625 677.514648438 648.897460938 c 4
 703.993164062 622.419921875 719 597.106445312 719 569.370117188 c 4
 719 538.87109375 700.1796875 505.4921875 660.34765625 464.315429688 c 6
 541.602539062 351.900390625 l 5
 677.431640625 210.838867188 l 6
 703.80859375 181.268554688 719 154.545898438 719 127.530273438 c 4
 719 95.8515625 704.2890625 65.15234375 676.965820312 40.73828125 c 4
 650.529296875 17.1162109375 623.934570312 -0.5302734375 594.631835938 -0.5302734375 c 4
 571.041992188 -0.5302734375 542.806640625 7.8623046875 517.782226562 38.48046875 c 6
 389.44921875 205.5 l 5
 283.346679688 60.6865234375 l 6
 247.21875 14.783203125 206.333984375 0 173.731445312 0 c 4
 146.307617188 0 120.548828125 12.072265625 96.119140625 36.501953125 c 4
 69.640625 62.98046875 54.6337890625 88.2939453125 54.6337890625 116.030273438 c 4
 54.6337890625 146.528320312 74.4228515625 178.705078125 113.286132812 221.083984375 c 6
 232.702148438 340.400390625 l 5
EndSplineSet
EndChar

StartChar: exclam
Encoding: 1 33 88
GlifName: exclam
Width: 349
VWidth: 0
Flags: W
HStem: -6.51953 151.982<91.3897 262.821> 185.421 506<112.994 235.598>
VStem: 62.5293 229.04<21.222 119.88 414.868 665.572> 96.3496 156.4<201.873 434.16>
LayerCount: 2
Back
Fore
SplineSet
62.529296875 69.3798828125 m 0xe0
 62.529296875 126.568359375 117.661132812 145.462890625 173.119140625 145.462890625 c 0
 238.942382812 145.462890625 291.569335938 129.515625 291.569335938 69.3798828125 c 0
 291.569335938 17.7626953125 245.26953125 -6.51953125 173.119140625 -6.51953125 c 0
 101.950195312 -6.51953125 62.529296875 26.23828125 62.529296875 69.3798828125 c 0xe0
293 601.984375 m 0
 293 663.821289062 260.372070312 691.420898438 169.197265625 691.420898438 c 0
 77.8623046875 691.420898438 56.099609375 652.321289062 56.099609375 590.912109375 c 0
 56.099609375 494.756835938 96.349609375 362.9296875 96.349609375 266.546875 c 0
 96.349609375 211.576171875 113.830078125 185.420898438 172.041992188 185.420898438 c 0
 229.28125 185.420898438 252.75 209.40234375 252.75 263.62109375 c 0xd0
 252.75 361.780273438 293 500.694335938 293 601.984375 c 0
EndSplineSet
EndChar

StartChar: exclamdown
Encoding: 103 161 89
GlifName: exclamdown
Width: 341
VWidth: 0
Flags: W
HStem: -6.51953 506<114.685 220.922> 539.438 151.982<84.8204 256.252>
VStem: 55.96 229.04<565.022 663.679> 61.0303 215.051<19.3289 258.864> 101.28 134.551<250.741 485.186>
LayerCount: 2
Back
Fore
SplineSet
55.9599609375 615.521484375 m 0xe0
 55.9599609375 558.333007812 111.091796875 539.438476562 166.549804688 539.438476562 c 0
 232.373046875 539.438476562 285 555.385742188 285 615.521484375 c 0
 285 667.138671875 238.700195312 691.420898438 166.549804688 691.420898438 c 0
 95.380859375 691.420898438 55.9599609375 658.663085938 55.9599609375 615.521484375 c 0xe0
276.081054688 82.9169921875 m 0xd0
 276.081054688 21.080078125 246.180664062 -6.51953125 162.627929688 -6.51953125 c 0
 80.5810546875 -6.51953125 61.0302734375 32.580078125 61.0302734375 93.9892578125 c 0xd0
 61.0302734375 190.14453125 101.280273438 321.971679688 101.280273438 418.354492188 c 0
 101.280273438 473.325195312 116.104492188 499.48046875 165.47265625 499.48046875 c 0
 215.372070312 499.48046875 235.831054688 475.499023438 235.831054688 421.280273438 c 0xc8
 235.831054688 323.12109375 276.081054688 184.20703125 276.081054688 82.9169921875 c 0xd0
EndSplineSet
EndChar

StartChar: question
Encoding: 31 63 90
GlifName: question
Width: 577
VWidth: 0
Flags: W
HStem: -6.51953 151.982<171.14 342.571> 586.078 105.343<240.834 298.039>
VStem: 23.5635 216.345<507.033 585.074> 142.279 229.04<21.222 119.88> 320.75 205.25<410.074 564.875>
LayerCount: 2
Back
SplineSet
514.25 490.634765625 m 260
 514.25 610.848632812 421.23828125 670.6484375 256.908203125 670.6484375 c 260
 94.095703125 670.6484375 31.3642578125 619.170898438 31.3642578125 546.943359375 c 260
 31.3642578125 507.369140625 64.1923828125 439.505859375 176.899414062 439.505859375 c 260
 219.515625 439.505859375 254.904296875 444.086914062 254.904296875 491.354492188 c 260
 254.904296875 513.701171875 239.658203125 533.057617188 239.658203125 546.28125 c 260
 239.658203125 561.109375 245.342773438 571.055664062 265.532226562 571.055664062 c 260
 299.123046875 571.055664062 320.5 521.3203125 320.5 473.916015625 c 260
 320.5 390.501953125 208.0546875 310.802734375 195.120117188 231.348632812 c 260
 187.069335938 181.8984375 213.51953125 164.6484375 259.311523438 164.6484375 c 260
 309.2109375 164.6484375 318.79296875 187.93359375 338.870117188 226.748046875 c 260
 356.120117188 260.098632812 381.419921875 295.748046875 412.469726562 322.198242188 c 4
 465.467773438 367.344726562 514.25 429.1484375 514.25 490.634765625 c 260
142.030273438 55.5068359375 m 260
 142.030273438 112.6953125 197.161132812 131.58984375 252.620117188 131.58984375 c 260
 318.442382812 131.58984375 371.069335938 115.642578125 371.069335938 55.5068359375 c 260
 371.069335938 3.8896484375 324.76953125 -20.392578125 252.620117188 -20.392578125 c 260
 181.451171875 -20.392578125 142.030273438 12.365234375 142.030273438 55.5068359375 c 260
EndSplineSet
Fore
SplineSet
142.279296875 69.3798828125 m 0xd0
 142.279296875 126.568359375 197.411132812 145.462890625 252.869140625 145.462890625 c 0
 318.692382812 145.462890625 371.319335938 129.515625 371.319335938 69.3798828125 c 0
 371.319335938 17.7626953125 325.01953125 -6.51953125 252.869140625 -6.51953125 c 0
 181.701171875 -6.51953125 142.279296875 26.23828125 142.279296875 69.3798828125 c 0xd0
526 511.408203125 m 0xe8
 526 631.62109375 428.83203125 691.420898438 257.158203125 691.420898438 c 0
 88.53515625 691.420898438 23.5634765625 639.944335938 23.5634765625 567.716796875 c 0
 23.5634765625 526.024414062 56.392578125 454.529296875 169.098632812 454.529296875 c 0
 216.11328125 454.529296875 255.153320312 459.110351562 255.153320312 506.377929688 c 0
 255.153320312 528.724609375 239.908203125 548.081054688 239.908203125 561.303710938 c 0
 239.908203125 576.1328125 245.591796875 586.078125 265.782226562 586.078125 c 0
 299.372070312 586.078125 320.75 536.342773438 320.75 488.939453125 c 0
 320.75 366.110351562 186.920898438 308.412109375 186.920898438 230.271484375 c 0
 186.920898438 192.298828125 214.450195312 178.521484375 259.561523438 178.521484375 c 0
 338.401367188 178.521484375 526 327.663085938 526 511.408203125 c 0xe8
EndSplineSet
EndChar

StartChar: questiondown
Encoding: 133 191 91
GlifName: questiondown
Width: 583
VWidth: 0
Flags: W
HStem: -7.39258 105.343<255.271 312.476> 538.565 151.982<185.576 357.008>
VStem: 38 216.345<98.9538 176.995> 156.716 229.04<564.148 662.806> 335.187 205.25<119.153 273.954>
LayerCount: 2
Back
Fore
SplineSet
156.715820312 614.6484375 m 0xd0
 156.715820312 557.459960938 211.84765625 538.565429688 267.305664062 538.565429688 c 0
 333.12890625 538.565429688 385.755859375 554.512695312 385.755859375 614.6484375 c 0
 385.755859375 666.265625 339.456054688 690.547851562 267.305664062 690.547851562 c 0
 196.137695312 690.547851562 156.715820312 657.790039062 156.715820312 614.6484375 c 0xd0
540.436523438 172.620117188 m 0xe8
 540.436523438 52.4072265625 443.268554688 -7.392578125 271.594726562 -7.392578125 c 0
 102.971679688 -7.392578125 38 44.083984375 38 116.311523438 c 0
 38 158.00390625 70.8291015625 229.499023438 183.53515625 229.499023438 c 0
 230.549804688 229.499023438 269.58984375 224.91796875 269.58984375 177.650390625 c 0
 269.58984375 155.303710938 254.344726562 135.947265625 254.344726562 122.724609375 c 0
 254.344726562 107.895507812 260.028320312 97.9501953125 280.21875 97.9501953125 c 0
 313.80859375 97.9501953125 335.186523438 147.685546875 335.186523438 195.088867188 c 0
 335.186523438 317.91796875 201.357421875 375.616210938 201.357421875 453.756835938 c 0
 201.357421875 491.729492188 228.88671875 505.506835938 273.998046875 505.506835938 c 0
 352.837890625 505.506835938 540.436523438 356.365234375 540.436523438 172.620117188 c 0xe8
EndSplineSet
EndChar

StartChar: quoteleft
Encoding: 463 8216 92
GlifName: quoteleft
Width: 330
VWidth: 0
Flags: W
HStem: 376.343 151.983<164.788 245.55>
VStem: 43.2324 230.189<409.269 502.143>
LayerCount: 2
Back
Fore
SplineSet
273.421875 452.243164062 m 4
 273.421875 509.430664062 220.590820313 528.326171875 165.131835938 528.326171875 c 4
 165.017578125 528.326171875 164.903320313 528.326171875 164.788085938 528.326171875 c 5
 188.03125 564.473632812 210.525390625 579.702148438 268.4140625 608.01953125 c 4
 280.681640625 614.020507813 283 626.737304688 283 636.42578125 c 4
 283 657.842773438 267.819335938 673.31640625 244.482421875 673.31640625 c 4
 183.9453125 673.31640625 43.232421875 605.8828125 43.232421875 471.9765625 c 4
 43.232421875 398.018554688 101.7890625 376.342773438 165.131835938 376.342773438 c 4
 236.30078125 376.342773438 273.421875 409.1015625 273.421875 452.243164062 c 4
EndSplineSet
EndChar

StartChar: quoteright
Encoding: 464 8217 93
GlifName: quoteright
Width: 330
VWidth: 0
Flags: W
HStem: 521.333 151.983<80.682 161.444>
VStem: 52.8105 230.189<547.516 640.39>
LayerCount: 2
Back
Fore
SplineSet
52.810546875 597.416015625 m 4
 52.810546875 540.228515625 105.641601562 521.333007812 161.100585938 521.333007812 c 4
 161.21484375 521.333007812 161.329101562 521.333007812 161.444335938 521.333007812 c 5
 138.201171875 485.185546875 115.70703125 469.95703125 57.818359375 441.639648438 c 4
 45.55078125 435.638671875 43.232421875 422.921875 43.232421875 413.233398438 c 4
 43.232421875 391.81640625 58.4130859375 376.342773438 81.75 376.342773438 c 4
 142.287109375 376.342773438 283 443.776367188 283 577.682617188 c 4
 283 651.640625 224.443359375 673.31640625 161.100585938 673.31640625 c 4
 89.931640625 673.31640625 52.810546875 640.557617188 52.810546875 597.416015625 c 4
EndSplineSet
EndChar

StartChar: quotedblleft
Encoding: 466 8220 94
GlifName: quotedblleft
Width: 609
VWidth: 0
Flags: W
HStem: 376.343 151.983<168.338 249.1 447.788 528.55>
VStem: 46.7812 230.19<409.269 502.143> 326.231 230.189<409.269 502.143>
LayerCount: 2
Back
Fore
SplineSet
556.420898438 452.243164062 m 0
 556.420898438 509.430664062 503.58984375 528.326171875 448.131835938 528.326171875 c 0
 448.016601562 528.326171875 447.90234375 528.326171875 447.788085938 528.326171875 c 1
 471.030273438 564.473632812 493.524414062 579.69921875 551.4140625 608.01953125 c 0
 563.680664062 614.020507812 566 626.737304688 566 636.42578125 c 0
 566 657.842773438 550.818359375 673.31640625 527.481445312 673.31640625 c 0
 466.944335938 673.31640625 326.231445312 605.8828125 326.231445312 471.9765625 c 0
 326.231445312 398.018554688 384.788085938 376.342773438 448.131835938 376.342773438 c 0
 519.299804688 376.342773438 556.420898438 409.1015625 556.420898438 452.243164062 c 0
276.971679688 452.243164062 m 0
 276.971679688 509.430664062 224.139648438 528.326171875 168.681640625 528.326171875 c 0
 168.56640625 528.326171875 168.452148438 528.326171875 168.337890625 528.326171875 c 1
 191.581054688 564.473632812 214.07421875 579.69921875 271.963867188 608.01953125 c 0
 284.23046875 614.020507812 286.549804688 626.737304688 286.549804688 636.42578125 c 0
 286.549804688 657.842773438 271.368164062 673.31640625 248.03125 673.31640625 c 0
 187.495117188 673.31640625 46.78125 605.8828125 46.78125 471.9765625 c 0
 46.78125 398.018554688 105.337890625 376.342773438 168.681640625 376.342773438 c 0
 239.850585938 376.342773438 276.971679688 409.1015625 276.971679688 452.243164062 c 0
EndSplineSet
EndChar

StartChar: quotedblright
Encoding: 467 8221 95
GlifName: quotedblright
Width: 609
VWidth: 0
Flags: W
HStem: 521.333 151.983<80.2317 160.993 359.681 440.443>
VStem: 52.3604 230.189<547.516 640.39> 331.81 230.19<547.516 640.39>
LayerCount: 2
Back
Fore
SplineSet
52.3603515625 597.416015625 m 0
 52.3603515625 540.228515625 105.19140625 521.333007812 160.649414062 521.333007812 c 0
 160.764648438 521.333007812 160.87890625 521.333007812 160.993164062 521.333007812 c 1
 137.750976562 485.185546875 115.256835938 469.959960938 57.3671875 441.639648438 c 0
 45.1005859375 435.638671875 42.78125 422.921875 42.78125 413.233398438 c 0
 42.78125 391.81640625 57.962890625 376.342773438 81.2998046875 376.342773438 c 0
 141.836914062 376.342773438 282.549804688 443.776367188 282.549804688 577.682617188 c 0
 282.549804688 651.640625 223.993164062 673.31640625 160.649414062 673.31640625 c 0
 89.4814453125 673.31640625 52.3603515625 640.557617188 52.3603515625 597.416015625 c 0
331.809570312 597.416015625 m 0
 331.809570312 540.228515625 384.641601562 521.333007812 440.099609375 521.333007812 c 0
 440.21484375 521.333007812 440.329101562 521.333007812 440.443359375 521.333007812 c 1
 417.200195312 485.185546875 394.70703125 469.959960938 336.817382812 441.639648438 c 0
 324.55078125 435.638671875 322.231445312 422.921875 322.231445312 413.233398438 c 0
 322.231445312 391.81640625 337.413085938 376.342773438 360.75 376.342773438 c 0
 421.286132812 376.342773438 562 443.776367188 562 577.682617188 c 0
 562 651.640625 503.443359375 673.31640625 440.099609375 673.31640625 c 0
 368.930664062 673.31640625 331.809570312 640.557617188 331.809570312 597.416015625 c 0
EndSplineSet
EndChar

StartChar: quotesinglbase
Encoding: 465 8218 96
GlifName: quotesinglbase
Width: 331
VWidth: 0
Flags: W
HStem: -6.9834 151.983<81.3187 162.081>
VStem: 53.4473 230.189<19.1995 112.074>
LayerCount: 2
Back
Fore
SplineSet
53.447265625 69.099609375 m 0
 53.447265625 11.912109375 106.278320312 -6.9833984375 161.737304688 -6.9833984375 c 0
 161.8515625 -6.9833984375 161.965820312 -6.9833984375 162.081054688 -6.9833984375 c 1
 138.837890625 -43.130859375 116.34375 -58.359375 58.455078125 -86.6767578125 c 0
 46.1875 -92.677734375 43.869140625 -105.39453125 43.869140625 -115.083007812 c 0
 43.869140625 -136.5 59.0498046875 -151.973632812 82.38671875 -151.973632812 c 0
 142.923828125 -151.973632812 283.63671875 -84.5400390625 283.63671875 49.3662109375 c 0
 283.63671875 123.32421875 225.080078125 145 161.737304688 145 c 0
 90.568359375 145 53.447265625 112.241210938 53.447265625 69.099609375 c 0
EndSplineSet
EndChar

StartChar: quotedblbase
Encoding: 468 8222 97
GlifName: quotedblbase
Width: 601
VWidth: 0
Flags: W
HStem: -6.51953 151.983<74.094 154.855 353.544 434.306>
VStem: 46.2227 230.189<19.6634 112.538> 325.672 230.19<19.6634 112.538>
LayerCount: 2
Back
Fore
SplineSet
46.22265625 69.5634765625 m 0
 46.22265625 12.3759765625 99.0537109375 -6.51953125 154.51171875 -6.51953125 c 0
 154.626953125 -6.51953125 154.741210938 -6.51953125 154.85546875 -6.51953125 c 1
 131.61328125 -42.6669921875 109.118164062 -57.892578125 51.2294921875 -86.212890625 c 0
 38.962890625 -92.2138671875 36.6435546875 -104.930664062 36.6435546875 -114.619140625 c 0
 36.6435546875 -136.036132812 51.8251953125 -151.509765625 75.162109375 -151.509765625 c 0
 135.69921875 -151.509765625 276.412109375 -84.076171875 276.412109375 49.830078125 c 0
 276.412109375 123.788085938 217.85546875 145.463867188 154.51171875 145.463867188 c 0
 83.34375 145.463867188 46.22265625 112.705078125 46.22265625 69.5634765625 c 0
325.671875 69.5634765625 m 0
 325.671875 12.3759765625 378.50390625 -6.51953125 433.961914062 -6.51953125 c 0
 434.077148438 -6.51953125 434.19140625 -6.51953125 434.305664062 -6.51953125 c 1
 411.0625 -42.6669921875 388.568359375 -57.892578125 330.6796875 -86.212890625 c 0
 318.413085938 -92.2138671875 316.09375 -104.930664062 316.09375 -114.619140625 c 0
 316.09375 -136.036132812 331.275390625 -151.509765625 354.612304688 -151.509765625 c 0
 415.1484375 -151.509765625 555.862304688 -84.076171875 555.862304688 49.830078125 c 0
 555.862304688 123.788085938 497.305664062 145.463867188 433.961914062 145.463867188 c 0
 362.79296875 145.463867188 325.671875 112.705078125 325.671875 69.5634765625 c 0
EndSplineSet
EndChar

StartChar: parenleft
Encoding: 8 40 102
GlifName: parenleft
Width: 409
Flags: W
VStem: 70.5977 237.609<146.551 493.403>
LayerCount: 2
Back
Fore
SplineSet
308.20703125 320.903320312 m 4
 308.20703125 121.946289062 376.793945312 -21.4169921875 376.793945312 -98.59765625 c 4
 376.793945312 -138.84765625 351.145507812 -156.153320312 324.100585938 -156.153320312 c 4
 223.606445312 -156.153320312 70.59765625 40.548828125 70.59765625 320.071289062 c 4
 70.59765625 598.921875 223.856445312 795.657226562 324.306640625 795.657226562 c 4
 351.352539062 795.657226562 377 778.3515625 377 738.1015625 c 4
 377 660.861328125 308.20703125 517.384765625 308.20703125 320.903320312 c 4
EndSplineSet
EndChar

StartChar: braceleft
Encoding: 91 123 104
GlifName: braceleft
Width: 556
Flags: W
HStem: -158.602 151.979<403.297 495.426> 648.332 151.667<403.297 495.472>
VStem: 183.58 219.717<-6.62305 242.217 397.575 648.332>
LayerCount: 2
Back
SplineSet
339.67578125 -6.21875 m 260
 339.67578125 181.280273438 290.439453125 265.330078125 245.375976562 274.381835938 c 261
 290.439453125 285.182617188 339.67578125 370.91796875 339.67578125 565.33203125 c 1284
341.088867188 565.33203125 m 5
 402.806640625 565.33203125 461.642578125 583.331054688 461.642578125 641.41015625 c 4
 461.642578125 684.551757812 424.521484375 717.310546875 353.352539062 717.310546875 c 4
 315.135742188 717.310546875 278.115234375 716.7421875 245.252929688 716.7421875 c 4
 145.200195312 716.7421875 120.28515625 686.259765625 120.22265625 606.91015625 c 4
 120.22265625 -48.2001953125 l 4
 120.28515625 -127.549804688 145.200195312 -158.032226562 245.252929688 -158.032226562 c 4
 278.115234375 -158.032226562 315.135742188 -158.600585938 353.352539062 -158.600585938 c 4
 424.521484375 -158.600585938 461.642578125 -125.841796875 461.642578125 -82.7001953125 c 4
 461.642578125 -24.62109375 402.806640625 -6.6220703125 341.088867188 -6.6220703125 c 1029
EndSplineSet
Fore
SplineSet
403.296875 648.33203125 m 5
 465.133789062 648.33203125 525 666.330078125 525 724.409179688 c 4
 525 767.55078125 487.87890625 799.999023438 416.7109375 799.999023438 c 6
 308.610351562 799.999023438 l 6
 208.55859375 799.999023438 183.580078125 769.258789062 183.580078125 689.909179688 c 6
 183.580078125 395.1171875 l 5
 132.572265625 386.94140625 106.14453125 357.931640625 106.14453125 321.530273438 c 4
 106.14453125 275.161132812 140.876953125 253.966796875 183.580078125 247.607421875 c 5
 183.580078125 -48.201171875 l 6
 183.580078125 -127.55078125 208.55859375 -158.033203125 308.610351562 -158.033203125 c 4
 341.47265625 -158.033203125 378.493164062 -158.6015625 416.7109375 -158.6015625 c 4
 487.87890625 -158.6015625 525 -125.842773438 525 -82.701171875 c 4
 525 -24.6220703125 464.990234375 -6.623046875 403.296875 -6.623046875 c 5
 403.296875 205.291015625 378.30078125 309.84765625 329.43359375 320.380859375 c 5
 378.30078125 332.555664062 403.296875 430.5625 403.296875 648.33203125 c 5
EndSplineSet
EndChar

StartChar: bracketleft
Encoding: 59 91 106
GlifName: bracketleft
Width: 478
Flags: W
HStem: -158.601 151.979<326.446 417.813> 649.021 150.979<326.446 417.813>
LayerCount: 2
Back
Fore
SplineSet
105.580078125 -48.2001953125 m 6
 105.580078125 -127.549804688 130.557617188 -158.032226562 230.610351562 -158.032226562 c 4
 263.47265625 -158.032226562 300.493164062 -158.600585938 338.709960938 -158.600585938 c 4
 409.87890625 -158.600585938 447 -125.841796875 447 -82.7001953125 c 4
 447 -24.62109375 388.165039062 -6.6220703125 326.446289062 -6.6220703125 c 5
 326.446289062 649.021484375 l 5
 388.165039062 649.021484375 447 667.020507812 447 725.099609375 c 4
 447 767.672851562 409.87890625 800 338.709960938 800 c 6
 230.610351562 800 l 6
 130.557617188 800 105.580078125 769.23046875 105.580078125 690.599609375 c 6
 105.580078125 -48.2001953125 l 6
EndSplineSet
EndChar

StartChar: bar
Encoding: 92 124 108
GlifName: bar
Width: 339
VWidth: 0
Flags: W
HStem: -72.8311 795.212<90.446 248.35>
VStem: 61 219<-40.8267 693.219>
LayerCount: 2
Back
Fore
SplineSet
280 28.0224609375 m 1052,0,-1
280 28.0224609375 m 6,1,-1
 280 -40.630859375 241.791992188 -72.8310546875 170.04296875 -72.8310546875 c 4,4,-1
 98.29296875 -72.8310546875 61.2470703125 -51.78515625 61 20.3759765625 c 6,7,-1
 61 633.482421875 l 6,8,-1
 61 697.818359375 107.9765625 722.380859375 170.04296875 722.380859375 c 4,11,-1
 232.88671875 722.380859375 279.645507812 712.4296875 279.681640625 642.46875 c 6,14,-1
 280 28.0224609375 l 6,1,-1
EndSplineSet
EndChar

StartChar: slash
Encoding: 15 47 109
GlifName: slash
Width: 546
VWidth: 0
Flags: W
HStem: -16.6328 702.466<207.36 369.36>
LayerCount: 2
Back
Fore
SplineSet
290.540039062 49.5390625 m 6
 272.250976562 4.603515625 249.946289062 -16.6328125 207.360351562 -16.6328125 c 4
 145.890625 -16.6328125 74.853515625 30.48046875 74.853515625 82 c 4
 74.853515625 95.4130859375 79.228515625 108.44140625 85.7548828125 124.642578125 c 6
 289.491210938 631.900390625 l 6
 304.896484375 669.743164062 328.551757812 685.833007812 369.360351562 685.833007812 c 4
 430.3671875 685.833007812 505 643.563476562 505 593 c 4
 505 582.1171875 501.947265625 570.583007812 496.546875 557.317382812 c 6
 290.540039062 49.5390625 l 6
EndSplineSet
EndChar

StartChar: endash
Encoding: 461 8211 110
GlifName: endash
Width: 650
VWidth: 0
Flags: W
HStem: 201.58 144.9<80.1039 571.055>
VStem: 61 527<219.01 327.416>
LayerCount: 2
Back
Fore
SplineSet
491.9140625 346.48046875 m 6
 564.494140625 346.48046875 588 324.99609375 588 267.962890625 c 4
 588 217.74609375 554.41015625 201.580078125 482.55078125 201.580078125 c 6
 142.083007812 201.580078125 l 6
 81.6767578125 201.580078125 61 229.274414062 61 271.842773438 c 4
 61 311.912109375 78.8564453125 346.48046875 148.329101562 346.48046875 c 6
 491.9140625 346.48046875 l 6
EndSplineSet
EndChar

StartChar: emdash
Encoding: 462 8212 111
GlifName: emdash
Width: 823
VWidth: 0
Flags: W
HStem: 201.58 144.9<58.6561 765.054>
LayerCount: 2
Back
Fore
SplineSet
685.9140625 346.48046875 m 2
 758.49023438 346.48046875 782 324.99609375 782 267.962890625 c 0
 782 217.74609375 748.40625 201.580078125 676.55078125 201.580078125 c 2
 120.633789062 201.580078125 l 2
 60.2314453126 201.580078125 39.55078125 229.274414062 39.55078125 271.842773438 c 0
 39.55078125 311.912109375 57.4111328126 346.48046875 126.879882812 346.48046875 c 2
 685.9140625 346.48046875 l 2
EndSplineSet
EndChar

StartChar: bullet
Encoding: 471 8226 112
GlifName: bullet
Width: 329
VWidth: 0
Flags: W
HStem: 143.435 206.032<86.8082 247.572>
VStem: 44.9111 237.089<179.071 309>
LayerCount: 2
Back
Fore
SplineSet
44.9111328125 243.666992188 m 0
 44.9111328125 168.327148438 102.791015625 143.434570312 163.55078125 143.434570312 c 0
 234.916992188 143.434570312 282 165.6484375 282 249.416992188 c 0
 282 317.458007812 241.385742188 349.466796875 162.400390625 349.466796875 c 0
 85.185546875 349.466796875 44.9111328125 303.803710938 44.9111328125 243.666992188 c 0
EndSplineSet
EndChar

StartChar: periodcentered
Encoding: 125 183 113
GlifName: periodcentered
Width: 315
VWidth: 0
Flags: W
HStem: 157.959 151.983<72.3317 237.756>
VStem: 44.46 217.54<183.542 282.83>
LayerCount: 2
Back
Fore
SplineSet
44.4599609375 234.041992188 m 4
 44.4599609375 176.854492188 97.2919921875 157.958984375 152.75 157.958984375 c 4
 218.573242188 157.958984375 262 173.90625 262 234.041992188 c 4
 262 285.66015625 224.900390625 309.942382812 152.75 309.942382812 c 4
 81.5810546875 309.942382812 44.4599609375 277.18359375 44.4599609375 234.041992188 c 4
EndSplineSet
EndChar

StartChar: asterisk
Encoding: 10 42 114
GlifName: asterisk
Width: 568
VWidth: 0
Flags: W
VStem: 211.771 144.899<700.577 826.469>
LayerCount: 2
Back
Fore
SplineSet
211.770507812 747.327148438 m 2
 211.770507812 819.909179688 233.25390625 843.413085938 290.2890625 843.413085938 c 0
 340.50390625 843.413085938 356.669921875 809.826171875 356.669921875 737.963867188 c 2
 356.669921875 700.576171875 l 1
 415.709960938 721.513671875 l 2
 437.892578125 729.379882812 455.958984375 733.591796875 470.91015625 733.591796875 c 0
 505.208007812 733.591796875 538 700.731445312 538 653.663085938 c 0
 538 622.241210938 510.135742188 601.169921875 456.469726562 582.1484375 c 2
 417.0390625 568.173828125 l 1
 461.500976562 504.672851562 l 2
 476.935546875 482.629882812 483.587890625 464.3828125 483.587890625 448.962890625 c 0
 483.587890625 414.509765625 442.912109375 377.541992188 406.509765625 377.541992188 c 0
 385.790039062 377.541992188 365.122070312 389.692382812 344.41015625 419.272460938 c 2
 282.780273438 507.287109375 l 1
 221.151367188 419.272460938 l 2
 200.508789062 389.791015625 179.911132812 377.541015625 159.259765625 377.541015625 c 0
 123.442382812 377.541015625 81.9697265625 413.999023438 81.9697265625 447.813476562 c 0
 81.9697265625 463.474609375 88.2392578125 482.080078125 104.060546875 504.672851562 c 2
 149.096679688 568.9921875 l 1
 111.975585938 582.1484375 l 2
 58.3095703125 601.169921875 30.4453125 622.241210938 30.4453125 653.663085938 c 0
 30.4453125 700.401367188 63.1552734375 733.59375 97.16015625 733.59375 c 0
 112.184570312 733.59375 130.366210938 729.4453125 152.735351562 721.513671875 c 2
 211.770507812 700.577148438 l 1
 211.770507812 747.327148438 l 2
EndSplineSet
EndChar

StartChar: dagger
Encoding: 469 8224 115
GlifName: dagger
Width: 532
VWidth: 0
Flags: W
HStem: -0.24707 21G<233.067 302.027> 472 144.9<57.0149 482.058>
VStem: 163.914 210<44.879 699.502>
LayerCount: 2
Back
Fore
SplineSet
402.9140625 616.900390625 m 6
 475.50390625 616.900390625 499 595.416015625 499 538.3828125 c 4
 499 488.166015625 465.419921875 472 393.55078125 472 c 6
 118.997070312 472 l 6
 58.5830078125 472 37.9140625 499.694335938 37.9140625 542.262695312 c 4
 37.9140625 582.33203125 55.76171875 616.900390625 125.243164062 616.900390625 c 6
 402.9140625 616.900390625 l 6
373.9140625 150.057617188 m 6
 373.9140625 44 336.887695312 -0.2470703125 267.166992188 -0.2470703125 c 4
 198.967773438 -0.2470703125 163.9140625 31.9560546875 163.9140625 142.41015625 c 6
 163.9140625 617.05078125 l 6
 163.9140625 706.43359375 208.221679688 737 267.166992188 737 c 4
 328.244140625 737 373.9140625 723.181640625 373.9140625 626.037109375 c 6
 373.9140625 150.057617188 l 6
EndSplineSet
EndChar

StartChar: daggerdbl
Encoding: 470 8225 116
GlifName: daggerdbl
Width: 532
VWidth: 0
Flags: W
HStem: -0.24707 21G<233.067 302.027> 147.617 144.9<57.0149 482.058> 472 144.9<57.0149 482.058>
VStem: 163.914 210<44.879 699.502>
LayerCount: 2
Back
Fore
SplineSet
402.9140625 292.517578125 m 6
 475.50390625 292.517578125 499 271.033203125 499 214 c 4
 499 163.783203125 465.419921875 147.6171875 393.55078125 147.6171875 c 6
 118.997070312 147.6171875 l 6
 58.5830078125 147.6171875 37.9140625 175.311523438 37.9140625 217.879882812 c 4
 37.9140625 257.94921875 55.76171875 292.517578125 125.243164062 292.517578125 c 6
 402.9140625 292.517578125 l 6
402.9140625 616.900390625 m 2
 475.50390625 616.900390625 499 595.416015625 499 538.3828125 c 0
 499 488.166015625 465.419921875 472 393.55078125 472 c 2
 118.997070312 472 l 2
 58.5830078125 472 37.9140625 499.694335938 37.9140625 542.262695312 c 0
 37.9140625 582.33203125 55.76171875 616.900390625 125.243164062 616.900390625 c 2
 402.9140625 616.900390625 l 2
373.9140625 150.057617188 m 2
 373.9140625 44 336.887695312 -0.2470703125 267.166992188 -0.2470703125 c 0
 198.967773438 -0.2470703125 163.9140625 31.9560546875 163.9140625 142.41015625 c 2
 163.9140625 617.05078125 l 2
 163.9140625 706.43359375 208.221679688 737 267.166992188 737 c 0
 328.244140625 737 373.9140625 723.181640625 373.9140625 626.037109375 c 2
 373.9140625 150.057617188 l 2
EndSplineSet
EndChar

StartChar: section
Encoding: 109 167 117
GlifName: section
Width: 800
VWidth: 0
Flags: W
HStem: -95.5195 167.271<211.148 468.391> 695.712 123.839<427.034 562.292>
VStem: 44.1807 241.287<375.565 447.053> 179 238.8<608.377 686.042>
LayerCount: 2
Back
SplineSet
342.650390625 602.936523438 m 4
 153.604492188 602.936523438 44 512.521484375 44 396 c 4
 44 324.62109375 79.3037109375 275.850585938 155.549804688 232.286132812 c 4
 297.280273438 143.7421875 356.450195312 144.990234375 356.450195312 103.8359375 c 4
 356.450195312 80.3623046875 336.719726562 72.1572265625 311.600585938 72.1572265625 c 4
 226.91015625 72.1572265625 140.090820312 125.038085938 90.3740234375 125.038085938 c 4
 50.1240234375 125.038085938 32.8193359375 99.390625 32.8193359375 72.3447265625 c 4
 32.8193359375 6.04296875 167.170898438 -95.1142578125 357.600585938 -95.1142578125 c 4
 599.514648438 -95.1142578125 646.299804688 15.744140625 646.299804688 111.885742188 c 4
 646.299804688 177.9453125 613.71484375 227.9609375 502.950195312 297.385742188 c 4
 406.484375 356.921875 312.75 379.397460938 312.75 431.5859375 c 4
 312.75 467.732421875 336.615234375 479.09765625 371.400390625 479.09765625 c 4
 455.182617188 479.09765625 532.615234375 404.926757812 576.549804688 404.926757812 c 4
 596.080078125 404.926757812 619.415039062 419.97265625 619.415039062 449.986328125 c 4
 619.415039062 519.46875 509.956054688 602.936523438 342.650390625 602.936523438 c 4
EndSplineSet
Fore
SplineSet
516.005859375 325.140625 m 7xe0
 516.005859375 339.099063558 503.923071784 347.974655496 476 364.140625 c 4
 380.999994916 419.140561861 351.940782479 449.181640625 315 449.181640625 c 7
 295.598577964 449.181640625 285.467773438 437.345043796 285.467773438 418.140625 c 7
 285.467773438 368.951312631 393.673322066 292 468 292 c 7
 493.652510553 292 516.005859375 301.811050049 516.005859375 325.140625 c 7xe0
179 578.31640625 m 1xd0
 179 706.78515625 258.654296875 819.55078125 447.700195312 819.55078125 c 0
 615.005859375 819.55078125 724.46484375 736.083007812 724.46484375 666.600585938 c 0
 724.46484375 636.586914062 701.129882812 621.541015625 681.599609375 621.541015625 c 0
 637.665039062 621.541015625 560.232421875 695.711914062 476.450195312 695.711914062 c 0
 441.665039062 695.711914062 417.799804688 684.346679688 417.799804688 648.200195312 c 0xd0
 417.799804688 596.01171875 504.948929298 576.202663193 601 516 c 0
 716.329858903 443.713823482 763.443186612 413.669307278 763.443186612 316.000006155 c 3
 763.443186612 226.292956155 697.223329049 162.27928268 646.48046875 144 c 1
 647.465945476 133.220909705 647.83263017 122.533157942 647.83263017 112.000003955 c 3
 647.83263017 -0.59201922707 578.999967077 -95.51953125 357.78125 -95.51953125 c 0
 167.3515625 -95.51953125 33 5.6376953125 33 71.939453125 c 0
 33 98.9853515625 50.3046875 124.6328125 90.5546875 124.6328125 c 0
 140.271484375 124.6328125 227.090820312 71.751953125 311.78125 71.751953125 c 0
 336.900390625 71.751953125 356.630859375 79.95703125 356.630859375 103.430664062 c 0
 356.630859375 144.584960938 300.831154721 148.975208456 155.73046875 231.880859375 c 0
 79.484375 275.4453125 44.1806640625 324.215820312 44.1806640625 395.594726562 c 0xe0
 44.1806640625 503 119 547 179 578.31640625 c 1xd0
EndSplineSet
EndChar

StartChar: paragraph
Encoding: 124 182 118
GlifName: paragraph
Width: 1000
VWidth: 0
Flags: W
HStem: 556 128<880.248 970.258>
VStem: 21 549.05<291.597 515.612>
LayerCount: 2
Back
Fore
SplineSet
355 117.779296875 m 5
 355 38.208984375 374.549804688 0.01953125 456.59765625 0.01953125 c 4
 540.150390625 0.01953125 570.049804688 25.9453125 570.049804688 106.70703125 c 6
 570.049804688 556 l 5
 665.198242188 556 l 5
 665.198242188 117.779296875 l 6
 665.198242188 38.208984375 684.748046875 0.01953125 766.795898438 0.01953125 c 4
 850.348632812 0.01953125 880.248046875 25.9453125 880.248046875 106.70703125 c 6
 880.248046875 556 l 5
 944.622070312 556 981.952148438 562.544921875 981.952148438 613.919921875 c 4
 981.952148438 665.546246498 965.154296875 683.737464719 902.1015625 684 c 6
 355.912109375 684 l 5
 160.26636785 684 21 593.587411072 21 391.831054688 c 4
 21 208.592929356 194.701933132 117.779296875 355 117.779296875 c 5
EndSplineSet
EndChar

StartChar: tm_LLA
Encoding: 365 2995 119
GlifName: uni0B_B_3
Width: 1566
VWidth: 0
Flags: W
HStem: -6.19922 77.8975<319.434 500.239> 235.396 73.3584<453.816 499.838> 378 123.677<942.107 1139.91 1354.96 1515.87> 378.925 143.075<354.918 566.122>
VStem: 40 221.938<161.293 298.41> 301.752 140.905<114.65 228.886> 509.891 140.843<76.756 231.34> 727.009 215.099<28.3028 222.944> 1139.91 215.05<28.3028 378>
AnchorPoint: "Anchor-1" 1541 0 basechar 0
AnchorPoint: "Anchor-0" 831 0 basechar 0
LayerCount: 2
Back
SplineSet
512.890625 152.798828125 m 4xbf
 512.890625 192.381835938 502.565429688 235.395507812 480.458007812 235.395507812 c 4
 457.62109375 235.395507812 445.657226562 191.87890625 445.657226562 152.841796875 c 4
 445.657226562 113.8203125 456.776367188 71.6982421875 480.141601562 71.6982421875 c 4
 503.506835938 71.6982421875 512.890625 113.236328125 512.890625 152.798828125 c 4xbf
734.0859375 424.634765625 m 5
 745.26953125 470.884765625 779.094726562 500.28515625 827.438476562 501.676757812 c 4
 1455.70800781 501.881835938 l 4
 1512.31542969 501.881835938 1528.95703125 485.555664062 1528.95703125 437.482421875 c 4
 1528.95703125 387.428710938 1499.40820312 378 1449.95800781 378 c 6
 1357.95800781 378 l 5
 1357.95800781 107 l 6
 1357.95800781 26.2392578125 1328.05761719 0.3134765625 1244.50488281 0.3134765625 c 4
 1162.45800781 0.3134765625 1142.90820312 38.5029296875 1142.90820312 118.072265625 c 6
 1142.90820312 378 l 5
 945.107421875 378 l 5xdf80
 945.107421875 107 l 6
 945.107421875 26.2392578125 915.208007812 0.3134765625 831.655273438 0.3134765625 c 4
 749.607421875 0.3134765625 730.168945312 39 730.057617188 118.072265625 c 6
 730.008789062 152.883789062 l 5
 686.283203125 307.2890625 609.983398438 378.924804688 456.30859375 378.924804688 c 4
 365.727539062 378.924804688 264.9375 326.724609375 264.9375 228.784179688 c 4
 264.9375 175.357421875 280.198242188 138.362304688 309.099609375 113.71875 c 5
 306.25390625 125.534179688 304.751953125 138.19921875 304.751953125 151.682617188 c 4
 304.751953125 249.62890625 379.498046875 308.75390625 479.836914062 308.75390625 c 4
 580.202148438 308.75390625 653.733398438 249.62890625 653.733398438 151.682617188 c 4
 653.733398438 45.0458984375 569.915039062 -6.19921875 457 -6.19921875 c 4
 189.049804688 -6.19921875 43 90 43 266 c 4
 43 433 199.374023438 522 449 522 c 1028
EndSplineSet
Fore
SplineSet
509.890625 152.798828125 m 4xcf80
 509.890625 192.381835938 499.565429688 235.395507812 477.458007812 235.395507812 c 4
 454.62109375 235.395507812 442.657226562 191.87890625 442.657226562 152.841796875 c 4
 442.657226562 113.8203125 453.776367188 71.6982421875 477.141601562 71.6982421875 c 4
 500.506835938 71.6982421875 509.890625 113.236328125 509.890625 152.798828125 c 4xcf80
731.0859375 424.634765625 m 5
 731.0859375 424.634765625 748 502 824.438476562 501.676757812 c 0
 1452.70800781 501.881835938 l 0
 1509.31542969 501.881835938 1525.95703125 485.555664062 1525.95703125 437.482421875 c 0
 1525.95703125 387.428710938 1496.40820312 378 1446.95800781 378 c 2
 1354.95800781 378 l 1
 1354.95800781 107 l 2
 1354.95800781 26.2392578125 1325.05761719 0.3134765625 1241.50488281 0.3134765625 c 0
 1159.45800781 0.3134765625 1139.90820312 38.5029296875 1139.90820312 118.072265625 c 2
 1139.90820312 378 l 1
 942.107421875 378 l 1xef80
 942.107421875 107 l 2
 942.107421875 26.2392578125 911 0.3134765625 828.655273438 0.3134765625 c 0
 737.999023438 0.3134765625 727.057617188 50.8828125 727.008789062 116 c 4
 727.008789062 272.116210938 606.983398438 378.924804688 453.30859375 378.924804688 c 4
 362.727539062 378.924804688 261.9375 326.724609375 261.9375 228.784179688 c 4
 261.9375 175.357421875 277.198242188 138.362304688 306.099609375 113.71875 c 5
 303.25390625 125.534179688 301.751953125 138.19921875 301.751953125 151.682617188 c 4
 301.751953125 249.62890625 376.498046875 308.75390625 476.836914062 308.75390625 c 4
 577.202148438 308.75390625 650.733398438 249.62890625 650.733398438 151.682617188 c 4
 650.733398438 45.0458984375 566.915039062 -6.19921875 454 -6.19921875 c 4
 186.049804688 -6.19921875 40 90 40 266 c 4
 40 433 196.374023438 522 446 522 c 4xdf80
 623 522 731.0859375 424.634765625 731.0859375 424.634765625 c 5
EndSplineSet
EndChar

StartChar: tm_VA
Encoding: 367 2997 120
GlifName: uni0B_B_5
Width: 1283
VWidth: 0
Flags: W
HStem: -6.19922 77.8975<319.434 500.257> -0.0664062 125.351<885.702 1023.71> 235.396 73.3584<453.816 499.838> 378 143.876<344.63 572.167>
VStem: 40 221.937<157.471 305.804> 301.752 140.905<114.649 228.886> 509.891 140.842<76.9147 231.34> 720.282 165.42<126.33 230.012> 1023.71 215.05<125.284 464.369>
AnchorPoint: "Anchor-1" 1233 -3 basechar 0
AnchorPoint: "Anchor-0" 818 0 basechar 0
LayerCount: 2
Back
Fore
SplineSet
453.307617188 378 m 0x7f80
 362.7265625 378 261.936523438 340.329101562 261.936523438 228.784179688 c 0
 261.936523438 175.357421875 277.197265625 138.361328125 306.099609375 113.717773438 c 1
 303.25390625 125.533203125 301.751953125 138.19921875 301.751953125 151.682617188 c 0
 301.751953125 249.62890625 376.497070312 308.75390625 476.836914062 308.75390625 c 0
 577.201171875 308.75390625 650.732421875 249.62890625 650.732421875 151.682617188 c 0
 650.732421875 45.7841796875 567.037109375 -6.19921875 454 -6.19921875 c 0xbf80
 186.049804688 -6.19921875 40 94 40 254 c 0
 40 448 204.831054688 521.875976562 454.458007812 521.875976562 c 0
 757.745117188 521.875976562 884.674804688 333.444335938 885.702148438 125.284179688 c 1
 1023.70800781 125.284179688 l 1
 1023.70800781 384.424804688 l 2
 1023.70800781 463.995117188 1049.95214844 502 1132 502 c 0
 1215.55273438 502 1238.7578125 451.258789062 1238.7578125 370.497070312 c 2
 1238.7578125 109.924804688 l 2
 1238.7578125 11.755859375 1181.74707031 -0.06640625 1109.15820312 -0.06640625 c 2
 823.608398438 -0.06640625 l 2
 755.807617188 -0.06640625 720.282226562 51.2861328125 720.282226562 130 c 0
 720.282226562 172.350585938 707.265625 378 453.307617188 378 c 0x7f80
509.890625 152.798828125 m 0
 509.890625 192.381835938 499.565429688 235.395507812 477.458007812 235.395507812 c 0
 454.62109375 235.395507812 442.657226562 191.87890625 442.657226562 152.841796875 c 0
 442.657226562 113.8203125 453.776367188 71.6982421875 477.141601562 71.6982421875 c 0
 500.505859375 71.6982421875 509.890625 113.236328125 509.890625 152.798828125 c 0
EndSplineSet
EndChar

StartChar: tm_LA
Encoding: 364 2994 121
GlifName: uni0B_B_2
Width: 1219
VWidth: 0
Flags: W
HStem: -6.19922 77.8975<319.434 500.239> -0.0664062 150.256<904.927 965.225> 235.396 73.3584<453.816 499.838> 378.925 143.075<354.918 574.026>
VStem: 40 221.938<161.293 298.41> 301.752 140.905<114.65 228.886> 509.891 140.843<76.756 231.34> 970.233 207.575<153.913 306.675>
AnchorPoint: "Anchor-1" 1125 0 basechar 0
AnchorPoint: "Anchor-0" 663 -2 basechar 0
LayerCount: 2
Back
Fore
SplineSet
509.890625 152.798828125 m 4xbf
 509.890625 192.381835938 499.565429688 235.395507812 477.458007812 235.395507812 c 4
 454.62109375 235.395507812 442.657226562 191.87890625 442.657226562 152.841796875 c 4
 442.657226562 113.8203125 453.776367188 71.6982421875 477.141601562 71.6982421875 c 4
 500.506835938 71.6982421875 509.890625 113.236328125 509.890625 152.798828125 c 4xbf
727.008789062 152.883789062 m 4
 683.283203125 307.2890625 606.983398438 378.924804688 453.30859375 378.924804688 c 4
 362.727539062 378.924804688 261.9375 326.724609375 261.9375 228.784179688 c 4
 261.9375 175.357421875 277.198242188 138.362304688 306.099609375 113.71875 c 5
 303.25390625 125.534179688 301.751953125 138.19921875 301.751953125 151.682617188 c 4
 301.751953125 249.62890625 376.498046875 308.75390625 476.836914062 308.75390625 c 4
 577.202148438 308.75390625 650.733398438 249.62890625 650.733398438 151.682617188 c 4
 650.733398438 45.0458984375 566.915039062 -6.19921875 454 -6.19921875 c 4xbf
 186.049804688 -6.19921875 40 90 40 266 c 4
 40 433 196.374023438 522 446 522 c 4
 715.2421875 522 835.114257812 377.626953125 881.108398438 226.354492188 c 0
 892.500976562 188.884765625 909.858398438 150.189453125 934.008789062 150.189453125 c 0
 950.912109375 150.189453125 970.233398438 160.422851562 970.233398438 197.734375 c 0
 970.233398438 259.637695312 931.194335938 335.537109375 931.194335938 426.408203125 c 0
 931.194335938 470.4296875 965.51171875 501.798828125 1032.90820312 501.798828125 c 0
 1108.76660156 501.798828125 1177.80859375 438.18359375 1177.80859375 246.607421875 c 0
 1177.80859375 60.7685546875 1053.38476562 -0.06640625 950.108398438 -0.06640625 c 0x7f
 839.708007812 -0.06640625 760.294921875 35.3408203125 727.008789062 152.883789062 c 4
EndSplineSet
EndChar

StartChar: tm_BAE
Encoding: 360 2990 122
GlifName: uni0B_A_E_
Width: 859
VWidth: 0
Flags: W
HStem: -0.0947266 125.263<256.05 363 489.5 597.584> 377.159 124.841<504.729 583.678>
VStem: 41 215.05<125.108 474.519> 363 126.5<125.168 362.014> 597.584 220.816<128.503 360.01>
AnchorPoint: "Anchor-1" 696 0 basechar 0
AnchorPoint: "Anchor-0" 534 -4.51953 basechar 0
LayerCount: 2
Back
Fore
SplineSet
256.049804688 125.108398438 m 5
 363 125.12890625 l 5
 363 315.05859375 l 6
 363 433.508789062 452.104492188 502 567.700195312 502 c 4
 681.409179688 502 818.400390625 441.166015625 818.400390625 255.326171875 c 4
 818.400390625 63.75 749.358398438 -0.0947265625 673.5 -0.0947265625 c 6
 150.25 -0.0947265625 l 6
 88.150390625 -0.0947265625 41 45.189453125 41 112.822265625 c 6
 41 384.749023438 l 6
 41 464.319335938 60.5498046875 502.508789062 142.59765625 502.508789062 c 4
 226.150390625 502.508789062 256.049804688 476.583007812 256.049804688 395.821289062 c 6
 256.049804688 125.108398438 l 5
489.5 125.16796875 m 5
 597.583984375 125.213867188 l 5
 597.600585938 291 l 4
 597.600585938 352.215820312 575.75 377.159179688 543.549804688 377.159179688 c 4
 506.75 377.159179688 489.5 346.200195312 489.5 291 c 6
 489.5 125.16796875 l 5
EndSplineSet
EndChar

StartChar: tm_YA
Encoding: 361 2991 123
GlifName: uni0B_A_F_
Width: 914
VWidth: 0
Flags: W
HStem: -5.98047 156.142<266.572 338.983> -0.0625 125.271<533.215 655.198>
VStem: 40 219.368<155.227 461.158> 347.28 219.368<155.92 461.158> 655.198 215.05<125.349 473.587>
AnchorPoint: "Anchor-1" 919 6 basechar 0
AnchorPoint: "Anchor-0" 469 0 basechar 0
LayerCount: 2
Back
Fore
SplineSet
302.607421875 150.161132812 m 4xb8
 344.842773438 150.161132812 347.280273438 183.29296875 347.280273438 251.549804688 c 4
 347.280273438 288.348632812 348.486328125 356.924804688 348.486328125 412.487304688 c 4
 348.486328125 472.01953125 376.51953125 501.4609375 462.0078125 501.4609375 c 4
 547.499023438 501.4609375 566.6484375 462.576171875 566.6484375 271 c 4
 566.6484375 211.84765625 553.951171875 163.7265625 533.21484375 125.208007812 c 5
 580.021484375 125.25 621.262695312 125.30078125 655.198242188 125.348632812 c 5
 655.198242188 383.81640625 l 6
 655.198242188 463.38671875 674.748046875 501.576171875 756.795898438 501.576171875 c 4
 840.348632812 501.576171875 870.248046875 475.650390625 870.248046875 394.888671875 c 6
 870.248046875 109.896484375 l 6
 870.248046875 19.556640625 819.034179688 0.16796875 756.190429688 0.16796875 c 6
 360.287109375 -0.0625 l 5x78
 341.092773438 -4.08984375 322.143554688 -5.98046875 304.244140625 -5.98046875 c 4
 193.28125 -5.98046875 40 66.7529296875 40 271 c 4
 40 462.576171875 59.150390625 501.4609375 144.639648438 501.4609375 c 4
 230.129882812 501.4609375 258.162109375 472.01953125 258.162109375 412.487304688 c 4
 258.162109375 356.9453125 259.368164062 288.396484375 259.368164062 252.469726562 c 4
 259.368164062 186.2421875 259.37109375 150.161132812 302.607421875 150.161132812 c 4xb8
EndSplineSet
EndChar

StartChar: tm_RRA
Encoding: 363 2993 124
GlifName: uni0B_B_1
Width: 933
VWidth: 0
Flags: W
HStem: -242.207 172.015<304.858 571.092> -223.972 170.449<182.001 518.248> 345.878 155.956<272.521 343.203 577.986 645.201>
VStem: 42.3516 218.162<52.1281 333.468> 350.838 218.159<52.1641 340.088> 671.35 221.15<59.7963 320.483>
AnchorPoint: "Anchor-1" 763 0 basechar 0
AnchorPoint: "Anchor-0" 435 0 basechar 0
LayerCount: 2
Back
Fore
SplineSet
304.958984375 345.877929688 m 0xbc
 346.286132812 345.877929688 349.521484375 317.583007812 349.521484375 275 c 0
 350.837890625 88.97265625 l 0
 350.837890625 29.4404296875 378.87109375 0 464.360351562 0 c 0
 551.94140625 0 568.997070312 63.5703125 568.997070312 256 c 3
 568.997070312 302.641601562 569.751953125 345.877929688 612.009765625 345.877929688 c 0
 654.245117188 345.877929688 671.349609375 290.284179688 671.349609375 200.583984375 c 0
 671.349609375 71.193359375 626.5 -70.1923828125 500 -70.1923828125 c 0xbc
 475.553710938 -70.1923828125 450.1484375 -67.2333984375 424.028320312 -63.90625 c 0
 368.341796875 -56.8134765625 319.903320312 -53.5224609375 277.978515625 -53.5224609375 c 0
 100.880859375 -53.5224609375 40 -99.3388671875 40 -166.75390625 c 4
 40 -215.841796875 77.3544921875 -253.448242188 128.478515625 -253.448242188 c 4
 185.908203125 -253.448242188 205.647460938 -223.971679688 327.5 -223.971679688 c 4x7c
 375.275390625 -223.971679688 461.302734375 -242.20703125 541.400390625 -242.20703125 c 4
 812.051757812 -242.20703125 892.5 36.4677734375 892.5 178.68359375 c 0
 892.5 358.159179688 823.387695312 502.01953125 613.645507812 502.01953125 c 0
 565.930664062 502.01953125 510.390625 484.791992188 462.578125 457.216796875 c 1
 413.940429688 488.533203125 356.234375 501.833984375 306.595703125 501.833984375 c 0
 195.6328125 501.833984375 42.3515625 441.11328125 42.3515625 255.274414062 c 0
 42.3515625 63.6982421875 61.501953125 0 146.991210938 0 c 0
 232.481445312 0 260.513671875 29.4404296875 260.513671875 88.97265625 c 0
 261.719726562 267.990234375 l 0
 261.719726562 330 280 345.877929688 304.958984375 345.877929688 c 0xbc
EndSplineSet
EndChar

StartChar: tm_SHA
Encoding: 368 2998 125
GlifName: uni0B_B_6
Width: 1141
VWidth: 0
Flags: W
HStem: 0.0273438 150.142<266.506 337.679 785.849 867.202> 376.451 125.596<563.416 644.849 771.349 879.434>
VStem: 40 219.368<156.304 461.745> 347.28 219.368<156.304 376.451> 644.849 126.5<165.235 376.398> 879.448 220.8<163.312 370.34>
AnchorPoint: "Anchor-1" 1066 -6 basechar 0
AnchorPoint: "Anchor-0" 613 0 basechar 0
LayerCount: 2
Back
Fore
SplineSet
302.607421875 150.168945312 m 0
 344.842773438 150.168945312 347.280273438 183.490234375 347.280273438 252.13671875 c 4
 347.280273438 288.935546875 348.486328125 357.510742188 348.486328125 413.07421875 c 4
 348.486328125 472.606445312 376.51953125 502.046875 462.0078125 502.046875 c 6
 955.348632812 501.654296875 l 6
 1031.20703125 501.654296875 1100.24804688 463.163085938 1100.24804688 271.586914062 c 4
 1100.24804688 66.912109375 963.255859375 -0.0869140625 849.547851562 -0.0869140625 c 0
 733.953125 -0.0869140625 644.848632812 68.404296875 644.848632812 186.854492188 c 2
 644.848632812 376.436523438 l 5
 618.809570312 376.442382812 591.602539062 376.447265625 563.416015625 376.451171875 c 5
 565.735351562 347.990234375 566.6484375 313.430664062 566.6484375 271.586914062 c 4
 566.6484375 66.9033203125 415.265625 0.02734375 304.244140625 0.02734375 c 0
 193.28125 0.02734375 40 66.9033203125 40 271.586914062 c 4
 40 463.163085938 59.150390625 502.046875 144.639648438 502.046875 c 4
 230.129882812 502.046875 258.162109375 472.606445312 258.162109375 413.07421875 c 4
 258.162109375 357.532226562 259.368164062 288.982421875 259.368164062 253.056640625 c 4
 259.368164062 186.454101562 259.37109375 150.168945312 302.607421875 150.168945312 c 0
771.348632812 223.654296875 m 2
 771.348632812 188.774414062 780.547851562 150.168945312 831.1484375 150.168945312 c 0
 858.78515625 150.168945312 879.448242188 174.841796875 879.448242188 212.154296875 c 2
 879.43359375 376.349609375 l 5
 850.389648438 376.365234375 813.861328125 376.381835938 771.348632812 376.3984375 c 5
 771.348632812 223.654296875 l 2
EndSplineSet
EndChar

StartChar: tm_LLLA
Encoding: 366 2996 126
GlifName: uni0B_B_4
Width: 859
VWidth: 0
Flags: W
HStem: -264.25 113.25<190.871 348.314> -175 123.316<500.077 559.7 662.7 729.266> 395.601 106.841<505.533 580.287>
VStem: 41 215.05<-147.155 -61.7476 385.19 474.961> 363 126.5<-43.6142 -0.0947266 300 381.341> 597.584 220.816<128.868 366.662>
AnchorPoint: "Anchor-1" 705.05 0 basechar 0
AnchorPoint: "Anchor-0" 540.05 0 basechar 0
LayerCount: 2
Back
Fore
SplineSet
256.049804688 -110 m 0xbc
 254.736328125 -65.33203125 226.150390625 -40 142.59765625 -40 c 0
 60.5498046875 -40 41 -72 41 -126 c 0
 41 -202.790039062 122.264648438 -264.25 261.200195312 -264.25 c 4xbc
 358.497070312 -264.25 428.586914062 -229.365234375 467.666015625 -175 c 5
 662.700195312 -175 l 4
 709.681640625 -173.6953125 740.700195312 -165 740.700195312 -111.19921875 c 4
 740.700195312 -68.19921875 719.299804688 -51 686.700195312 -51 c 4
 666.68359375 -51 586.309570312 -51.68359375 559.700195312 -51.68359375 c 4x7c
 511.73828125 -51.68359375 497.625976562 -45.603515625 494.024414062 -0.0947265625 c 5
 673.5 -0.0947265625 l 6
 749.358398438 -0.0947265625 818.400390625 64.19140625 818.400390625 255.767578125 c 4
 818.400390625 441.607421875 681.409179688 502.44140625 567.700195312 502.44140625 c 4
 452.104492188 502.44140625 363 433.950195312 363 315.5 c 6
 363 125.12890625 l 5
 256.049804688 125.108398438 l 1
 256.049804688 396.262695312 l 2
 256.049804688 477.024414062 226.150390625 502.950195312 142.59765625 502.950195312 c 0
 60.5498046875 502.950195312 41 464.760742188 41 385.190429688 c 2
 41 112.822265625 l 2
 41 45.19140625 88.150390625 -0.0947265625 150.25 -0.0947265625 c 2
 362.23828125 -0.0947265625 l 5
 362.002929688 -66.4736328125 l 4
 362.002929688 -114 350.060546875 -151 304.049804688 -151 c 4
 275.049804688 -151 257.049804688 -144 256.049804688 -110 c 0xbc
489.5 125.16796875 m 5
 488.5 300 l 6
 488.184570312 355.198242188 505.75 395.600585938 542.549804688 395.600585938 c 4
 574.75 395.600585938 597.600585938 369 597.600585938 300 c 4
 597.583984375 125.213867188 l 5
 489.5 125.16796875 l 5
EndSplineSet
EndChar

StartChar: tm_SSA
Encoding: 369 2999 127
GlifName: uni0B_B_7
Width: 1589
VWidth: 0
Flags: W
HStem: -5.78223 77.8975<319.434 500.222> 0.351562 125.325<873.053 1087.9 1227.05 1329.61> 200.506 72.1484<1028.79 1082.39> 235.812 73.3584<453.816 499.838> 385.218 136.782<351.179 569.468> 436.207 73.3584<1030.13 1076.15>
VStem: 40 221.938<156.754 307.303> 301.752 140.905<115.067 229.303> 509.891 140.843<77.2691 231.757> 707.475 165.578<125.677 248.584> 878.064 140.905<276.954 429.697> 1087.9 139.15<-182.05 0.169922 125.603 201.237 329.349 428.931> 1329.61 215.05<125.484 285.251>
AnchorPoint: "Anchor-1" 1161 0 basechar 0
AnchorPoint: "Anchor-0" 963 0 basechar 0
LayerCount: 2
Back
Fore
SplineSet
1544.65820312 395.651367188 m 2x67f8
 1544.65820312 110.079101562 l 2
 1544.65820312 19.7392578125 1493.44433594 0.3515625 1430.60058594 0.3515625 c 0
 1227.04589844 0.169921875 l 1
 1227.04589844 -118.44921875 l 2
 1227.04589844 -167.897460938 1208.6328125 -197.44921875 1155.74609375 -197.44921875 c 0
 1107.20019531 -197.44921875 1087.89550781 -180.80078125 1087.89550781 -124.19921875 c 2
 1087.89550781 0.23046875 l 1
 810.958007812 0.3515625 l 2x67f8
 743.3125 0.380859375 707.474609375 50.28125 707.474609375 129 c 3
 707.474609375 180.678710938 702.479492188 385.217773438 453.30859375 385.217773438 c 0
 362.7265625 385.217773438 261.9375 345.830078125 261.9375 229.201171875 c 0
 261.9375 175.774414062 277.198242188 138.779296875 306.098632812 114.135742188 c 1
 303.25390625 125.951171875 301.751953125 138.616210938 301.751953125 152.099609375 c 0
 301.751953125 250.045898438 376.497070312 309.170898438 476.836914062 309.170898438 c 0
 577.201171875 309.170898438 650.733398438 250.045898438 650.733398438 152.099609375 c 0
 650.733398438 45.91015625 566.80859375 -5.7822265625 454 -5.7822265625 c 0
 186.049804688 -5.7822265625 40 105.2890625 40 244.151367188 c 0
 40 412.71875 198.885742188 522 439.5078125 522 c 0x9bf8
 744.426757812 522 872.030273438 333.692382812 873.052734375 125.676757812 c 1
 944.611328125 125.659179688 1018.58984375 125.631835938 1087.89550781 125.602539062 c 1
 1087.89550781 201.237304688 l 1
 1076.76660156 200.755859375 1065.19042969 200.505859375 1053.14648438 200.505859375 c 0
 949.328125 200.505859375 878.064453125 256.061523438 878.064453125 352.493164062 c 0
 878.064453125 450.440429688 952.810546875 509.565429688 1053.15039062 509.565429688 c 0
 1153.51464844 509.565429688 1227.04589844 450.440429688 1227.04589844 352.493164062 c 2
 1227.04589844 327.747070312 l 1
 1260.80078125 356.360351562 1286.74511719 394.848632812 1321.63769531 440.243164062 c 0
 1352.14941406 479.938476562 1372.01269531 502.334960938 1431.5 502.334960938 c 0
 1509.94433594 502.334960938 1544.65820312 478.815429688 1544.65820312 395.651367188 c 2x67f8
1086.203125 353.609375 m 0
 1086.203125 393.192382812 1075.87792969 436.20703125 1053.77148438 436.20703125 c 0
 1030.93359375 436.20703125 1018.96972656 392.689453125 1018.96972656 353.65234375 c 0
 1018.96972656 323.533203125 1026 272.654296875 1051.10253906 272.654296875 c 0
 1078.69433594 272.654296875 1086.203125 313.3046875 1086.203125 353.609375 c 0
509.890625 153.215820312 m 0
 509.890625 192.798828125 499.565429688 235.8125 477.458007812 235.8125 c 0
 454.62109375 235.8125 442.657226562 192.295898438 442.657226562 153.258789062 c 0
 442.657226562 114.237304688 453.776367188 72.115234375 477.141601562 72.115234375 c 0x93f8
 500.506835938 72.115234375 509.890625 113.653320312 509.890625 153.215820312 c 0
1227.04589844 224.48828125 m 1
 1227.04589844 125.538085938 l 1
 1329.60839844 125.484375 l 1
 1329.60839844 285.250976562 l 1
 1307.22558594 262.868164062 1275.16992188 240.583984375 1227.04589844 224.48828125 c 1
EndSplineSet
EndChar

